<svg width="612" height="323" viewBox="0 0 612 323" fill="none" xmlns="http://www.w3.org/2000/svg">
<path d="M539.112 320.139C538.545 320.139 538.038 320.025 537.59 319.796C537.146 319.564 536.791 319.246 536.526 318.842C536.264 318.437 536.125 317.975 536.109 317.455H537.009C537.038 317.995 537.25 318.439 537.645 318.787C538.039 319.132 538.528 319.304 539.112 319.304C539.566 319.304 539.97 319.196 540.325 318.981C540.679 318.762 540.956 318.464 541.155 318.086C541.357 317.705 541.458 317.276 541.458 316.798C541.455 316.301 541.347 315.864 541.135 315.486C540.923 315.105 540.634 314.806 540.27 314.591C539.909 314.375 539.503 314.268 539.052 314.268C538.71 314.264 538.376 314.321 538.048 314.437C537.719 314.553 537.446 314.702 537.227 314.884L536.298 314.765L536.909 309.818H541.94V310.653H537.69L537.282 314.059H537.332C537.557 313.87 537.83 313.716 538.152 313.597C538.477 313.477 538.82 313.418 539.181 313.418C539.781 313.418 540.32 313.562 540.797 313.85C541.277 314.138 541.657 314.536 541.935 315.043C542.217 315.547 542.358 316.127 542.358 316.783C542.358 317.426 542.217 318.001 541.935 318.509C541.657 319.012 541.272 319.41 540.782 319.702C540.295 319.993 539.738 320.139 539.112 320.139ZM547.451 320.139C546.885 320.139 546.377 320.025 545.93 319.796C545.486 319.564 545.131 319.246 544.866 318.842C544.604 318.437 544.465 317.975 544.449 317.455H545.348C545.378 317.995 545.59 318.439 545.985 318.787C546.379 319.132 546.868 319.304 547.451 319.304C547.905 319.304 548.31 319.196 548.664 318.981C549.019 318.762 549.296 318.464 549.495 318.086C549.697 317.705 549.798 317.276 549.798 316.798C549.795 316.301 549.687 315.864 549.475 315.486C549.263 315.105 548.974 314.806 548.61 314.591C548.248 314.375 547.842 314.268 547.392 314.268C547.05 314.264 546.716 314.321 546.387 314.437C546.059 314.553 545.786 314.702 545.567 314.884L544.637 314.765L545.249 309.818H550.28V310.653H546.029L545.622 314.059H545.672C545.897 313.87 546.17 313.716 546.492 313.597C546.817 313.477 547.16 313.418 547.521 313.418C548.121 313.418 548.659 313.562 549.137 313.85C549.617 314.138 549.997 314.536 550.275 315.043C550.557 315.547 550.698 316.127 550.698 316.783C550.698 317.426 550.557 318.001 550.275 318.509C549.997 319.012 549.612 319.41 549.122 319.702C548.635 319.993 548.078 320.139 547.451 320.139ZM556.035 320V319.165H556.273C556.545 319.165 556.764 319.115 556.93 319.016C557.099 318.913 557.23 318.741 557.322 318.499C557.415 318.257 557.485 317.927 557.531 317.509C557.578 317.092 557.614 316.568 557.641 315.938L557.805 312.364H562.657V320H561.767V313.199H558.645L558.501 316.237C558.471 316.856 558.421 317.402 558.352 317.872C558.285 318.343 558.176 318.736 558.023 319.05C557.874 319.365 557.665 319.602 557.397 319.761C557.132 319.92 556.784 320 556.353 320H556.035ZM568.09 320.159C567.377 320.159 566.761 319.993 566.24 319.662C565.72 319.327 565.317 318.865 565.032 318.275C564.75 317.682 564.61 316.999 564.61 316.227C564.61 315.458 564.75 314.775 565.032 314.178C565.317 313.578 565.71 313.109 566.21 312.771C566.714 312.43 567.296 312.259 567.955 312.259C568.37 312.259 568.769 312.335 569.154 312.488C569.538 312.637 569.883 312.867 570.188 313.179C570.496 313.487 570.74 313.877 570.919 314.347C571.097 314.815 571.187 315.368 571.187 316.008V316.445H565.221V315.665H570.282C570.282 315.174 570.183 314.733 569.984 314.342C569.788 313.948 569.515 313.636 569.164 313.408C568.816 313.179 568.413 313.065 567.955 313.065C567.472 313.065 567.046 313.194 566.678 313.452C566.31 313.711 566.021 314.052 565.813 314.477C565.607 314.901 565.503 315.365 565.499 315.869V316.336C565.499 316.942 565.604 317.473 565.813 317.927C566.025 318.378 566.325 318.727 566.713 318.976C567.1 319.224 567.559 319.349 568.09 319.349C568.451 319.349 568.767 319.292 569.039 319.18C569.314 319.067 569.545 318.916 569.73 318.727C569.919 318.535 570.062 318.325 570.158 318.096L570.998 318.369C570.882 318.691 570.691 318.987 570.426 319.259C570.164 319.531 569.836 319.75 569.442 319.915C569.051 320.078 568.6 320.159 568.09 320.159ZM572.396 313.199V312.364H578.362V313.199H575.837V320H574.952V313.199H572.396ZM580.581 316.341V315.705L586.666 312.349V313.323L581.675 316.018L581.724 315.928V316.117L581.675 316.028L586.666 318.722V319.697L580.581 316.341Z" fill="#303030" fill-opacity="0.5"/>
<path d="M14.2756 309.818V320H13.3459V310.793H13.2862L10.8999 312.379V311.414L13.3061 309.818H14.2756ZM20.5149 320.139C19.8653 320.139 19.2869 320.017 18.7798 319.771C18.2727 319.526 17.875 319.191 17.5866 318.767C17.2983 318.339 17.1541 317.857 17.1541 317.32C17.1541 316.899 17.242 316.507 17.4176 316.142C17.5933 315.774 17.8352 315.466 18.1435 315.217C18.4517 314.965 18.7981 314.801 19.1825 314.725V314.67C18.6821 314.525 18.2794 314.238 17.9744 313.81C17.6695 313.379 17.5187 312.891 17.522 312.344C17.5187 311.837 17.648 311.383 17.9098 310.982C18.1716 310.58 18.5279 310.264 18.9787 310.032C19.4328 309.797 19.9448 309.679 20.5149 309.679C21.0817 309.679 21.5904 309.797 22.0412 310.032C22.492 310.264 22.8482 310.58 23.1101 310.982C23.3752 311.383 23.5095 311.837 23.5128 312.344C23.5095 312.887 23.3554 313.376 23.0504 313.81C22.7455 314.241 22.3445 314.528 21.8473 314.67V314.725C22.2318 314.798 22.5765 314.96 22.8814 315.212C23.1863 315.464 23.4283 315.774 23.6072 316.142C23.7862 316.507 23.8757 316.899 23.8757 317.32C23.8757 317.857 23.7299 318.339 23.4382 318.767C23.1499 319.191 22.7521 319.526 22.245 319.771C21.7412 320.017 21.1645 320.139 20.5149 320.139ZM20.5149 319.304C20.9988 319.304 21.4231 319.218 21.7876 319.045C22.1555 318.87 22.4422 318.629 22.6477 318.325C22.8565 318.02 22.9609 317.67 22.9609 317.276C22.9609 316.868 22.8532 316.505 22.6378 316.187C22.4223 315.865 22.1307 315.612 21.7628 315.426C21.3949 315.237 20.9789 315.143 20.5149 315.143C20.0509 315.143 19.6333 315.237 19.2621 315.426C18.8942 315.612 18.6025 315.865 18.3871 316.187C18.175 316.505 18.0689 316.868 18.0689 317.276C18.0689 317.67 18.17 318.02 18.3722 318.325C18.5777 318.629 18.8643 318.87 19.2322 319.045C19.6035 319.218 20.031 319.304 20.5149 319.304ZM20.5149 314.347C20.9126 314.347 21.2689 314.263 21.5838 314.094C21.8987 313.925 22.1473 313.694 22.3295 313.403C22.5152 313.108 22.6096 312.773 22.6129 312.398C22.6096 312.027 22.5168 311.699 22.3345 311.414C22.1522 311.126 21.9036 310.902 21.5888 310.743C21.2772 310.58 20.9193 310.499 20.5149 310.499C20.1106 310.499 19.7493 310.58 19.4311 310.743C19.1162 310.902 18.8677 311.126 18.6854 311.414C18.5064 311.699 18.4186 312.027 18.4219 312.398C18.4186 312.773 18.508 313.108 18.6903 313.403C18.8759 313.694 19.1262 313.925 19.4411 314.094C19.7592 314.263 20.1172 314.347 20.5149 314.347ZM34.0339 314.491V315.327H29.7981V314.491H34.0339ZM40.1589 320V319.319L43.4849 315.58C43.9191 315.09 44.2688 314.67 44.5339 314.322C44.7991 313.974 44.9913 313.653 45.1106 313.358C45.2333 313.063 45.2946 312.756 45.2946 312.438C45.2946 312.05 45.2034 311.712 45.0211 311.424C44.8422 311.132 44.5952 310.905 44.2804 310.743C43.9655 310.58 43.6109 310.499 43.2164 310.499C42.7988 310.499 42.4326 310.589 42.1177 310.768C41.8062 310.947 41.5642 311.192 41.3919 311.504C41.2195 311.815 41.1333 312.173 41.1333 312.577H40.2434C40.2434 312.014 40.3727 311.515 40.6312 311.081C40.8931 310.643 41.2493 310.3 41.7001 310.052C42.1542 309.803 42.6679 309.679 43.2413 309.679C43.8081 309.679 44.3118 309.802 44.7527 310.047C45.1935 310.289 45.5398 310.619 45.7917 311.036C46.0436 311.454 46.1696 311.921 46.1696 312.438C46.1696 312.813 46.1033 313.176 45.9707 313.527C45.8414 313.878 45.6177 314.269 45.2995 314.7C44.9814 315.131 44.5405 315.658 43.9771 316.281L41.4515 319.1V319.165H46.4877V320H40.1589ZM48.2415 317.812V317.057L52.7805 309.818H53.3374V311.086H52.9247L49.2805 316.913V316.977H55.2315V317.812H48.2415ZM52.9943 320V317.574V317.226V309.818H53.8793V320H52.9943ZM65.7601 312.364V313.199H62.106V320H61.2211V312.364H65.7601ZM70.1911 320.159C69.5315 320.159 68.9482 319.992 68.4411 319.657C67.9373 319.322 67.5429 318.86 67.2578 318.27C66.9728 317.677 66.8303 316.992 66.8303 316.217C66.8303 315.434 66.9728 314.747 67.2578 314.153C67.5429 313.557 67.9373 313.093 68.4411 312.761C68.9482 312.427 69.5315 312.259 70.1911 312.259C70.8506 312.259 71.4323 312.427 71.9361 312.761C72.4399 313.096 72.8343 313.56 73.1193 314.153C73.4077 314.747 73.5518 315.434 73.5518 316.217C73.5518 316.992 73.4093 317.677 73.1243 318.27C72.8393 318.86 72.4432 319.322 71.9361 319.657C71.4323 319.992 70.8506 320.159 70.1911 320.159ZM70.1911 319.349C70.7214 319.349 71.1705 319.206 71.5384 318.921C71.9063 318.636 72.1847 318.257 72.3736 317.783C72.5658 317.309 72.6619 316.787 72.6619 316.217C72.6619 315.647 72.5658 315.123 72.3736 314.646C72.1847 314.168 71.9063 313.786 71.5384 313.497C71.1705 313.209 70.7214 313.065 70.1911 313.065C69.6641 313.065 69.215 313.209 68.8438 313.497C68.4759 313.786 68.1958 314.168 68.0036 314.646C67.8146 315.123 67.7202 315.647 67.7202 316.217C67.7202 316.787 67.8146 317.309 68.0036 317.783C68.1958 318.257 68.4759 318.636 68.8438 318.921C69.2116 319.206 69.6607 319.349 70.1911 319.349ZM74.5897 322.173V319.165H75.2509C75.4166 318.979 75.5608 318.779 75.6834 318.563C75.806 318.348 75.9121 318.103 76.0016 317.827C76.0944 317.549 76.1723 317.226 76.2353 316.858C76.2982 316.487 76.3513 316.054 76.3944 315.56L76.6728 312.364H81.1919V319.165H82.3255V322.173H81.4405V320H75.4796V322.173H74.5897ZM76.2701 319.165H80.307V313.199H77.498L77.2694 315.56C77.1898 316.362 77.0771 317.062 76.9313 317.658C76.7855 318.255 76.565 318.757 76.2701 319.165ZM86.1449 320.174C85.6842 320.174 85.2633 320.085 84.8821 319.906C84.5009 319.723 84.1977 319.461 83.9723 319.12C83.7469 318.775 83.6342 318.358 83.6342 317.867C83.6342 317.489 83.7055 317.171 83.848 316.913C83.9905 316.654 84.1927 316.442 84.4545 316.276C84.7164 316.111 85.0263 315.98 85.3842 315.884C85.7422 315.787 86.1366 315.713 86.5675 315.66C86.995 315.607 87.3563 315.56 87.6513 315.521C87.9496 315.481 88.1766 315.418 88.3324 315.332C88.4882 315.246 88.5661 315.106 88.5661 314.914V314.735C88.5661 314.215 88.4103 313.805 88.0987 313.507C87.7905 313.205 87.3464 313.055 86.7663 313.055C86.2161 313.055 85.767 313.176 85.419 313.418C85.0743 313.66 84.8324 313.945 84.6932 314.273L83.853 313.969C84.0253 313.552 84.264 313.219 84.5689 312.97C84.8738 312.718 85.2152 312.538 85.593 312.428C85.9709 312.316 86.3537 312.259 86.7415 312.259C87.0331 312.259 87.3364 312.297 87.6513 312.374C87.9695 312.45 88.2644 312.582 88.5362 312.771C88.808 312.957 89.0284 313.217 89.1974 313.552C89.3665 313.883 89.451 314.304 89.451 314.815V320H88.5661V318.792H88.5114C88.4053 319.017 88.2479 319.236 88.0391 319.448C87.8303 319.66 87.5684 319.834 87.2536 319.97C86.9387 320.106 86.5691 320.174 86.1449 320.174ZM86.2642 319.364C86.7348 319.364 87.1425 319.259 87.4872 319.05C87.8319 318.842 88.0971 318.565 88.2827 318.22C88.4716 317.872 88.5661 317.489 88.5661 317.072V315.968C88.4998 316.031 88.3887 316.087 88.233 316.137C88.0805 316.187 87.9032 316.232 87.701 316.271C87.5021 316.308 87.3033 316.339 87.1044 316.366C86.9055 316.392 86.7266 316.415 86.5675 316.435C86.1366 316.488 85.7687 316.571 85.4638 316.684C85.1589 316.797 84.9252 316.952 84.7628 317.151C84.6004 317.347 84.5192 317.599 84.5192 317.907C84.5192 318.371 84.6849 318.731 85.0163 318.986C85.3478 319.238 85.7637 319.364 86.2642 319.364Z" fill="#303030" fill-opacity="0.5"/>
<path d="M137.134 320V319.319L140.46 315.58C140.894 315.09 141.243 314.67 141.509 314.322C141.774 313.974 141.966 313.653 142.085 313.358C142.208 313.063 142.269 312.756 142.269 312.438C142.269 312.05 142.178 311.712 141.996 311.424C141.817 311.132 141.57 310.905 141.255 310.743C140.94 310.58 140.585 310.499 140.191 310.499C139.773 310.499 139.407 310.589 139.092 310.768C138.781 310.947 138.539 311.192 138.366 311.504C138.194 311.815 138.108 312.173 138.108 312.577H137.218C137.218 312.014 137.347 311.515 137.606 311.081C137.868 310.643 138.224 310.3 138.675 310.052C139.129 309.803 139.643 309.679 140.216 309.679C140.783 309.679 141.286 309.802 141.727 310.047C142.168 310.289 142.514 310.619 142.766 311.036C143.018 311.454 143.144 311.921 143.144 312.438C143.144 312.813 143.078 313.176 142.945 313.527C142.816 313.878 142.592 314.269 142.274 314.7C141.956 315.131 141.515 315.658 140.952 316.281L138.426 319.1V319.165H143.462V320H137.134ZM148.656 320.139C148.09 320.139 147.583 320.025 147.135 319.796C146.691 319.564 146.336 319.246 146.071 318.842C145.809 318.437 145.67 317.975 145.654 317.455H146.553C146.583 317.995 146.795 318.439 147.19 318.787C147.584 319.132 148.073 319.304 148.656 319.304C149.11 319.304 149.515 319.196 149.869 318.981C150.224 318.762 150.501 318.464 150.7 318.086C150.902 317.705 151.003 317.276 151.003 316.798C151 316.301 150.892 315.864 150.68 315.486C150.468 315.105 150.179 314.806 149.815 314.591C149.454 314.375 149.048 314.268 148.597 314.268C148.255 314.264 147.921 314.321 147.593 314.437C147.264 314.553 146.991 314.702 146.772 314.884L145.843 314.765L146.454 309.818H151.485V310.653H147.235L146.827 314.059H146.877C147.102 313.87 147.375 313.716 147.697 313.597C148.022 313.477 148.365 313.418 148.726 313.418C149.326 313.418 149.865 313.562 150.342 313.85C150.822 314.138 151.202 314.536 151.48 315.043C151.762 315.547 151.903 316.127 151.903 316.783C151.903 317.426 151.762 318.001 151.48 318.509C151.202 319.012 150.817 319.41 150.327 319.702C149.84 319.993 149.283 320.139 148.656 320.139ZM162.112 314.491V315.327H157.876V314.491H162.112ZM171.543 320.139C170.917 320.139 170.357 320.027 169.863 319.801C169.369 319.572 168.978 319.256 168.689 318.852C168.401 318.447 168.249 317.982 168.232 317.455H169.172C169.188 317.826 169.303 318.151 169.515 318.429C169.727 318.704 170.009 318.92 170.36 319.075C170.711 319.228 171.102 319.304 171.533 319.304C172.004 319.304 172.418 319.216 172.776 319.04C173.137 318.865 173.419 318.625 173.621 318.32C173.827 318.011 173.93 317.663 173.93 317.276C173.93 316.865 173.825 316.502 173.616 316.187C173.407 315.872 173.108 315.627 172.716 315.451C172.329 315.275 171.865 315.188 171.324 315.188H170.728V314.352H171.324C171.765 314.352 172.155 314.273 172.493 314.114C172.834 313.951 173.103 313.724 173.298 313.433C173.494 313.141 173.591 312.798 173.591 312.403C173.591 312.029 173.507 311.699 173.338 311.414C173.169 311.129 172.93 310.905 172.622 310.743C172.317 310.58 171.961 310.499 171.553 310.499C171.159 310.499 170.797 310.576 170.469 310.728C170.141 310.88 169.876 311.096 169.674 311.374C169.475 311.653 169.369 311.982 169.356 312.364H168.456C168.469 311.833 168.615 311.368 168.893 310.967C169.175 310.562 169.548 310.247 170.012 310.022C170.479 309.793 170.996 309.679 171.563 309.679C172.163 309.679 172.682 309.802 173.119 310.047C173.557 310.292 173.895 310.619 174.133 311.026C174.375 311.431 174.496 311.876 174.496 312.364C174.496 312.944 174.339 313.441 174.024 313.855C173.709 314.266 173.285 314.551 172.751 314.71V314.775C173.401 314.904 173.911 315.192 174.282 315.64C174.657 316.084 174.844 316.629 174.844 317.276C174.844 317.819 174.702 318.308 174.417 318.742C174.132 319.173 173.741 319.514 173.243 319.766C172.75 320.015 172.183 320.139 171.543 320.139ZM176.798 317.812V317.057L181.337 309.818H181.894V311.086H181.481L177.837 316.913V316.977H183.788V317.812H176.798ZM181.551 320V317.574V317.226V309.818H182.436V320H181.551ZM194.317 312.364V313.199H190.663V320H189.778V312.364H194.317ZM198.748 320.159C198.088 320.159 197.505 319.992 196.998 319.657C196.494 319.322 196.099 318.86 195.814 318.27C195.529 317.677 195.387 316.992 195.387 316.217C195.387 315.434 195.529 314.747 195.814 314.153C196.099 313.557 196.494 313.093 196.998 312.761C197.505 312.427 198.088 312.259 198.748 312.259C199.407 312.259 199.989 312.427 200.493 312.761C200.997 313.096 201.391 313.56 201.676 314.153C201.964 314.747 202.108 315.434 202.108 316.217C202.108 316.992 201.966 317.677 201.681 318.27C201.396 318.86 201 319.322 200.493 319.657C199.989 319.992 199.407 320.159 198.748 320.159ZM198.748 319.349C199.278 319.349 199.727 319.206 200.095 318.921C200.463 318.636 200.741 318.257 200.93 317.783C201.122 317.309 201.219 316.787 201.219 316.217C201.219 315.647 201.122 315.123 200.93 314.646C200.741 314.168 200.463 313.786 200.095 313.497C199.727 313.209 199.278 313.065 198.748 313.065C198.221 313.065 197.772 313.209 197.4 313.497C197.032 313.786 196.752 314.168 196.56 314.646C196.371 315.123 196.277 315.647 196.277 316.217C196.277 316.787 196.371 317.309 196.56 317.783C196.752 318.257 197.032 318.636 197.4 318.921C197.768 319.206 198.217 319.349 198.748 319.349ZM203.146 322.173V319.165H203.808C203.973 318.979 204.117 318.779 204.24 318.563C204.363 318.348 204.469 318.103 204.558 317.827C204.651 317.549 204.729 317.226 204.792 316.858C204.855 316.487 204.908 316.054 204.951 315.56L205.229 312.364H209.749V319.165H210.882V322.173H209.997V320H204.036V322.173H203.146ZM204.827 319.165H208.864V313.199H206.055L205.826 315.56C205.746 316.362 205.634 317.062 205.488 317.658C205.342 318.255 205.122 318.757 204.827 319.165ZM214.702 320.174C214.241 320.174 213.82 320.085 213.439 319.906C213.058 319.723 212.754 319.461 212.529 319.12C212.304 318.775 212.191 318.358 212.191 317.867C212.191 317.489 212.262 317.171 212.405 316.913C212.547 316.654 212.749 316.442 213.011 316.276C213.273 316.111 213.583 315.98 213.941 315.884C214.299 315.787 214.693 315.713 215.124 315.66C215.552 315.607 215.913 315.56 216.208 315.521C216.506 315.481 216.733 315.418 216.889 315.332C217.045 315.246 217.123 315.106 217.123 314.914V314.735C217.123 314.215 216.967 313.805 216.655 313.507C216.347 313.205 215.903 313.055 215.323 313.055C214.773 313.055 214.324 313.176 213.976 313.418C213.631 313.66 213.389 313.945 213.25 314.273L212.41 313.969C212.582 313.552 212.821 313.219 213.126 312.97C213.43 312.718 213.772 312.538 214.15 312.428C214.528 312.316 214.91 312.259 215.298 312.259C215.59 312.259 215.893 312.297 216.208 312.374C216.526 312.45 216.821 312.582 217.093 312.771C217.365 312.957 217.585 313.217 217.754 313.552C217.923 313.883 218.008 314.304 218.008 314.815V320H217.123V318.792H217.068C216.962 319.017 216.805 319.236 216.596 319.448C216.387 319.66 216.125 319.834 215.81 319.97C215.495 320.106 215.126 320.174 214.702 320.174ZM214.821 319.364C215.291 319.364 215.699 319.259 216.044 319.05C216.389 318.842 216.654 318.565 216.839 318.22C217.028 317.872 217.123 317.489 217.123 317.072V315.968C217.056 316.031 216.945 316.087 216.79 316.137C216.637 316.187 216.46 316.232 216.258 316.271C216.059 316.308 215.86 316.339 215.661 316.366C215.462 316.392 215.283 316.415 215.124 316.435C214.693 316.488 214.325 316.571 214.02 316.684C213.715 316.797 213.482 316.952 213.319 317.151C213.157 317.347 213.076 317.599 213.076 317.907C213.076 318.371 213.242 318.731 213.573 318.986C213.904 319.238 214.32 319.364 214.821 319.364Z" fill="#303030" fill-opacity="0.5"/>
<path d="M268.44 320.139C267.813 320.139 267.253 320.027 266.759 319.801C266.265 319.572 265.874 319.256 265.586 318.852C265.298 318.447 265.145 317.982 265.129 317.455H266.068C266.085 317.826 266.199 318.151 266.411 318.429C266.623 318.704 266.905 318.92 267.256 319.075C267.608 319.228 267.999 319.304 268.43 319.304C268.9 319.304 269.315 319.216 269.673 319.04C270.034 318.865 270.316 318.625 270.518 318.32C270.723 318.011 270.826 317.663 270.826 317.276C270.826 316.865 270.722 316.502 270.513 316.187C270.304 315.872 270.004 315.627 269.613 315.451C269.225 315.275 268.761 315.188 268.221 315.188H267.624V314.352H268.221C268.662 314.352 269.051 314.273 269.389 314.114C269.731 313.951 269.999 313.724 270.195 313.433C270.39 313.141 270.488 312.798 270.488 312.403C270.488 312.029 270.403 311.699 270.234 311.414C270.065 311.129 269.827 310.905 269.518 310.743C269.214 310.58 268.857 310.499 268.45 310.499C268.055 310.499 267.694 310.576 267.366 310.728C267.038 310.88 266.772 311.096 266.57 311.374C266.371 311.653 266.265 311.982 266.252 312.364H265.352C265.366 311.833 265.511 311.368 265.79 310.967C266.071 310.562 266.444 310.247 266.908 310.022C267.376 309.793 267.893 309.679 268.46 309.679C269.059 309.679 269.578 309.802 270.016 310.047C270.453 310.292 270.791 310.619 271.03 311.026C271.272 311.431 271.393 311.876 271.393 312.364C271.393 312.944 271.235 313.441 270.92 313.855C270.606 314.266 270.181 314.551 269.648 314.71V314.775C270.297 314.904 270.808 315.192 271.179 315.64C271.554 316.084 271.741 316.629 271.741 317.276C271.741 317.819 271.598 318.308 271.313 318.742C271.028 319.173 270.637 319.514 270.14 319.766C269.646 320.015 269.079 320.139 268.44 320.139ZM276.916 320.139C276.349 320.139 275.842 320.025 275.395 319.796C274.951 319.564 274.596 319.246 274.331 318.842C274.069 318.437 273.93 317.975 273.913 317.455H274.813C274.843 317.995 275.055 318.439 275.45 318.787C275.844 319.132 276.333 319.304 276.916 319.304C277.37 319.304 277.775 319.196 278.129 318.981C278.484 318.762 278.761 318.464 278.96 318.086C279.162 317.705 279.263 317.276 279.263 316.798C279.259 316.301 279.152 315.864 278.94 315.486C278.728 315.105 278.439 314.806 278.075 314.591C277.713 314.375 277.307 314.268 276.857 314.268C276.515 314.264 276.18 314.321 275.852 314.437C275.524 314.553 275.251 314.702 275.032 314.884L274.102 314.765L274.714 309.818H279.745V310.653H275.494L275.087 314.059H275.136C275.362 313.87 275.635 313.716 275.957 313.597C276.281 313.477 276.625 313.418 276.986 313.418C277.586 313.418 278.124 313.562 278.602 313.85C279.082 314.138 279.462 314.536 279.74 315.043C280.022 315.547 280.163 316.127 280.163 316.783C280.163 317.426 280.022 318.001 279.74 318.509C279.462 319.012 279.077 319.41 278.587 319.702C278.099 319.993 277.543 320.139 276.916 320.139ZM290.372 314.491V315.327H286.136V314.491H290.372ZM296.253 317.812V317.057L300.792 309.818H301.349V311.086H300.936L297.292 316.913V316.977H303.243V317.812H296.253ZM301.006 320V317.574V317.226V309.818H301.891V320H301.006ZM305.017 317.812V317.057L309.556 309.818H310.113V311.086H309.7L306.056 316.913V316.977H312.007V317.812H305.017ZM309.77 320V317.574V317.226V309.818H310.655V320H309.77ZM322.536 312.364V313.199H318.881V320H317.996V312.364H322.536ZM326.966 320.159C326.307 320.159 325.724 319.992 325.216 319.657C324.713 319.322 324.318 318.86 324.033 318.27C323.748 317.677 323.606 316.992 323.606 316.217C323.606 315.434 323.748 314.747 324.033 314.153C324.318 313.557 324.713 313.093 325.216 312.761C325.724 312.427 326.307 312.259 326.966 312.259C327.626 312.259 328.208 312.427 328.711 312.761C329.215 313.096 329.61 313.56 329.895 314.153C330.183 314.747 330.327 315.434 330.327 316.217C330.327 316.992 330.185 317.677 329.9 318.27C329.615 318.86 329.219 319.322 328.711 319.657C328.208 319.992 327.626 320.159 326.966 320.159ZM326.966 319.349C327.497 319.349 327.946 319.206 328.314 318.921C328.682 318.636 328.96 318.257 329.149 317.783C329.341 317.309 329.437 316.787 329.437 316.217C329.437 315.647 329.341 315.123 329.149 314.646C328.96 314.168 328.682 313.786 328.314 313.497C327.946 313.209 327.497 313.065 326.966 313.065C326.439 313.065 325.99 313.209 325.619 313.497C325.251 313.786 324.971 314.168 324.779 314.646C324.59 315.123 324.496 315.647 324.496 316.217C324.496 316.787 324.59 317.309 324.779 317.783C324.971 318.257 325.251 318.636 325.619 318.921C325.987 319.206 326.436 319.349 326.966 319.349ZM331.365 322.173V319.165H332.026C332.192 318.979 332.336 318.779 332.459 318.563C332.581 318.348 332.688 318.103 332.777 317.827C332.87 317.549 332.948 317.226 333.011 316.858C333.074 316.487 333.127 316.054 333.17 315.56L333.448 312.364H337.967V319.165H339.101V322.173H338.216V320H332.255V322.173H331.365ZM333.045 319.165H337.082V313.199H334.273L334.045 315.56C333.965 316.362 333.853 317.062 333.707 317.658C333.561 318.255 333.34 318.757 333.045 319.165ZM342.92 320.174C342.46 320.174 342.039 320.085 341.657 319.906C341.276 319.723 340.973 319.461 340.748 319.12C340.522 318.775 340.41 318.358 340.41 317.867C340.41 317.489 340.481 317.171 340.623 316.913C340.766 316.654 340.968 316.442 341.23 316.276C341.492 316.111 341.802 315.98 342.16 315.884C342.518 315.787 342.912 315.713 343.343 315.66C343.77 315.607 344.132 315.56 344.427 315.521C344.725 315.481 344.952 315.418 345.108 315.332C345.264 315.246 345.341 315.106 345.341 314.914V314.735C345.341 314.215 345.186 313.805 344.874 313.507C344.566 313.205 344.122 313.055 343.542 313.055C342.992 313.055 342.542 313.176 342.194 313.418C341.85 313.66 341.608 313.945 341.469 314.273L340.628 313.969C340.801 313.552 341.039 313.219 341.344 312.97C341.649 312.718 341.991 312.538 342.368 312.428C342.746 312.316 343.129 312.259 343.517 312.259C343.809 312.259 344.112 312.297 344.427 312.374C344.745 312.45 345.04 312.582 345.312 312.771C345.583 312.957 345.804 313.217 345.973 313.552C346.142 313.883 346.226 314.304 346.226 314.815V320H345.341V318.792H345.287C345.181 319.017 345.023 319.236 344.814 319.448C344.606 319.66 344.344 319.834 344.029 319.97C343.714 320.106 343.345 320.174 342.92 320.174ZM343.04 319.364C343.51 319.364 343.918 319.259 344.263 319.05C344.607 318.842 344.872 318.565 345.058 318.22C345.247 317.872 345.341 317.489 345.341 317.072V315.968C345.275 316.031 345.164 316.087 345.008 316.137C344.856 316.187 344.679 316.232 344.476 316.271C344.278 316.308 344.079 316.339 343.88 316.366C343.681 316.392 343.502 316.415 343.343 316.435C342.912 316.488 342.544 316.571 342.239 316.684C341.934 316.797 341.701 316.952 341.538 317.151C341.376 317.347 341.295 317.599 341.295 317.907C341.295 318.371 341.46 318.731 341.792 318.986C342.123 319.238 342.539 319.364 343.04 319.364Z" fill="#303030" fill-opacity="0.5"/>
<path d="M393.89 317.812V317.057L398.429 309.818H398.986V311.086H398.573L394.929 316.913V316.977H400.88V317.812H393.89ZM398.643 320V317.574V317.226V309.818H399.528V320H398.643ZM405.875 320.139C405.308 320.139 404.801 320.025 404.354 319.796C403.91 319.564 403.555 319.246 403.29 318.842C403.028 318.437 402.889 317.975 402.872 317.455H403.772C403.802 317.995 404.014 318.439 404.409 318.787C404.803 319.132 405.292 319.304 405.875 319.304C406.329 319.304 406.734 319.196 407.088 318.981C407.443 318.762 407.72 318.464 407.919 318.086C408.121 317.705 408.222 317.276 408.222 316.798C408.218 316.301 408.111 315.864 407.899 315.486C407.686 315.105 407.398 314.806 407.034 314.591C406.672 314.375 406.266 314.268 405.816 314.268C405.474 314.264 405.139 314.321 404.811 314.437C404.483 314.553 404.21 314.702 403.991 314.884L403.061 314.765L403.673 309.818H408.704V310.653H404.453L404.046 314.059H404.095C404.321 313.87 404.594 313.716 404.916 313.597C405.24 313.477 405.584 313.418 405.945 313.418C406.545 313.418 407.083 313.562 407.561 313.85C408.041 314.138 408.421 314.536 408.699 315.043C408.981 315.547 409.122 316.127 409.122 316.783C409.122 317.426 408.981 318.001 408.699 318.509C408.421 319.012 408.036 319.41 407.546 319.702C407.058 319.993 406.502 320.139 405.875 320.139ZM419.331 314.491V315.327H415.095V314.491H419.331ZM428.434 320.139C427.867 320.139 427.36 320.025 426.912 319.796C426.468 319.564 426.114 319.246 425.849 318.842C425.587 318.437 425.448 317.975 425.431 317.455H426.331C426.361 317.995 426.573 318.439 426.967 318.787C427.362 319.132 427.85 319.304 428.434 319.304C428.888 319.304 429.292 319.196 429.647 318.981C430.001 318.762 430.278 318.464 430.477 318.086C430.679 317.705 430.78 317.276 430.78 316.798C430.777 316.301 430.669 315.864 430.457 315.486C430.245 315.105 429.957 314.806 429.592 314.591C429.231 314.375 428.825 314.268 428.374 314.268C428.033 314.264 427.698 314.321 427.37 314.437C427.042 314.553 426.768 314.702 426.55 314.884L425.62 314.765L426.231 309.818H431.263V310.653H427.012L426.604 314.059H426.654C426.879 313.87 427.153 313.716 427.474 313.597C427.799 313.477 428.142 313.418 428.503 313.418C429.103 313.418 429.642 313.562 430.119 313.85C430.6 314.138 430.979 314.536 431.258 315.043C431.539 315.547 431.68 316.127 431.68 316.783C431.68 317.426 431.539 318.001 431.258 318.509C430.979 319.012 430.595 319.41 430.104 319.702C429.617 319.993 429.06 320.139 428.434 320.139ZM433.552 317.812V317.057L438.091 309.818H438.648V311.086H438.235L434.591 316.913V316.977H440.542V317.812H433.552ZM438.305 320V317.574V317.226V309.818H439.19V320H438.305ZM451.071 312.364V313.199H447.417V320H446.532V312.364H451.071ZM455.502 320.159C454.842 320.159 454.259 319.992 453.752 319.657C453.248 319.322 452.853 318.86 452.568 318.27C452.283 317.677 452.141 316.992 452.141 316.217C452.141 315.434 452.283 314.747 452.568 314.153C452.853 313.557 453.248 313.093 453.752 312.761C454.259 312.427 454.842 312.259 455.502 312.259C456.161 312.259 456.743 312.427 457.247 312.761C457.75 313.096 458.145 313.56 458.43 314.153C458.718 314.747 458.862 315.434 458.862 316.217C458.862 316.992 458.72 317.677 458.435 318.27C458.15 318.86 457.754 319.322 457.247 319.657C456.743 319.992 456.161 320.159 455.502 320.159ZM455.502 319.349C456.032 319.349 456.481 319.206 456.849 318.921C457.217 318.636 457.495 318.257 457.684 317.783C457.876 317.309 457.972 316.787 457.972 316.217C457.972 315.647 457.876 315.123 457.684 314.646C457.495 314.168 457.217 313.786 456.849 313.497C456.481 313.209 456.032 313.065 455.502 313.065C454.975 313.065 454.526 313.209 454.154 313.497C453.786 313.786 453.506 314.168 453.314 314.646C453.125 315.123 453.031 315.647 453.031 316.217C453.031 316.787 453.125 317.309 453.314 317.783C453.506 318.257 453.786 318.636 454.154 318.921C454.522 319.206 454.971 319.349 455.502 319.349ZM459.9 322.173V319.165H460.561C460.727 318.979 460.871 318.779 460.994 318.563C461.117 318.348 461.223 318.103 461.312 317.827C461.405 317.549 461.483 317.226 461.546 316.858C461.609 316.487 461.662 316.054 461.705 315.56L461.983 312.364H466.502V319.165H467.636V322.173H466.751V320H460.79V322.173H459.9ZM461.581 319.165H465.618V313.199H462.809L462.58 315.56C462.5 316.362 462.388 317.062 462.242 317.658C462.096 318.255 461.876 318.757 461.581 319.165ZM471.455 320.174C470.995 320.174 470.574 320.085 470.193 319.906C469.811 319.723 469.508 319.461 469.283 319.12C469.057 318.775 468.945 318.358 468.945 317.867C468.945 317.489 469.016 317.171 469.159 316.913C469.301 316.654 469.503 316.442 469.765 316.276C470.027 316.111 470.337 315.98 470.695 315.884C471.053 315.787 471.447 315.713 471.878 315.66C472.306 315.607 472.667 315.56 472.962 315.521C473.26 315.481 473.487 315.418 473.643 315.332C473.799 315.246 473.877 315.106 473.877 314.914V314.735C473.877 314.215 473.721 313.805 473.409 313.507C473.101 313.205 472.657 313.055 472.077 313.055C471.527 313.055 471.078 313.176 470.73 313.418C470.385 313.66 470.143 313.945 470.004 314.273L469.164 313.969C469.336 313.552 469.575 313.219 469.879 312.97C470.184 312.718 470.526 312.538 470.904 312.428C471.281 312.316 471.664 312.259 472.052 312.259C472.344 312.259 472.647 312.297 472.962 312.374C473.28 312.45 473.575 312.582 473.847 312.771C474.119 312.957 474.339 313.217 474.508 313.552C474.677 313.883 474.762 314.304 474.762 314.815V320H473.877V318.792H473.822C473.716 319.017 473.558 319.236 473.35 319.448C473.141 319.66 472.879 319.834 472.564 319.97C472.249 320.106 471.88 320.174 471.455 320.174ZM471.575 319.364C472.045 319.364 472.453 319.259 472.798 319.05C473.142 318.842 473.408 318.565 473.593 318.22C473.782 317.872 473.877 317.489 473.877 317.072V315.968C473.81 316.031 473.699 316.087 473.544 316.137C473.391 316.187 473.214 316.232 473.012 316.271C472.813 316.308 472.614 316.339 472.415 316.366C472.216 316.392 472.037 316.415 471.878 316.435C471.447 316.488 471.079 316.571 470.774 316.684C470.469 316.797 470.236 316.952 470.073 317.151C469.911 317.347 469.83 317.599 469.83 317.907C469.83 318.371 469.995 318.731 470.327 318.986C470.658 319.238 471.074 319.364 471.575 319.364Z" fill="#303030" fill-opacity="0.5"/>
<rect x="512" width="100" height="296" rx="10" fill="#3D3BFF"/>
<path d="M532.869 28V25.4432L537.753 21.4034C538.077 21.1349 538.354 20.8835 538.584 20.6491C538.818 20.4105 538.997 20.1655 539.121 19.9141C539.249 19.6626 539.312 19.3835 539.312 19.0767C539.312 18.7401 539.24 18.4524 539.095 18.2138C538.955 17.9751 538.759 17.7919 538.507 17.6641C538.256 17.532 537.966 17.4659 537.638 17.4659C537.31 17.4659 537.02 17.532 536.768 17.6641C536.521 17.7962 536.33 17.9901 536.193 18.2457C536.057 18.5014 535.989 18.8125 535.989 19.179H532.614C532.614 18.2585 532.82 17.4659 533.234 16.8011C533.647 16.1364 534.231 15.625 534.985 15.267C535.739 14.9091 536.624 14.7301 537.638 14.7301C538.686 14.7301 539.594 14.8984 540.361 15.2351C541.132 15.5675 541.727 16.0362 542.144 16.6413C542.566 17.2464 542.777 17.956 542.777 18.7699C542.777 19.2727 542.673 19.7734 542.464 20.272C542.255 20.7663 541.88 21.3139 541.339 21.9148C540.798 22.5156 540.028 23.2315 539.031 24.0625L537.804 25.0852V25.1619H542.918V28H532.869ZM549.62 14.7301C550.382 14.7301 551.105 14.8516 551.787 15.0945C552.468 15.3331 553.071 15.7102 553.596 16.2259C554.124 16.7415 554.537 17.4148 554.836 18.2457C555.138 19.0724 555.292 20.0739 555.296 21.25C555.3 22.3239 555.166 23.2891 554.893 24.1456C554.625 24.9979 554.239 25.7244 553.736 26.3253C553.238 26.9261 552.637 27.3864 551.934 27.706C551.235 28.0213 550.455 28.179 549.594 28.179C548.627 28.179 547.777 27.9936 547.044 27.6229C546.311 27.2521 545.727 26.7536 545.292 26.1271C544.858 25.5007 544.604 24.804 544.532 24.0369H548.034C548.12 24.4332 548.307 24.7209 548.597 24.8999C548.887 25.0746 549.219 25.1619 549.594 25.1619C550.344 25.1619 550.892 24.8381 551.237 24.1903C551.586 23.5384 551.763 22.669 551.767 21.5824H551.691C551.525 21.983 551.273 22.326 550.936 22.6115C550.6 22.897 550.208 23.1165 549.76 23.2699C549.313 23.4233 548.84 23.5 548.341 23.5C547.553 23.5 546.863 23.3232 546.27 22.9695C545.678 22.6115 545.216 22.1236 544.883 21.5057C544.551 20.8835 544.382 20.1761 544.378 19.3835C544.374 18.4545 544.593 17.6406 545.037 16.9418C545.48 16.2429 546.096 15.6996 546.884 15.3118C547.672 14.924 548.584 14.7301 549.62 14.7301ZM549.645 17.4148C549.292 17.4148 548.976 17.4957 548.699 17.6577C548.426 17.8196 548.211 18.0391 548.054 18.3161C547.9 18.593 547.826 18.9062 547.83 19.2557C547.834 19.6051 547.913 19.9183 548.066 20.1953C548.224 20.4723 548.437 20.6918 548.706 20.8537C548.978 21.0156 549.292 21.0966 549.645 21.0966C549.905 21.0966 550.146 21.0518 550.368 20.9624C550.589 20.8686 550.781 20.7386 550.943 20.5724C551.109 20.402 551.237 20.206 551.326 19.9844C551.42 19.7585 551.465 19.5156 551.461 19.2557C551.456 18.9062 551.375 18.593 551.218 18.3161C551.06 18.0391 550.845 17.8196 550.572 17.6577C550.299 17.4957 549.99 17.4148 549.645 17.4148ZM559.7 26.2102L559.649 26.9261C559.606 27.5398 559.504 28.1278 559.342 28.6903C559.184 29.2528 559.016 29.7514 558.837 30.1861C558.662 30.6207 558.524 30.9574 558.422 31.196H556.248C556.316 30.9574 556.412 30.6122 556.536 30.1605C556.664 29.7131 556.779 29.206 556.881 28.6392C556.988 28.0767 557.041 27.5057 557.041 26.9261V26.2102H559.7ZM561.979 28V25.4432L566.862 21.4034C567.186 21.1349 567.463 20.8835 567.693 20.6491C567.928 20.4105 568.107 20.1655 568.23 19.9141C568.358 19.6626 568.422 19.3835 568.422 19.0767C568.422 18.7401 568.349 18.4524 568.205 18.2138C568.064 17.9751 567.868 17.7919 567.616 17.6641C567.365 17.532 567.075 17.4659 566.747 17.4659C566.419 17.4659 566.129 17.532 565.878 17.6641C565.631 17.7962 565.439 17.9901 565.303 18.2457C565.166 18.5014 565.098 18.8125 565.098 19.179H561.723C561.723 18.2585 561.93 17.4659 562.343 16.8011C562.756 16.1364 563.34 15.625 564.094 15.267C564.849 14.9091 565.733 14.7301 566.747 14.7301C567.795 14.7301 568.703 14.8984 569.47 15.2351C570.241 15.5675 570.836 16.0362 571.254 16.6413C571.675 17.2464 571.886 17.956 571.886 18.7699C571.886 19.2727 571.782 19.7734 571.573 20.272C571.364 20.7663 570.989 21.3139 570.448 21.9148C569.907 22.5156 569.138 23.2315 568.141 24.0625L566.913 25.0852V25.1619H572.027V28H561.979ZM583.568 25.5455V24.8551C583.568 24.3011 583.687 23.7898 583.926 23.321C584.169 22.8523 584.52 22.4751 584.98 22.1896C585.441 21.9041 586.001 21.7614 586.662 21.7614C587.339 21.7614 587.908 21.902 588.368 22.1832C588.833 22.4645 589.184 22.8395 589.423 23.3082C589.662 23.777 589.781 24.2926 589.781 24.8551V25.5455C589.781 26.0994 589.659 26.6108 589.417 27.0795C589.178 27.5483 588.826 27.9254 588.362 28.2109C587.897 28.4964 587.331 28.6392 586.662 28.6392C585.993 28.6392 585.428 28.4964 584.968 28.2109C584.507 27.9254 584.158 27.5483 583.919 27.0795C583.685 26.6108 583.568 26.0994 583.568 25.5455ZM585.792 24.8551V25.5455C585.792 25.7884 585.852 26.0291 585.971 26.2678C586.095 26.5021 586.325 26.6193 586.662 26.6193C587.015 26.6193 587.248 26.5043 587.358 26.2741C587.473 26.044 587.531 25.8011 587.531 25.5455V24.8551C587.531 24.5994 587.478 24.3523 587.371 24.1136C587.265 23.875 587.028 23.7557 586.662 23.7557C586.325 23.7557 586.095 23.875 585.971 24.1136C585.852 24.3523 585.792 24.5994 585.792 24.8551ZM576.716 18.054V17.3636C576.716 16.8011 576.837 16.2855 577.08 15.8168C577.327 15.348 577.681 14.973 578.141 14.6918C578.601 14.4105 579.157 14.2699 579.809 14.2699C580.487 14.2699 581.056 14.4105 581.516 14.6918C581.98 14.973 582.332 15.348 582.571 15.8168C582.809 16.2855 582.929 16.8011 582.929 17.3636V18.054C582.929 18.6165 582.807 19.13 582.564 19.5945C582.326 20.0589 581.974 20.4297 581.51 20.7067C581.045 20.9837 580.478 21.1222 579.809 21.1222C579.14 21.1222 578.576 20.9815 578.115 20.7003C577.655 20.419 577.306 20.0462 577.067 19.5817C576.833 19.1172 576.716 18.608 576.716 18.054ZM578.966 17.3636V18.054C578.966 18.3097 579.025 18.5526 579.145 18.7827C579.264 19.0128 579.485 19.1278 579.809 19.1278C580.163 19.1278 580.395 19.0128 580.506 18.7827C580.621 18.5526 580.679 18.3097 580.679 18.054V17.3636C580.679 17.108 580.625 16.8608 580.519 16.6222C580.412 16.3835 580.176 16.2642 579.809 16.2642C579.473 16.2642 579.247 16.3878 579.132 16.6349C579.021 16.8778 578.966 17.1207 578.966 17.3636ZM577.802 28L586.802 14.9091H588.618L579.618 28H577.802Z" fill="white"/>
<rect y="226" width="100" height="70" rx="10" fill="#B0B0F8"/>
<path d="M19.7415 251.955V249.193L25.0085 240.909H27.5142V244.591H26.0824L23.2443 249.091V249.193H31.017V251.955H19.7415ZM26.108 254V251.111L26.1847 249.909V240.909H29.5085V254H26.108ZM35.9597 252.21L35.9086 252.926C35.8659 253.54 35.7637 254.128 35.6017 254.69C35.4441 255.253 35.2757 255.751 35.0968 256.186C34.9221 256.621 34.7836 256.957 34.6813 257.196H32.508C32.5762 256.957 32.6721 256.612 32.7956 256.161C32.9235 255.713 33.0385 255.206 33.1408 254.639C33.2473 254.077 33.3006 253.506 33.3006 252.926V252.21H35.9597ZM42.967 254.179C41.9102 254.179 40.9663 254.015 40.1353 253.687C39.3086 253.359 38.6566 252.913 38.1793 252.351C37.7063 251.788 37.4698 251.153 37.4698 250.446C37.4698 249.905 37.604 249.411 37.8725 248.963C38.1452 248.516 38.5117 248.145 38.9719 247.851C39.4322 247.553 39.9457 247.361 40.5124 247.276V247.173C39.7667 247.045 39.1531 246.715 38.6715 246.183C38.1942 245.646 37.9556 245.013 37.9556 244.284C37.9556 243.598 38.1729 242.989 38.6076 242.456C39.0423 241.919 39.6367 241.497 40.391 241.19C41.1452 240.884 42.0039 240.73 42.967 240.73C43.93 240.73 44.7887 240.886 45.543 241.197C46.2972 241.504 46.8917 241.925 47.3264 242.462C47.761 242.995 47.9783 243.602 47.9783 244.284C47.9783 245.017 47.7354 245.65 47.2496 246.183C46.7638 246.715 46.1545 247.045 45.4215 247.173V247.276C45.984 247.361 46.4954 247.553 46.9556 247.851C47.4158 248.145 47.7823 248.516 48.055 248.963C48.3278 249.411 48.4641 249.905 48.4641 250.446C48.4641 251.153 48.2255 251.788 47.7482 252.351C47.2752 252.913 46.6232 253.359 45.7923 253.687C44.9656 254.015 44.0238 254.179 42.967 254.179ZM42.967 251.724C43.3036 251.724 43.6019 251.656 43.8619 251.52C44.1218 251.384 44.3263 251.196 44.4755 250.957C44.6289 250.714 44.7056 250.442 44.7056 250.139C44.7056 249.837 44.6289 249.568 44.4755 249.334C44.3263 249.099 44.1218 248.916 43.8619 248.784C43.6019 248.648 43.3036 248.58 42.967 248.58C42.6346 248.58 42.3363 248.648 42.0721 248.784C41.8121 248.916 41.6055 249.099 41.4521 249.334C41.3029 249.568 41.2283 249.837 41.2283 250.139C41.2283 250.442 41.3029 250.712 41.4521 250.951C41.6055 251.19 41.8121 251.379 42.0721 251.52C42.3363 251.656 42.6346 251.724 42.967 251.724ZM42.967 246.125C43.2653 246.125 43.5295 246.063 43.7596 245.94C43.9897 245.816 44.1708 245.646 44.3029 245.428C44.435 245.211 44.5011 244.966 44.5011 244.693C44.5011 244.42 44.435 244.18 44.3029 243.971C44.1708 243.758 43.9897 243.592 43.7596 243.472C43.5295 243.349 43.2653 243.287 42.967 243.287C42.6729 243.287 42.4087 243.349 42.1744 243.472C41.9442 243.592 41.7631 243.758 41.631 243.971C41.4989 244.18 41.4329 244.42 41.4329 244.693C41.4329 244.966 41.4989 245.211 41.631 245.428C41.7631 245.641 41.9442 245.812 42.1744 245.94C42.4087 246.063 42.6729 246.125 42.967 246.125ZM49.9231 251.955V249.193L55.1902 240.909H57.6958V244.591H56.264L53.426 249.091V249.193H61.1987V251.955H49.9231ZM56.2896 254V251.111L56.3663 249.909V240.909H59.6902V254H56.2896ZM72.642 251.545V250.855C72.642 250.301 72.7614 249.79 73 249.321C73.2429 248.852 73.5945 248.475 74.0547 248.19C74.5149 247.904 75.0753 247.761 75.7358 247.761C76.4134 247.761 76.9822 247.902 77.4425 248.183C77.907 248.464 78.2585 248.839 78.4972 249.308C78.7358 249.777 78.8551 250.293 78.8551 250.855V251.545C78.8551 252.099 78.7337 252.611 78.4908 253.08C78.2521 253.548 77.9006 253.925 77.4361 254.211C76.9716 254.496 76.4048 254.639 75.7358 254.639C75.0668 254.639 74.5021 254.496 74.0419 254.211C73.5817 253.925 73.2322 253.548 72.9936 253.08C72.7592 252.611 72.642 252.099 72.642 251.545ZM74.8665 250.855V251.545C74.8665 251.788 74.9261 252.029 75.0455 252.268C75.169 252.502 75.3991 252.619 75.7358 252.619C76.0895 252.619 76.3217 252.504 76.4325 252.274C76.5476 252.044 76.6051 251.801 76.6051 251.545V250.855C76.6051 250.599 76.5518 250.352 76.4453 250.114C76.3388 249.875 76.1023 249.756 75.7358 249.756C75.3991 249.756 75.169 249.875 75.0455 250.114C74.9261 250.352 74.8665 250.599 74.8665 250.855ZM65.7898 244.054V243.364C65.7898 242.801 65.9112 242.286 66.1541 241.817C66.4013 241.348 66.755 240.973 67.2152 240.692C67.6754 240.411 68.2315 240.27 68.8835 240.27C69.5611 240.27 70.13 240.411 70.5902 240.692C71.0547 240.973 71.4063 241.348 71.6449 241.817C71.8835 242.286 72.0028 242.801 72.0028 243.364V244.054C72.0028 244.616 71.8814 245.13 71.6385 245.594C71.3999 246.059 71.0483 246.43 70.5838 246.707C70.1193 246.984 69.5526 247.122 68.8835 247.122C68.2145 247.122 67.6499 246.982 67.1896 246.7C66.7294 246.419 66.38 246.046 66.1413 245.582C65.907 245.117 65.7898 244.608 65.7898 244.054ZM68.0398 243.364V244.054C68.0398 244.31 68.0994 244.553 68.2188 244.783C68.3381 245.013 68.5597 245.128 68.8835 245.128C69.2372 245.128 69.4695 245.013 69.5803 244.783C69.6953 244.553 69.7528 244.31 69.7528 244.054V243.364C69.7528 243.108 69.6996 242.861 69.593 242.622C69.4865 242.384 69.25 242.264 68.8835 242.264C68.5469 242.264 68.321 242.388 68.206 242.635C68.0952 242.878 68.0398 243.121 68.0398 243.364ZM66.8764 254L75.8764 240.909H77.6918L68.6918 254H66.8764Z" fill="white"/>
<rect x="128" y="149" width="100" height="147" rx="10" fill="#7B79FF"/>
<path d="M158.287 163.909V177H154.733V167.182H154.656L151.793 168.895V165.878L155.014 163.909H158.287ZM161.563 177L166.702 166.824V166.747H160.668V163.909H170.384V166.747L165.219 177H161.563ZM173.163 175.21L173.112 175.926C173.069 176.54 172.967 177.128 172.805 177.69C172.647 178.253 172.479 178.751 172.3 179.186C172.125 179.621 171.987 179.957 171.884 180.196H169.711C169.779 179.957 169.875 179.612 169.999 179.161C170.127 178.713 170.242 178.206 170.344 177.639C170.45 177.077 170.504 176.506 170.504 175.926V175.21H173.163ZM180.333 177.179C179.57 177.179 178.846 177.06 178.16 176.821C177.478 176.578 176.873 176.197 176.344 175.677C175.816 175.157 175.401 174.479 175.098 173.644C174.8 172.809 174.653 171.797 174.657 170.608C174.661 169.547 174.798 168.592 175.066 167.744C175.339 166.896 175.724 166.174 176.223 165.577C176.726 164.981 177.327 164.525 178.026 164.21C178.724 163.89 179.502 163.73 180.359 163.73C181.322 163.73 182.17 163.915 182.903 164.286C183.636 164.657 184.219 165.153 184.654 165.776C185.093 166.393 185.349 167.075 185.421 167.821H181.918C181.837 167.45 181.65 167.18 181.356 167.009C181.066 166.835 180.734 166.747 180.359 166.747C179.613 166.747 179.065 167.071 178.716 167.719C178.371 168.366 178.194 169.219 178.185 170.276H178.262C178.428 169.875 178.68 169.532 179.016 169.246C179.353 168.961 179.745 168.741 180.192 168.588C180.64 168.435 181.113 168.358 181.612 168.358C182.404 168.358 183.097 168.537 183.689 168.895C184.286 169.253 184.75 169.743 185.082 170.365C185.415 170.987 185.579 171.699 185.575 172.5C185.579 173.438 185.357 174.258 184.91 174.961C184.467 175.664 183.851 176.21 183.062 176.597C182.274 176.985 181.364 177.179 180.333 177.179ZM180.308 174.494C180.661 174.494 180.974 174.413 181.247 174.251C181.524 174.089 181.739 173.868 181.893 173.587C182.05 173.305 182.127 172.986 182.123 172.628C182.127 172.266 182.05 171.946 181.893 171.669C181.739 171.388 181.524 171.166 181.247 171.004C180.974 170.842 180.661 170.761 180.308 170.761C180.048 170.761 179.807 170.808 179.585 170.902C179.368 170.991 179.178 171.121 179.016 171.292C178.854 171.458 178.727 171.656 178.633 171.886C178.543 172.112 178.496 172.359 178.492 172.628C178.496 172.986 178.577 173.305 178.735 173.587C178.893 173.868 179.108 174.089 179.381 174.251C179.653 174.413 179.962 174.494 180.308 174.494ZM197.136 174.545V173.855C197.136 173.301 197.256 172.79 197.494 172.321C197.737 171.852 198.089 171.475 198.549 171.19C199.009 170.904 199.569 170.761 200.23 170.761C200.907 170.761 201.476 170.902 201.937 171.183C202.401 171.464 202.753 171.839 202.991 172.308C203.23 172.777 203.349 173.293 203.349 173.855V174.545C203.349 175.099 203.228 175.611 202.985 176.08C202.746 176.548 202.395 176.925 201.93 177.211C201.466 177.496 200.899 177.639 200.23 177.639C199.561 177.639 198.996 177.496 198.536 177.211C198.076 176.925 197.726 176.548 197.488 176.08C197.253 175.611 197.136 175.099 197.136 174.545ZM199.361 173.855V174.545C199.361 174.788 199.42 175.029 199.54 175.268C199.663 175.502 199.893 175.619 200.23 175.619C200.584 175.619 200.816 175.504 200.927 175.274C201.042 175.044 201.099 174.801 201.099 174.545V173.855C201.099 173.599 201.046 173.352 200.939 173.114C200.833 172.875 200.596 172.756 200.23 172.756C199.893 172.756 199.663 172.875 199.54 173.114C199.42 173.352 199.361 173.599 199.361 173.855ZM190.284 167.054V166.364C190.284 165.801 190.405 165.286 190.648 164.817C190.895 164.348 191.249 163.973 191.709 163.692C192.17 163.411 192.726 163.27 193.378 163.27C194.055 163.27 194.624 163.411 195.084 163.692C195.549 163.973 195.9 164.348 196.139 164.817C196.378 165.286 196.497 165.801 196.497 166.364V167.054C196.497 167.616 196.376 168.13 196.133 168.594C195.894 169.059 195.542 169.43 195.078 169.707C194.613 169.984 194.047 170.122 193.378 170.122C192.709 170.122 192.144 169.982 191.684 169.7C191.224 169.419 190.874 169.046 190.635 168.582C190.401 168.117 190.284 167.608 190.284 167.054ZM192.534 166.364V167.054C192.534 167.31 192.594 167.553 192.713 167.783C192.832 168.013 193.054 168.128 193.378 168.128C193.731 168.128 193.964 168.013 194.074 167.783C194.189 167.553 194.247 167.31 194.247 167.054V166.364C194.247 166.108 194.194 165.861 194.087 165.622C193.981 165.384 193.744 165.264 193.378 165.264C193.041 165.264 192.815 165.388 192.7 165.635C192.589 165.878 192.534 166.121 192.534 166.364ZM191.371 177L200.371 163.909H202.186L193.186 177H191.371Z" fill="white"/>
<rect x="256" y="25" width="100" height="271" rx="10" fill="#3D3BFF"/>
<path d="M278.869 53V50.4432L283.753 46.4034C284.077 46.1349 284.354 45.8835 284.584 45.6491C284.818 45.4105 284.997 45.1655 285.121 44.9141C285.249 44.6626 285.312 44.3835 285.312 44.0767C285.312 43.7401 285.24 43.4524 285.095 43.2138C284.955 42.9751 284.759 42.7919 284.507 42.6641C284.256 42.532 283.966 42.4659 283.638 42.4659C283.31 42.4659 283.02 42.532 282.768 42.6641C282.521 42.7962 282.33 42.9901 282.193 43.2457C282.057 43.5014 281.989 43.8125 281.989 44.179H278.614C278.614 43.2585 278.82 42.4659 279.234 41.8011C279.647 41.1364 280.231 40.625 280.985 40.267C281.739 39.9091 282.624 39.7301 283.638 39.7301C284.686 39.7301 285.594 39.8984 286.361 40.2351C287.132 40.5675 287.727 41.0362 288.144 41.6413C288.566 42.2464 288.777 42.956 288.777 43.7699C288.777 44.2727 288.673 44.7734 288.464 45.272C288.255 45.7663 287.88 46.3139 287.339 46.9148C286.798 47.5156 286.028 48.2315 285.031 49.0625L283.804 50.0852V50.1619H288.918V53H278.869ZM295.748 53.179C294.742 53.179 293.849 53.0021 293.069 52.6484C292.294 52.2905 291.682 51.7983 291.235 51.1719C290.792 50.5455 290.566 49.8253 290.557 49.0114H294.009C294.022 49.4631 294.196 49.8232 294.533 50.0916C294.874 50.3601 295.279 50.4943 295.748 50.4943C296.11 50.4943 296.429 50.4176 296.706 50.2642C296.983 50.1065 297.201 49.8849 297.358 49.5994C297.516 49.3139 297.593 48.9815 297.588 48.6023C297.593 48.2188 297.516 47.8864 297.358 47.6051C297.201 47.3196 296.983 47.1001 296.706 46.9467C296.429 46.7891 296.11 46.7102 295.748 46.7102C295.373 46.7102 295.025 46.8018 294.706 46.9851C294.39 47.1641 294.158 47.4134 294.009 47.733L290.89 47.1193L291.401 39.9091H300.196V42.7472H294.316L294.06 45.6364H294.137C294.341 45.2401 294.695 44.9119 295.198 44.652C295.701 44.3878 296.284 44.2557 296.949 44.2557C297.729 44.2557 298.424 44.4368 299.033 44.799C299.647 45.1612 300.13 45.6619 300.484 46.3011C300.842 46.9361 301.019 47.669 301.015 48.5C301.019 49.4119 300.801 50.2216 300.363 50.929C299.928 51.6321 299.316 52.1839 298.528 52.5845C297.74 52.9808 296.813 53.179 295.748 53.179ZM305.63 51.2102L305.578 51.9261C305.536 52.5398 305.434 53.1278 305.272 53.6903C305.114 54.2528 304.946 54.7514 304.767 55.1861C304.592 55.6207 304.453 55.9574 304.351 56.196H302.178C302.246 55.9574 302.342 55.6122 302.466 55.1605C302.593 54.7131 302.708 54.206 302.811 53.6392C302.917 53.0767 302.971 52.5057 302.971 51.9261V51.2102H305.63ZM312.638 39.9091V53H309.085V43.1818H309.008L306.144 44.8949V41.8778L309.366 39.9091H312.638ZM325.279 50.5455V49.8551C325.279 49.3011 325.398 48.7898 325.637 48.321C325.88 47.8523 326.231 47.4751 326.691 47.1896C327.152 46.9041 327.712 46.7614 328.373 46.7614C329.05 46.7614 329.619 46.902 330.079 47.1832C330.544 47.4645 330.895 47.8395 331.134 48.3082C331.373 48.777 331.492 49.2926 331.492 49.8551V50.5455C331.492 51.0994 331.37 51.6108 331.127 52.0795C330.889 52.5483 330.537 52.9254 330.073 53.2109C329.608 53.4964 329.042 53.6392 328.373 53.6392C327.703 53.6392 327.139 53.4964 326.679 53.2109C326.218 52.9254 325.869 52.5483 325.63 52.0795C325.396 51.6108 325.279 51.0994 325.279 50.5455ZM327.503 49.8551V50.5455C327.503 50.7884 327.563 51.0291 327.682 51.2678C327.806 51.5021 328.036 51.6193 328.373 51.6193C328.726 51.6193 328.958 51.5043 329.069 51.2741C329.184 51.044 329.242 50.8011 329.242 50.5455V49.8551C329.242 49.5994 329.189 49.3523 329.082 49.1136C328.975 48.875 328.739 48.7557 328.373 48.7557C328.036 48.7557 327.806 48.875 327.682 49.1136C327.563 49.3523 327.503 49.5994 327.503 49.8551ZM318.426 43.054V42.3636C318.426 41.8011 318.548 41.2855 318.791 40.8168C319.038 40.348 319.392 39.973 319.852 39.6918C320.312 39.4105 320.868 39.2699 321.52 39.2699C322.198 39.2699 322.767 39.4105 323.227 39.6918C323.691 39.973 324.043 40.348 324.282 40.8168C324.52 41.2855 324.64 41.8011 324.64 42.3636V43.054C324.64 43.6165 324.518 44.13 324.275 44.5945C324.037 45.0589 323.685 45.4297 323.221 45.7067C322.756 45.9837 322.189 46.1222 321.52 46.1222C320.851 46.1222 320.287 45.9815 319.826 45.7003C319.366 45.419 319.017 45.0462 318.778 44.5817C318.544 44.1172 318.426 43.608 318.426 43.054ZM320.676 42.3636V43.054C320.676 43.3097 320.736 43.5526 320.855 43.7827C320.975 44.0128 321.196 44.1278 321.52 44.1278C321.874 44.1278 322.106 44.0128 322.217 43.7827C322.332 43.5526 322.39 43.3097 322.39 43.054V42.3636C322.39 42.108 322.336 41.8608 322.23 41.6222C322.123 41.3835 321.887 41.2642 321.52 41.2642C321.184 41.2642 320.958 41.3878 320.843 41.6349C320.732 41.8778 320.676 42.1207 320.676 42.3636ZM319.513 53L328.513 39.9091H330.328L321.328 53H319.513Z" fill="white"/>
<rect x="384" y="100" width="100" height="196" rx="10" fill="#3D3BFF"/>
<path d="M408.869 128V125.443L413.753 121.403C414.077 121.135 414.354 120.884 414.584 120.649C414.818 120.411 414.997 120.165 415.121 119.914C415.249 119.663 415.312 119.384 415.312 119.077C415.312 118.74 415.24 118.452 415.095 118.214C414.955 117.975 414.759 117.792 414.507 117.664C414.256 117.532 413.966 117.466 413.638 117.466C413.31 117.466 413.02 117.532 412.768 117.664C412.521 117.796 412.33 117.99 412.193 118.246C412.057 118.501 411.989 118.812 411.989 119.179H408.614C408.614 118.259 408.82 117.466 409.234 116.801C409.647 116.136 410.231 115.625 410.985 115.267C411.739 114.909 412.624 114.73 413.638 114.73C414.686 114.73 415.594 114.898 416.361 115.235C417.132 115.567 417.727 116.036 418.144 116.641C418.566 117.246 418.777 117.956 418.777 118.77C418.777 119.273 418.673 119.773 418.464 120.272C418.255 120.766 417.88 121.314 417.339 121.915C416.798 122.516 416.028 123.232 415.031 124.062L413.804 125.085V125.162H418.918V128H408.869ZM426.924 114.909V128H423.37V118.182H423.293L420.429 119.895V116.878L423.651 114.909H426.924ZM432.413 126.21L432.362 126.926C432.319 127.54 432.217 128.128 432.055 128.69C431.897 129.253 431.729 129.751 431.55 130.186C431.375 130.621 431.237 130.957 431.134 131.196H428.961C429.029 130.957 429.125 130.612 429.249 130.161C429.377 129.713 429.492 129.206 429.594 128.639C429.7 128.077 429.754 127.506 429.754 126.926V126.21H432.413ZM439.422 114.909V128H435.868V118.182H435.791L432.927 119.895V116.878L436.149 114.909H439.422ZM452.062 125.545V124.855C452.062 124.301 452.181 123.79 452.42 123.321C452.663 122.852 453.014 122.475 453.475 122.19C453.935 121.904 454.495 121.761 455.156 121.761C455.833 121.761 456.402 121.902 456.862 122.183C457.327 122.464 457.678 122.839 457.917 123.308C458.156 123.777 458.275 124.293 458.275 124.855V125.545C458.275 126.099 458.154 126.611 457.911 127.08C457.672 127.548 457.32 127.925 456.856 128.211C456.392 128.496 455.825 128.639 455.156 128.639C454.487 128.639 453.922 128.496 453.462 128.211C453.002 127.925 452.652 127.548 452.414 127.08C452.179 126.611 452.062 126.099 452.062 125.545ZM454.286 124.855V125.545C454.286 125.788 454.346 126.029 454.465 126.268C454.589 126.502 454.819 126.619 455.156 126.619C455.509 126.619 455.742 126.504 455.852 126.274C455.968 126.044 456.025 125.801 456.025 125.545V124.855C456.025 124.599 455.972 124.352 455.865 124.114C455.759 123.875 455.522 123.756 455.156 123.756C454.819 123.756 454.589 123.875 454.465 124.114C454.346 124.352 454.286 124.599 454.286 124.855ZM445.21 118.054V117.364C445.21 116.801 445.331 116.286 445.574 115.817C445.821 115.348 446.175 114.973 446.635 114.692C447.095 114.411 447.651 114.27 448.303 114.27C448.981 114.27 449.55 114.411 450.01 114.692C450.475 114.973 450.826 115.348 451.065 115.817C451.303 116.286 451.423 116.801 451.423 117.364V118.054C451.423 118.616 451.301 119.13 451.058 119.594C450.82 120.059 450.468 120.43 450.004 120.707C449.539 120.984 448.972 121.122 448.303 121.122C447.634 121.122 447.07 120.982 446.61 120.7C446.149 120.419 445.8 120.046 445.561 119.582C445.327 119.117 445.21 118.608 445.21 118.054ZM447.46 117.364V118.054C447.46 118.31 447.519 118.553 447.639 118.783C447.758 119.013 447.98 119.128 448.303 119.128C448.657 119.128 448.889 119.013 449 118.783C449.115 118.553 449.173 118.31 449.173 118.054V117.364C449.173 117.108 449.119 116.861 449.013 116.622C448.906 116.384 448.67 116.264 448.303 116.264C447.967 116.264 447.741 116.388 447.626 116.635C447.515 116.878 447.46 117.121 447.46 117.364ZM446.296 128L455.296 114.909H457.112L448.112 128H446.296Z" fill="white"/>
</svg>
