<svg width="1203" height="380" viewBox="0 0 1203 380" fill="none" xmlns="http://www.w3.org/2000/svg">
<rect x="69" y="136" width="20" height="184" rx="10" fill="#7B79FF"/>
<rect x="117" y="191" width="20" height="129" rx="10" fill="#7B79FF"/>
<rect x="165" y="229" width="20" height="91" rx="10" fill="#B0B0F8"/>
<rect x="213" y="250" width="20" height="70" rx="10" fill="#B0B0F8"/>
<rect x="261" y="256" width="20" height="64" rx="10" fill="#B0B0F8"/>
<rect x="309" y="235" width="20" height="85" rx="10" fill="#B0B0F8"/>
<rect x="549" y="90" width="20" height="230" rx="10" fill="#3D3BFF"/>
<rect x="789" y="65" width="20" height="254" rx="10" fill="#3D3BFF"/>
<rect x="357" y="204" width="20" height="116" rx="10" fill="#B0B0F8"/>
<rect x="597" y="96" width="20" height="224" rx="10" fill="#3D3BFF"/>
<rect x="837" y="50" width="20" height="269" rx="10" fill="#3D3BFF"/>
<rect x="1029" y="56" width="20" height="265" rx="10" fill="#3D3BFF"/>
<rect x="405" y="160" width="20" height="160" rx="10" fill="#7B79FF"/>
<rect x="645" y="72" width="20" height="248" rx="10" fill="#3D3BFF"/>
<rect x="885" y="69" width="20" height="250" rx="10" fill="#3D3BFF"/>
<rect x="1077" y="43" width="20" height="278" rx="10" fill="#3D3BFF"/>
<rect x="453" y="138" width="20" height="182" rx="10" fill="#7B79FF"/>
<rect x="693" y="74" width="20" height="246" rx="10" fill="#3D3BFF"/>
<rect x="933" y="90" width="20" height="229" rx="10" fill="#3D3BFF"/>
<rect x="1125" y="47" width="20" height="274" rx="10" fill="#3D3BFF"/>
<rect x="501" y="94" width="20" height="226" rx="10" fill="#7B79FF"/>
<rect x="741" y="77" width="20" height="243" rx="10" fill="#3D3BFF"/>
<rect x="981" y="78" width="20" height="241" rx="10" fill="#3D3BFF"/>
<rect x="1173" y="80" width="20" height="241" rx="10" fill="#3D3BFF"/>
<path d="M35.0987 309.074C38.1927 309.074 38.4167 311.916 38.4167 314.282C38.4167 316.62 37.9967 319.196 35.1547 319.196C32.1447 319.196 31.7947 316.62 31.7947 314.254C31.7947 311.888 32.0327 309.074 35.0987 309.074ZM35.0987 310.138C33.0127 310.138 33.0547 312.742 33.0547 314.254C33.0547 315.724 33.0967 318.146 35.1267 318.146C37.1567 318.146 37.1427 315.626 37.1427 314.198C37.1427 312.728 37.1847 310.138 35.0987 310.138Z" fill="#303030" fill-opacity="0.5"/>
<path d="M17.2182 273.139C16.6349 273.139 16.1096 273.023 15.6422 272.791C15.1749 272.559 14.8004 272.241 14.5186 271.837C14.2369 271.432 14.0828 270.972 14.0563 270.455H15.2495C15.2959 270.915 15.5047 271.296 15.8759 271.598C16.2504 271.896 16.6979 272.045 17.2182 272.045C17.6358 272.045 18.007 271.948 18.3319 271.752C18.66 271.557 18.9168 271.288 19.1025 270.947C19.2914 270.602 19.3858 270.213 19.3858 269.778C19.3858 269.334 19.2881 268.938 19.0925 268.59C18.9003 268.239 18.6351 267.962 18.2971 267.76C17.959 267.558 17.5729 267.455 17.1387 267.452C16.8271 267.448 16.5073 267.496 16.1792 267.596C15.851 267.692 15.5809 267.816 15.3688 267.969L14.2154 267.83L14.8319 262.818H20.1216V263.912H15.8659L15.508 266.915H15.5676C15.7765 266.749 16.0383 266.612 16.3532 266.502C16.668 266.393 16.9962 266.338 17.3375 266.338C17.9606 266.338 18.5158 266.487 19.003 266.786C19.4935 267.08 19.878 267.485 20.1564 267.999C20.4382 268.512 20.579 269.099 20.579 269.759C20.579 270.408 20.4332 270.988 20.1415 271.499C19.8532 272.006 19.4554 272.407 18.9483 272.702C18.4412 272.993 17.8645 273.139 17.2182 273.139ZM25.875 273.139C25.1259 273.139 24.4879 272.935 23.9609 272.528C23.4339 272.117 23.0313 271.522 22.7528 270.743C22.4744 269.961 22.3352 269.016 22.3352 267.909C22.3352 266.809 22.4744 265.869 22.7528 265.09C23.0346 264.308 23.4389 263.711 23.9659 263.3C24.4962 262.886 25.1326 262.679 25.875 262.679C26.6174 262.679 27.2521 262.886 27.7791 263.3C28.3094 263.711 28.7138 264.308 28.9922 265.09C29.2739 265.869 29.4148 266.809 29.4148 267.909C29.4148 269.016 29.2756 269.961 28.9972 270.743C28.7188 271.522 28.3161 272.117 27.7891 272.528C27.2621 272.935 26.6241 273.139 25.875 273.139ZM25.875 272.045C26.6174 272.045 27.1941 271.687 27.6051 270.972C28.0161 270.256 28.2216 269.235 28.2216 267.909C28.2216 267.027 28.1271 266.277 27.9382 265.657C27.7526 265.037 27.4841 264.565 27.1328 264.24C26.7848 263.915 26.3655 263.753 25.875 263.753C25.1392 263.753 24.5642 264.116 24.1499 264.842C23.7356 265.564 23.5284 266.587 23.5284 267.909C23.5284 268.791 23.6212 269.54 23.8068 270.156C23.9924 270.773 24.2592 271.242 24.6072 271.563C24.9586 271.885 25.3812 272.045 25.875 272.045ZM34.625 273.139C33.8759 273.139 33.2379 272.935 32.7109 272.528C32.1839 272.117 31.7813 271.522 31.5028 270.743C31.2244 269.961 31.0852 269.016 31.0852 267.909C31.0852 266.809 31.2244 265.869 31.5028 265.09C31.7846 264.308 32.1889 263.711 32.7159 263.3C33.2462 262.886 33.8826 262.679 34.625 262.679C35.3674 262.679 36.0021 262.886 36.5291 263.3C37.0594 263.711 37.4638 264.308 37.7422 265.09C38.0239 265.869 38.1648 266.809 38.1648 267.909C38.1648 269.016 38.0256 269.961 37.7472 270.743C37.4688 271.522 37.0661 272.117 36.5391 272.528C36.0121 272.935 35.3741 273.139 34.625 273.139ZM34.625 272.045C35.3674 272.045 35.9441 271.687 36.3551 270.972C36.7661 270.256 36.9716 269.235 36.9716 267.909C36.9716 267.027 36.8771 266.277 36.6882 265.657C36.5026 265.037 36.2341 264.565 35.8828 264.24C35.5348 263.915 35.1155 263.753 34.625 263.753C33.8892 263.753 33.3142 264.116 32.8999 264.842C32.4856 265.564 32.2784 266.587 32.2784 267.909C32.2784 268.791 32.3712 269.54 32.5568 270.156C32.7424 270.773 33.0092 271.242 33.3572 271.563C33.7086 271.885 34.1312 272.045 34.625 272.045Z" fill="#303030" fill-opacity="0.5"/>
<path d="M208.295 351.139C207.58 351.139 206.968 350.934 206.461 350.523C205.957 350.108 205.569 349.51 205.298 348.728C205.029 347.946 204.895 347.006 204.895 345.909C204.895 344.815 205.029 343.879 205.298 343.1C205.569 342.318 205.959 341.72 206.466 341.305C206.976 340.888 207.586 340.679 208.295 340.679C209.005 340.679 209.613 340.888 210.12 341.305C210.63 341.72 211.02 342.318 211.288 343.1C211.56 343.879 211.696 344.815 211.696 345.909C211.696 347.006 211.56 347.946 211.288 348.728C211.02 349.51 210.632 350.108 210.125 350.523C209.621 350.934 209.011 351.139 208.295 351.139ZM208.295 350.304C209.081 350.304 209.694 349.921 210.135 349.156C210.576 348.387 210.796 347.304 210.796 345.909C210.796 344.981 210.695 344.189 210.493 343.533C210.294 342.873 210.007 342.369 209.633 342.021C209.262 341.673 208.816 341.499 208.295 341.499C207.517 341.499 206.905 341.887 206.461 342.663C206.017 343.435 205.795 344.517 205.795 345.909C205.795 346.837 205.894 347.629 206.093 348.286C206.295 348.942 206.582 349.442 206.953 349.787C207.328 350.132 207.775 350.304 208.295 350.304ZM216.881 351.139C216.165 351.139 215.554 350.934 215.047 350.523C214.543 350.108 214.155 349.51 213.884 348.728C213.615 347.946 213.481 347.006 213.481 345.909C213.481 344.815 213.615 343.879 213.884 343.1C214.155 342.318 214.545 341.72 215.052 341.305C215.562 340.888 216.172 340.679 216.881 340.679C217.591 340.679 218.199 340.888 218.706 341.305C219.216 341.72 219.606 342.318 219.874 343.1C220.146 343.879 220.282 344.815 220.282 345.909C220.282 347.006 220.146 347.946 219.874 348.728C219.606 349.51 219.218 350.108 218.711 350.523C218.207 350.934 217.597 351.139 216.881 351.139ZM216.881 350.304C217.667 350.304 218.28 349.921 218.721 349.156C219.162 348.387 219.382 347.304 219.382 345.909C219.382 344.981 219.281 344.189 219.079 343.533C218.88 342.873 218.593 342.369 218.219 342.021C217.848 341.673 217.402 341.499 216.881 341.499C216.103 341.499 215.491 341.887 215.047 342.663C214.603 343.435 214.381 344.517 214.381 345.909C214.381 346.837 214.48 347.629 214.679 348.286C214.881 348.942 215.168 349.442 215.539 349.787C215.914 350.132 216.361 350.304 216.881 350.304ZM223.046 349.474C222.851 349.474 222.682 349.404 222.539 349.265C222.4 349.122 222.33 348.953 222.33 348.758C222.33 348.559 222.4 348.39 222.539 348.251C222.682 348.112 222.851 348.042 223.046 348.042C223.245 348.042 223.414 348.112 223.553 348.251C223.692 348.39 223.762 348.559 223.762 348.758C223.762 348.887 223.729 349.006 223.663 349.116C223.6 349.225 223.513 349.313 223.404 349.379C223.298 349.442 223.179 349.474 223.046 349.474ZM223.046 344.308C222.851 344.308 222.682 344.239 222.539 344.099C222.4 343.957 222.33 343.788 222.33 343.592C222.33 343.397 222.4 343.229 222.539 343.09C222.682 342.948 222.851 342.876 223.046 342.876C223.245 342.876 223.414 342.948 223.553 343.09C223.692 343.229 223.762 343.397 223.762 343.592C223.762 343.722 223.729 343.841 223.663 343.95C223.6 344.06 223.513 344.147 223.404 344.214C223.298 344.277 223.179 344.308 223.046 344.308ZM229.227 351.139C228.511 351.139 227.9 350.934 227.393 350.523C226.889 350.108 226.501 349.51 226.229 348.728C225.961 347.946 225.827 347.006 225.827 345.909C225.827 344.815 225.961 343.879 226.229 343.1C226.501 342.318 226.89 341.72 227.398 341.305C227.908 340.888 228.518 340.679 229.227 340.679C229.936 340.679 230.545 340.888 231.052 341.305C231.562 341.72 231.952 342.318 232.22 343.1C232.492 343.879 232.628 344.815 232.628 345.909C232.628 347.006 232.492 347.946 232.22 348.728C231.952 349.51 231.564 350.108 231.057 350.523C230.553 350.934 229.943 351.139 229.227 351.139ZM229.227 350.304C230.013 350.304 230.626 349.921 231.067 349.156C231.507 348.387 231.728 347.304 231.728 345.909C231.728 344.981 231.627 344.189 231.425 343.533C231.226 342.873 230.939 342.369 230.564 342.021C230.193 341.673 229.747 341.499 229.227 341.499C228.448 341.499 227.837 341.887 227.393 342.663C226.948 343.435 226.726 344.517 226.726 345.909C226.726 346.837 226.826 347.629 227.025 348.286C227.227 348.942 227.514 349.442 227.885 349.787C228.259 350.132 228.707 350.304 229.227 350.304ZM237.813 351.139C237.097 351.139 236.486 350.934 235.979 350.523C235.475 350.108 235.087 349.51 234.815 348.728C234.547 347.946 234.412 347.006 234.412 345.909C234.412 344.815 234.547 343.879 234.815 343.1C235.087 342.318 235.476 341.72 235.983 341.305C236.494 340.888 237.104 340.679 237.813 340.679C238.522 340.679 239.131 340.888 239.638 341.305C240.148 341.72 240.537 342.318 240.806 343.1C241.078 343.879 241.214 344.815 241.214 345.909C241.214 347.006 241.078 347.946 240.806 348.728C240.537 349.51 240.15 350.108 239.643 350.523C239.139 350.934 238.529 351.139 237.813 351.139ZM237.813 350.304C238.599 350.304 239.212 349.921 239.653 349.156C240.093 348.387 240.314 347.304 240.314 345.909C240.314 344.981 240.213 344.189 240.01 343.533C239.812 342.873 239.525 342.369 239.15 342.021C238.779 341.673 238.333 341.499 237.813 341.499C237.034 341.499 236.423 341.887 235.979 342.663C235.534 343.435 235.312 344.517 235.312 345.909C235.312 346.837 235.412 347.629 235.611 348.286C235.813 348.942 236.099 349.442 236.471 349.787C236.845 350.132 237.293 350.304 237.813 350.304ZM208.295 373.139C207.58 373.139 206.968 372.934 206.461 372.523C205.957 372.108 205.569 371.51 205.298 370.728C205.029 369.946 204.895 369.006 204.895 367.909C204.895 366.815 205.029 365.879 205.298 365.1C205.569 364.318 205.959 363.72 206.466 363.305C206.976 362.888 207.586 362.679 208.295 362.679C209.005 362.679 209.613 362.888 210.12 363.305C210.63 363.72 211.02 364.318 211.288 365.1C211.56 365.879 211.696 366.815 211.696 367.909C211.696 369.006 211.56 369.946 211.288 370.728C211.02 371.51 210.632 372.108 210.125 372.523C209.621 372.934 209.011 373.139 208.295 373.139ZM208.295 372.304C209.081 372.304 209.694 371.921 210.135 371.156C210.576 370.387 210.796 369.304 210.796 367.909C210.796 366.981 210.695 366.189 210.493 365.533C210.294 364.873 210.007 364.369 209.633 364.021C209.262 363.673 208.816 363.499 208.295 363.499C207.517 363.499 206.905 363.887 206.461 364.663C206.017 365.435 205.795 366.517 205.795 367.909C205.795 368.837 205.894 369.629 206.093 370.286C206.295 370.942 206.582 371.442 206.953 371.787C207.328 372.132 207.775 372.304 208.295 372.304ZM213.476 370.812V370.057L218.015 362.818H218.572V364.086H218.159L214.515 369.913V369.977H220.466V370.812H213.476ZM218.229 373V370.574V370.226V362.818H219.114V373H218.229ZM223.224 371.474C223.028 371.474 222.859 371.404 222.717 371.265C222.578 371.122 222.508 370.953 222.508 370.758C222.508 370.559 222.578 370.39 222.717 370.251C222.859 370.112 223.028 370.042 223.224 370.042C223.423 370.042 223.592 370.112 223.731 370.251C223.87 370.39 223.94 370.559 223.94 370.758C223.94 370.887 223.907 371.006 223.84 371.116C223.777 371.225 223.691 371.313 223.582 371.379C223.476 371.442 223.356 371.474 223.224 371.474ZM223.224 366.308C223.028 366.308 222.859 366.239 222.717 366.099C222.578 365.957 222.508 365.788 222.508 365.592C222.508 365.397 222.578 365.229 222.717 365.09C222.859 364.948 223.028 364.876 223.224 364.876C223.423 364.876 223.592 364.948 223.731 365.09C223.87 365.229 223.94 365.397 223.94 365.592C223.94 365.722 223.907 365.841 223.84 365.95C223.777 366.06 223.691 366.147 223.582 366.214C223.476 366.277 223.356 366.308 223.224 366.308ZM229.405 373.139C228.689 373.139 228.077 372.934 227.57 372.523C227.067 372.108 226.679 371.51 226.407 370.728C226.138 369.946 226.004 369.006 226.004 367.909C226.004 366.815 226.138 365.879 226.407 365.1C226.679 364.318 227.068 363.72 227.575 363.305C228.086 362.888 228.696 362.679 229.405 362.679C230.114 362.679 230.722 362.888 231.229 363.305C231.74 363.72 232.129 364.318 232.398 365.1C232.67 365.879 232.805 366.815 232.805 367.909C232.805 369.006 232.67 369.946 232.398 370.728C232.129 371.51 231.741 372.108 231.234 372.523C230.731 372.934 230.121 373.139 229.405 373.139ZM229.405 372.304C230.19 372.304 230.804 371.921 231.244 371.156C231.685 370.387 231.906 369.304 231.906 367.909C231.906 366.981 231.804 366.189 231.602 365.533C231.403 364.873 231.117 364.369 230.742 364.021C230.371 363.673 229.925 363.499 229.405 363.499C228.626 363.499 228.014 363.887 227.57 364.663C227.126 365.435 226.904 366.517 226.904 367.909C226.904 368.837 227.004 369.629 227.202 370.286C227.405 370.942 227.691 371.442 228.062 371.787C228.437 372.132 228.884 372.304 229.405 372.304ZM237.991 373.139C237.275 373.139 236.663 372.934 236.156 372.523C235.652 372.108 235.265 371.51 234.993 370.728C234.724 369.946 234.59 369.006 234.59 367.909C234.59 366.815 234.724 365.879 234.993 365.1C235.265 364.318 235.654 363.72 236.161 363.305C236.672 362.888 237.281 362.679 237.991 362.679C238.7 362.679 239.308 362.888 239.815 363.305C240.326 363.72 240.715 364.318 240.984 365.1C241.255 365.879 241.391 366.815 241.391 367.909C241.391 369.006 241.255 369.946 240.984 370.728C240.715 371.51 240.327 372.108 239.82 372.523C239.317 372.934 238.707 373.139 237.991 373.139ZM237.991 372.304C238.776 372.304 239.389 371.921 239.83 371.156C240.271 370.387 240.491 369.304 240.491 367.909C240.491 366.981 240.39 366.189 240.188 365.533C239.989 364.873 239.703 364.369 239.328 364.021C238.957 363.673 238.511 363.499 237.991 363.499C237.212 363.499 236.6 363.887 236.156 364.663C235.712 365.435 235.49 366.517 235.49 367.909C235.49 368.837 235.589 369.629 235.788 370.286C235.991 370.942 236.277 371.442 236.648 371.787C237.023 372.132 237.47 372.304 237.991 372.304Z" fill="#303030" fill-opacity="0.5"/>
<path d="M400.295 351.139C399.58 351.139 398.968 350.934 398.461 350.523C397.957 350.108 397.569 349.51 397.298 348.728C397.029 347.946 396.895 347.006 396.895 345.909C396.895 344.815 397.029 343.879 397.298 343.1C397.569 342.318 397.959 341.72 398.466 341.305C398.976 340.888 399.586 340.679 400.295 340.679C401.005 340.679 401.613 340.888 402.12 341.305C402.63 341.72 403.02 342.318 403.288 343.1C403.56 343.879 403.696 344.815 403.696 345.909C403.696 347.006 403.56 347.946 403.288 348.728C403.02 349.51 402.632 350.108 402.125 350.523C401.621 350.934 401.011 351.139 400.295 351.139ZM400.295 350.304C401.081 350.304 401.694 349.921 402.135 349.156C402.576 348.387 402.796 347.304 402.796 345.909C402.796 344.981 402.695 344.189 402.493 343.533C402.294 342.873 402.007 342.369 401.633 342.021C401.262 341.673 400.816 341.499 400.295 341.499C399.517 341.499 398.905 341.887 398.461 342.663C398.017 343.435 397.795 344.517 397.795 345.909C397.795 346.837 397.894 347.629 398.093 348.286C398.295 348.942 398.582 349.442 398.953 349.787C399.328 350.132 399.775 350.304 400.295 350.304ZM405.476 348.812V348.057L410.015 340.818H410.572V342.086H410.159L406.515 347.913V347.977H412.466V348.812H405.476ZM410.229 351V348.574V348.226V340.818H411.114V351H410.229ZM415.224 349.474C415.028 349.474 414.859 349.404 414.717 349.265C414.578 349.122 414.508 348.953 414.508 348.758C414.508 348.559 414.578 348.39 414.717 348.251C414.859 348.112 415.028 348.042 415.224 348.042C415.423 348.042 415.592 348.112 415.731 348.251C415.87 348.39 415.94 348.559 415.94 348.758C415.94 348.887 415.907 349.006 415.84 349.116C415.777 349.225 415.691 349.313 415.582 349.379C415.476 349.442 415.356 349.474 415.224 349.474ZM415.224 344.308C415.028 344.308 414.859 344.239 414.717 344.099C414.578 343.957 414.508 343.788 414.508 343.592C414.508 343.397 414.578 343.229 414.717 343.09C414.859 342.948 415.028 342.876 415.224 342.876C415.423 342.876 415.592 342.948 415.731 343.09C415.87 343.229 415.94 343.397 415.94 343.592C415.94 343.722 415.907 343.841 415.84 343.95C415.777 344.06 415.691 344.147 415.582 344.214C415.476 344.277 415.356 344.308 415.224 344.308ZM421.405 351.139C420.689 351.139 420.077 350.934 419.57 350.523C419.067 350.108 418.679 349.51 418.407 348.728C418.138 347.946 418.004 347.006 418.004 345.909C418.004 344.815 418.138 343.879 418.407 343.1C418.679 342.318 419.068 341.72 419.575 341.305C420.086 340.888 420.696 340.679 421.405 340.679C422.114 340.679 422.722 340.888 423.229 341.305C423.74 341.72 424.129 342.318 424.398 343.1C424.67 343.879 424.805 344.815 424.805 345.909C424.805 347.006 424.67 347.946 424.398 348.728C424.129 349.51 423.741 350.108 423.234 350.523C422.731 350.934 422.121 351.139 421.405 351.139ZM421.405 350.304C422.19 350.304 422.804 349.921 423.244 349.156C423.685 348.387 423.906 347.304 423.906 345.909C423.906 344.981 423.804 344.189 423.602 343.533C423.403 342.873 423.117 342.369 422.742 342.021C422.371 341.673 421.925 341.499 421.405 341.499C420.626 341.499 420.014 341.887 419.57 342.663C419.126 343.435 418.904 344.517 418.904 345.909C418.904 346.837 419.004 347.629 419.202 348.286C419.405 348.942 419.691 349.442 420.062 349.787C420.437 350.132 420.884 350.304 421.405 350.304ZM429.991 351.139C429.275 351.139 428.663 350.934 428.156 350.523C427.652 350.108 427.265 349.51 426.993 348.728C426.724 347.946 426.59 347.006 426.59 345.909C426.59 344.815 426.724 343.879 426.993 343.1C427.265 342.318 427.654 341.72 428.161 341.305C428.672 340.888 429.281 340.679 429.991 340.679C430.7 340.679 431.308 340.888 431.815 341.305C432.326 341.72 432.715 342.318 432.984 343.1C433.255 343.879 433.391 344.815 433.391 345.909C433.391 347.006 433.255 347.946 432.984 348.728C432.715 349.51 432.327 350.108 431.82 350.523C431.317 350.934 430.707 351.139 429.991 351.139ZM429.991 350.304C430.776 350.304 431.389 349.921 431.83 349.156C432.271 348.387 432.491 347.304 432.491 345.909C432.491 344.981 432.39 344.189 432.188 343.533C431.989 342.873 431.703 342.369 431.328 342.021C430.957 341.673 430.511 341.499 429.991 341.499C429.212 341.499 428.6 341.887 428.156 342.663C427.712 343.435 427.49 344.517 427.49 345.909C427.49 346.837 427.589 347.629 427.788 348.286C427.991 348.942 428.277 349.442 428.648 349.787C429.023 350.132 429.47 350.304 429.991 350.304ZM400.295 373.139C399.58 373.139 398.968 372.934 398.461 372.523C397.957 372.108 397.569 371.51 397.298 370.728C397.029 369.946 396.895 369.006 396.895 367.909C396.895 366.815 397.029 365.879 397.298 365.1C397.569 364.318 397.959 363.72 398.466 363.305C398.976 362.888 399.586 362.679 400.295 362.679C401.005 362.679 401.613 362.888 402.12 363.305C402.63 363.72 403.02 364.318 403.288 365.1C403.56 365.879 403.696 366.815 403.696 367.909C403.696 369.006 403.56 369.946 403.288 370.728C403.02 371.51 402.632 372.108 402.125 372.523C401.621 372.934 401.011 373.139 400.295 373.139ZM400.295 372.304C401.081 372.304 401.694 371.921 402.135 371.156C402.576 370.387 402.796 369.304 402.796 367.909C402.796 366.981 402.695 366.189 402.493 365.533C402.294 364.873 402.007 364.369 401.633 364.021C401.262 363.673 400.816 363.499 400.295 363.499C399.517 363.499 398.905 363.887 398.461 364.663C398.017 365.435 397.795 366.517 397.795 367.909C397.795 368.837 397.894 369.629 398.093 370.286C398.295 370.942 398.582 371.442 398.953 371.787C399.328 372.132 399.775 372.304 400.295 372.304ZM408.866 373.139C408.217 373.139 407.638 373.017 407.131 372.771C406.624 372.526 406.227 372.191 405.938 371.767C405.65 371.339 405.506 370.857 405.506 370.32C405.506 369.899 405.594 369.507 405.769 369.142C405.945 368.774 406.187 368.466 406.495 368.217C406.803 367.965 407.15 367.801 407.534 367.725V367.67C407.034 367.525 406.631 367.238 406.326 366.81C406.021 366.379 405.87 365.891 405.874 365.344C405.87 364.837 406 364.383 406.261 363.982C406.523 363.58 406.879 363.264 407.33 363.032C407.784 362.797 408.296 362.679 408.866 362.679C409.433 362.679 409.942 362.797 410.393 363.032C410.844 363.264 411.2 363.58 411.462 363.982C411.727 364.383 411.861 364.837 411.864 365.344C411.861 365.887 411.707 366.376 411.402 366.81C411.097 367.241 410.696 367.528 410.199 367.67V367.725C410.583 367.798 410.928 367.96 411.233 368.212C411.538 368.464 411.78 368.774 411.959 369.142C412.138 369.507 412.227 369.899 412.227 370.32C412.227 370.857 412.081 371.339 411.79 371.767C411.501 372.191 411.104 372.526 410.597 372.771C410.093 373.017 409.516 373.139 408.866 373.139ZM408.866 372.304C409.35 372.304 409.775 372.218 410.139 372.045C410.507 371.87 410.794 371.629 410.999 371.325C411.208 371.02 411.312 370.67 411.312 370.276C411.312 369.868 411.205 369.505 410.989 369.187C410.774 368.865 410.482 368.612 410.114 368.426C409.746 368.237 409.33 368.143 408.866 368.143C408.402 368.143 407.985 368.237 407.614 368.426C407.246 368.612 406.954 368.865 406.739 369.187C406.527 369.505 406.42 369.868 406.42 370.276C406.42 370.67 406.522 371.02 406.724 371.325C406.929 371.629 407.216 371.87 407.584 372.045C407.955 372.218 408.383 372.304 408.866 372.304ZM408.866 367.347C409.264 367.347 409.621 367.263 409.935 367.094C410.25 366.925 410.499 366.694 410.681 366.403C410.867 366.108 410.961 365.773 410.964 365.398C410.961 365.027 410.868 364.699 410.686 364.414C410.504 364.126 410.255 363.902 409.94 363.743C409.629 363.58 409.271 363.499 408.866 363.499C408.462 363.499 408.101 363.58 407.783 363.743C407.468 363.902 407.219 364.126 407.037 364.414C406.858 364.699 406.77 365.027 406.773 365.398C406.77 365.773 406.86 366.108 407.042 366.403C407.228 366.694 407.478 366.925 407.793 367.094C408.111 367.263 408.469 367.347 408.866 367.347ZM415.032 371.474C414.837 371.474 414.668 371.404 414.525 371.265C414.386 371.122 414.317 370.953 414.317 370.758C414.317 370.559 414.386 370.39 414.525 370.251C414.668 370.112 414.837 370.042 415.032 370.042C415.231 370.042 415.4 370.112 415.54 370.251C415.679 370.39 415.748 370.559 415.748 370.758C415.748 370.887 415.715 371.006 415.649 371.116C415.586 371.225 415.5 371.313 415.39 371.379C415.284 371.442 415.165 371.474 415.032 371.474ZM415.032 366.308C414.837 366.308 414.668 366.239 414.525 366.099C414.386 365.957 414.317 365.788 414.317 365.592C414.317 365.397 414.386 365.229 414.525 365.09C414.668 364.948 414.837 364.876 415.032 364.876C415.231 364.876 415.4 364.948 415.54 365.09C415.679 365.229 415.748 365.397 415.748 365.592C415.748 365.722 415.715 365.841 415.649 365.95C415.586 366.06 415.5 366.147 415.39 366.214C415.284 366.277 415.165 366.308 415.032 366.308ZM421.213 373.139C420.498 373.139 419.886 372.934 419.379 372.523C418.875 372.108 418.487 371.51 418.216 370.728C417.947 369.946 417.813 369.006 417.813 367.909C417.813 366.815 417.947 365.879 418.216 365.1C418.487 364.318 418.877 363.72 419.384 363.305C419.894 362.888 420.504 362.679 421.213 362.679C421.923 362.679 422.531 362.888 423.038 363.305C423.548 363.72 423.938 364.318 424.206 365.1C424.478 365.879 424.614 366.815 424.614 367.909C424.614 369.006 424.478 369.946 424.206 370.728C423.938 371.51 423.55 372.108 423.043 372.523C422.539 372.934 421.929 373.139 421.213 373.139ZM421.213 372.304C421.999 372.304 422.612 371.921 423.053 371.156C423.494 370.387 423.714 369.304 423.714 367.909C423.714 366.981 423.613 366.189 423.411 365.533C423.212 364.873 422.925 364.369 422.551 364.021C422.18 363.673 421.734 363.499 421.213 363.499C420.435 363.499 419.823 363.887 419.379 364.663C418.935 365.435 418.713 366.517 418.713 367.909C418.713 368.837 418.812 369.629 419.011 370.286C419.213 370.942 419.5 371.442 419.871 371.787C420.246 372.132 420.693 372.304 421.213 372.304ZM429.799 373.139C429.083 373.139 428.472 372.934 427.965 372.523C427.461 372.108 427.073 371.51 426.801 370.728C426.533 369.946 426.399 369.006 426.399 367.909C426.399 366.815 426.533 365.879 426.801 365.1C427.073 364.318 427.463 363.72 427.97 363.305C428.48 362.888 429.09 362.679 429.799 362.679C430.509 362.679 431.117 362.888 431.624 363.305C432.134 363.72 432.524 364.318 432.792 365.1C433.064 365.879 433.2 366.815 433.2 367.909C433.2 369.006 433.064 369.946 432.792 370.728C432.524 371.51 432.136 372.108 431.629 372.523C431.125 372.934 430.515 373.139 429.799 373.139ZM429.799 372.304C430.585 372.304 431.198 371.921 431.639 371.156C432.08 370.387 432.3 369.304 432.3 367.909C432.3 366.981 432.199 366.189 431.997 365.533C431.798 364.873 431.511 364.369 431.137 364.021C430.766 363.673 430.32 363.499 429.799 363.499C429.02 363.499 428.409 363.887 427.965 364.663C427.521 365.435 427.299 366.517 427.299 367.909C427.299 368.837 427.398 369.629 427.597 370.286C427.799 370.942 428.086 371.442 428.457 371.787C428.832 372.132 429.279 372.304 429.799 372.304Z" fill="#303030" fill-opacity="0.5"/>
<path d="M592.295 351.139C591.58 351.139 590.968 350.934 590.461 350.523C589.957 350.108 589.569 349.51 589.298 348.728C589.029 347.946 588.895 347.006 588.895 345.909C588.895 344.815 589.029 343.879 589.298 343.1C589.569 342.318 589.959 341.72 590.466 341.305C590.976 340.888 591.586 340.679 592.295 340.679C593.005 340.679 593.613 340.888 594.12 341.305C594.63 341.72 595.02 342.318 595.288 343.1C595.56 343.879 595.696 344.815 595.696 345.909C595.696 347.006 595.56 347.946 595.288 348.728C595.02 349.51 594.632 350.108 594.125 350.523C593.621 350.934 593.011 351.139 592.295 351.139ZM592.295 350.304C593.081 350.304 593.694 349.921 594.135 349.156C594.576 348.387 594.796 347.304 594.796 345.909C594.796 344.981 594.695 344.189 594.493 343.533C594.294 342.873 594.007 342.369 593.633 342.021C593.262 341.673 592.816 341.499 592.295 341.499C591.517 341.499 590.905 341.887 590.461 342.663C590.017 343.435 589.795 344.517 589.795 345.909C589.795 346.837 589.894 347.629 590.093 348.286C590.295 348.942 590.582 349.442 590.953 349.787C591.328 350.132 591.775 350.304 592.295 350.304ZM600.866 351.139C600.217 351.139 599.638 351.017 599.131 350.771C598.624 350.526 598.227 350.191 597.938 349.767C597.65 349.339 597.506 348.857 597.506 348.32C597.506 347.899 597.594 347.507 597.769 347.142C597.945 346.774 598.187 346.466 598.495 346.217C598.803 345.965 599.15 345.801 599.534 345.725V345.67C599.034 345.525 598.631 345.238 598.326 344.81C598.021 344.379 597.87 343.891 597.874 343.344C597.87 342.837 598 342.383 598.261 341.982C598.523 341.58 598.879 341.264 599.33 341.032C599.784 340.797 600.296 340.679 600.866 340.679C601.433 340.679 601.942 340.797 602.393 341.032C602.844 341.264 603.2 341.58 603.462 341.982C603.727 342.383 603.861 342.837 603.864 343.344C603.861 343.887 603.707 344.376 603.402 344.81C603.097 345.241 602.696 345.528 602.199 345.67V345.725C602.583 345.798 602.928 345.96 603.233 346.212C603.538 346.464 603.78 346.774 603.959 347.142C604.138 347.507 604.227 347.899 604.227 348.32C604.227 348.857 604.081 349.339 603.79 349.767C603.501 350.191 603.104 350.526 602.597 350.771C602.093 351.017 601.516 351.139 600.866 351.139ZM600.866 350.304C601.35 350.304 601.775 350.218 602.139 350.045C602.507 349.87 602.794 349.629 602.999 349.325C603.208 349.02 603.312 348.67 603.312 348.276C603.312 347.868 603.205 347.505 602.989 347.187C602.774 346.865 602.482 346.612 602.114 346.426C601.746 346.237 601.33 346.143 600.866 346.143C600.402 346.143 599.985 346.237 599.614 346.426C599.246 346.612 598.954 346.865 598.739 347.187C598.527 347.505 598.42 347.868 598.42 348.276C598.42 348.67 598.522 349.02 598.724 349.325C598.929 349.629 599.216 349.87 599.584 350.045C599.955 350.218 600.383 350.304 600.866 350.304ZM600.866 345.347C601.264 345.347 601.621 345.263 601.935 345.094C602.25 344.925 602.499 344.694 602.681 344.403C602.867 344.108 602.961 343.773 602.964 343.398C602.961 343.027 602.868 342.699 602.686 342.414C602.504 342.126 602.255 341.902 601.94 341.743C601.629 341.58 601.271 341.499 600.866 341.499C600.462 341.499 600.101 341.58 599.783 341.743C599.468 341.902 599.219 342.126 599.037 342.414C598.858 342.699 598.77 343.027 598.773 343.398C598.77 343.773 598.86 344.108 599.042 344.403C599.228 344.694 599.478 344.925 599.793 345.094C600.111 345.263 600.469 345.347 600.866 345.347ZM607.032 349.474C606.837 349.474 606.668 349.404 606.525 349.265C606.386 349.122 606.317 348.953 606.317 348.758C606.317 348.559 606.386 348.39 606.525 348.251C606.668 348.112 606.837 348.042 607.032 348.042C607.231 348.042 607.4 348.112 607.54 348.251C607.679 348.39 607.748 348.559 607.748 348.758C607.748 348.887 607.715 349.006 607.649 349.116C607.586 349.225 607.5 349.313 607.39 349.379C607.284 349.442 607.165 349.474 607.032 349.474ZM607.032 344.308C606.837 344.308 606.668 344.239 606.525 344.099C606.386 343.957 606.317 343.788 606.317 343.592C606.317 343.397 606.386 343.229 606.525 343.09C606.668 342.948 606.837 342.876 607.032 342.876C607.231 342.876 607.4 342.948 607.54 343.09C607.679 343.229 607.748 343.397 607.748 343.592C607.748 343.722 607.715 343.841 607.649 343.95C607.586 344.06 607.5 344.147 607.39 344.214C607.284 344.277 607.165 344.308 607.032 344.308ZM613.213 351.139C612.498 351.139 611.886 350.934 611.379 350.523C610.875 350.108 610.487 349.51 610.216 348.728C609.947 347.946 609.813 347.006 609.813 345.909C609.813 344.815 609.947 343.879 610.216 343.1C610.487 342.318 610.877 341.72 611.384 341.305C611.894 340.888 612.504 340.679 613.213 340.679C613.923 340.679 614.531 340.888 615.038 341.305C615.548 341.72 615.938 342.318 616.206 343.1C616.478 343.879 616.614 344.815 616.614 345.909C616.614 347.006 616.478 347.946 616.206 348.728C615.938 349.51 615.55 350.108 615.043 350.523C614.539 350.934 613.929 351.139 613.213 351.139ZM613.213 350.304C613.999 350.304 614.612 349.921 615.053 349.156C615.494 348.387 615.714 347.304 615.714 345.909C615.714 344.981 615.613 344.189 615.411 343.533C615.212 342.873 614.925 342.369 614.551 342.021C614.18 341.673 613.734 341.499 613.213 341.499C612.435 341.499 611.823 341.887 611.379 342.663C610.935 343.435 610.713 344.517 610.713 345.909C610.713 346.837 610.812 347.629 611.011 348.286C611.213 348.942 611.5 349.442 611.871 349.787C612.246 350.132 612.693 350.304 613.213 350.304ZM621.799 351.139C621.083 351.139 620.472 350.934 619.965 350.523C619.461 350.108 619.073 349.51 618.801 348.728C618.533 347.946 618.399 347.006 618.399 345.909C618.399 344.815 618.533 343.879 618.801 343.1C619.073 342.318 619.463 341.72 619.97 341.305C620.48 340.888 621.09 340.679 621.799 340.679C622.509 340.679 623.117 340.888 623.624 341.305C624.134 341.72 624.524 342.318 624.792 343.1C625.064 343.879 625.2 344.815 625.2 345.909C625.2 347.006 625.064 347.946 624.792 348.728C624.524 349.51 624.136 350.108 623.629 350.523C623.125 350.934 622.515 351.139 621.799 351.139ZM621.799 350.304C622.585 350.304 623.198 349.921 623.639 349.156C624.08 348.387 624.3 347.304 624.3 345.909C624.3 344.981 624.199 344.189 623.997 343.533C623.798 342.873 623.511 342.369 623.137 342.021C622.766 341.673 622.32 341.499 621.799 341.499C621.02 341.499 620.409 341.887 619.965 342.663C619.521 343.435 619.299 344.517 619.299 345.909C619.299 346.837 619.398 347.629 619.597 348.286C619.799 348.942 620.086 349.442 620.457 349.787C620.832 350.132 621.279 350.304 621.799 350.304ZM592.276 362.818V373H591.346V363.793H591.286L588.9 365.379V364.414L591.306 362.818H592.276ZM595.368 373V372.319L598.694 368.58C599.128 368.09 599.478 367.67 599.743 367.322C600.008 366.974 600.2 366.653 600.32 366.358C600.442 366.063 600.504 365.756 600.504 365.438C600.504 365.05 600.412 364.712 600.23 364.424C600.051 364.132 599.804 363.905 599.489 363.743C599.174 363.58 598.82 363.499 598.425 363.499C598.008 363.499 597.642 363.589 597.327 363.768C597.015 363.947 596.773 364.192 596.601 364.504C596.429 364.815 596.342 365.173 596.342 365.577H595.452C595.452 365.014 595.582 364.515 595.84 364.081C596.102 363.643 596.458 363.3 596.909 363.052C597.363 362.803 597.877 362.679 598.45 362.679C599.017 362.679 599.521 362.802 599.962 363.047C600.402 363.289 600.749 363.619 601.001 364.036C601.253 364.454 601.379 364.921 601.379 365.438C601.379 365.813 601.312 366.176 601.18 366.527C601.05 366.878 600.827 367.269 600.509 367.7C600.19 368.131 599.75 368.658 599.186 369.281L596.661 372.1V372.165H601.697V373H595.368ZM604.654 371.474C604.458 371.474 604.289 371.404 604.146 371.265C604.007 371.122 603.938 370.953 603.938 370.758C603.938 370.559 604.007 370.39 604.146 370.251C604.289 370.112 604.458 370.042 604.654 370.042C604.852 370.042 605.021 370.112 605.161 370.251C605.3 370.39 605.369 370.559 605.369 370.758C605.369 370.887 605.336 371.006 605.27 371.116C605.207 371.225 605.121 371.313 605.012 371.379C604.905 371.442 604.786 371.474 604.654 371.474ZM604.654 366.308C604.458 366.308 604.289 366.239 604.146 366.099C604.007 365.957 603.938 365.788 603.938 365.592C603.938 365.397 604.007 365.229 604.146 365.09C604.289 364.948 604.458 364.876 604.654 364.876C604.852 364.876 605.021 364.948 605.161 365.09C605.3 365.229 605.369 365.397 605.369 365.592C605.369 365.722 605.336 365.841 605.27 365.95C605.207 366.06 605.121 366.147 605.012 366.214C604.905 366.277 604.786 366.308 604.654 366.308ZM610.835 373.139C610.119 373.139 609.507 372.934 609 372.523C608.496 372.108 608.108 371.51 607.837 370.728C607.568 369.946 607.434 369.006 607.434 367.909C607.434 366.815 607.568 365.879 607.837 365.1C608.108 364.318 608.498 363.72 609.005 363.305C609.515 362.888 610.125 362.679 610.835 362.679C611.544 362.679 612.152 362.888 612.659 363.305C613.17 363.72 613.559 364.318 613.827 365.1C614.099 365.879 614.235 366.815 614.235 367.909C614.235 369.006 614.099 369.946 613.827 370.728C613.559 371.51 613.171 372.108 612.664 372.523C612.16 372.934 611.55 373.139 610.835 373.139ZM610.835 372.304C611.62 372.304 612.233 371.921 612.674 371.156C613.115 370.387 613.335 369.304 613.335 367.909C613.335 366.981 613.234 366.189 613.032 365.533C612.833 364.873 612.546 364.369 612.172 364.021C611.801 363.673 611.355 363.499 610.835 363.499C610.056 363.499 609.444 363.887 609 364.663C608.556 365.435 608.334 366.517 608.334 367.909C608.334 368.837 608.433 369.629 608.632 370.286C608.834 370.942 609.121 371.442 609.492 371.787C609.867 372.132 610.314 372.304 610.835 372.304ZM619.42 373.139C618.705 373.139 618.093 372.934 617.586 372.523C617.082 372.108 616.694 371.51 616.423 370.728C616.154 369.946 616.02 369.006 616.02 367.909C616.02 366.815 616.154 365.879 616.423 365.1C616.694 364.318 617.084 363.72 617.591 363.305C618.101 362.888 618.711 362.679 619.42 362.679C620.13 362.679 620.738 362.888 621.245 363.305C621.755 363.72 622.145 364.318 622.413 365.1C622.685 365.879 622.821 366.815 622.821 367.909C622.821 369.006 622.685 369.946 622.413 370.728C622.145 371.51 621.757 372.108 621.25 372.523C620.746 372.934 620.136 373.139 619.42 373.139ZM619.42 372.304C620.206 372.304 620.819 371.921 621.26 371.156C621.701 370.387 621.921 369.304 621.921 367.909C621.921 366.981 621.82 366.189 621.618 365.533C621.419 364.873 621.132 364.369 620.758 364.021C620.387 363.673 619.941 363.499 619.42 363.499C618.642 363.499 618.03 363.887 617.586 364.663C617.142 365.435 616.92 366.517 616.92 367.909C616.92 368.837 617.019 369.629 617.218 370.286C617.42 370.942 617.707 371.442 618.078 371.787C618.453 372.132 618.9 372.304 619.42 372.304Z" fill="#303030" fill-opacity="0.5"/>
<path d="M785.276 339.818V350H784.346V340.793H784.286L781.9 342.379V341.414L784.306 339.818H785.276ZM788.368 350V349.319L791.694 345.58C792.128 345.09 792.478 344.67 792.743 344.322C793.008 343.974 793.2 343.653 793.32 343.358C793.442 343.063 793.504 342.756 793.504 342.438C793.504 342.05 793.412 341.712 793.23 341.424C793.051 341.132 792.804 340.905 792.489 340.743C792.174 340.58 791.82 340.499 791.425 340.499C791.008 340.499 790.642 340.589 790.327 340.768C790.015 340.947 789.773 341.192 789.601 341.504C789.429 341.815 789.342 342.173 789.342 342.577H788.452C788.452 342.014 788.582 341.515 788.84 341.081C789.102 340.643 789.458 340.3 789.909 340.052C790.363 339.803 790.877 339.679 791.45 339.679C792.017 339.679 792.521 339.802 792.962 340.047C793.402 340.289 793.749 340.619 794.001 341.036C794.253 341.454 794.379 341.921 794.379 342.438C794.379 342.813 794.312 343.176 794.18 343.527C794.05 343.878 793.827 344.269 793.509 344.7C793.19 345.131 792.75 345.658 792.186 346.281L789.661 349.1V349.165H794.697V350H788.368ZM797.654 348.474C797.458 348.474 797.289 348.404 797.146 348.265C797.007 348.122 796.938 347.953 796.938 347.758C796.938 347.559 797.007 347.39 797.146 347.251C797.289 347.112 797.458 347.042 797.654 347.042C797.852 347.042 798.021 347.112 798.161 347.251C798.3 347.39 798.369 347.559 798.369 347.758C798.369 347.887 798.336 348.006 798.27 348.116C798.207 348.225 798.121 348.313 798.012 348.379C797.905 348.442 797.786 348.474 797.654 348.474ZM797.654 343.308C797.458 343.308 797.289 343.239 797.146 343.099C797.007 342.957 796.938 342.788 796.938 342.592C796.938 342.397 797.007 342.229 797.146 342.09C797.289 341.948 797.458 341.876 797.654 341.876C797.852 341.876 798.021 341.948 798.161 342.09C798.3 342.229 798.369 342.397 798.369 342.592C798.369 342.722 798.336 342.841 798.27 342.95C798.207 343.06 798.121 343.147 798.012 343.214C797.905 343.277 797.786 343.308 797.654 343.308ZM803.835 350.139C803.119 350.139 802.507 349.934 802 349.523C801.496 349.108 801.108 348.51 800.837 347.728C800.568 346.946 800.434 346.006 800.434 344.909C800.434 343.815 800.568 342.879 800.837 342.1C801.108 341.318 801.498 340.72 802.005 340.305C802.515 339.888 803.125 339.679 803.835 339.679C804.544 339.679 805.152 339.888 805.659 340.305C806.17 340.72 806.559 341.318 806.827 342.1C807.099 342.879 807.235 343.815 807.235 344.909C807.235 346.006 807.099 346.946 806.827 347.728C806.559 348.51 806.171 349.108 805.664 349.523C805.16 349.934 804.55 350.139 803.835 350.139ZM803.835 349.304C804.62 349.304 805.233 348.921 805.674 348.156C806.115 347.387 806.335 346.304 806.335 344.909C806.335 343.981 806.234 343.189 806.032 342.533C805.833 341.873 805.546 341.369 805.172 341.021C804.801 340.673 804.355 340.499 803.835 340.499C803.056 340.499 802.444 340.887 802 341.663C801.556 342.435 801.334 343.517 801.334 344.909C801.334 345.837 801.433 346.629 801.632 347.286C801.834 347.942 802.121 348.442 802.492 348.787C802.867 349.132 803.314 349.304 803.835 349.304ZM812.42 350.139C811.705 350.139 811.093 349.934 810.586 349.523C810.082 349.108 809.694 348.51 809.423 347.728C809.154 346.946 809.02 346.006 809.02 344.909C809.02 343.815 809.154 342.879 809.423 342.1C809.694 341.318 810.084 340.72 810.591 340.305C811.101 339.888 811.711 339.679 812.42 339.679C813.13 339.679 813.738 339.888 814.245 340.305C814.755 340.72 815.145 341.318 815.413 342.1C815.685 342.879 815.821 343.815 815.821 344.909C815.821 346.006 815.685 346.946 815.413 347.728C815.145 348.51 814.757 349.108 814.25 349.523C813.746 349.934 813.136 350.139 812.42 350.139ZM812.42 349.304C813.206 349.304 813.819 348.921 814.26 348.156C814.701 347.387 814.921 346.304 814.921 344.909C814.921 343.981 814.82 343.189 814.618 342.533C814.419 341.873 814.132 341.369 813.758 341.021C813.387 340.673 812.941 340.499 812.42 340.499C811.642 340.499 811.03 340.887 810.586 341.663C810.142 342.435 809.92 343.517 809.92 344.909C809.92 345.837 810.019 346.629 810.218 347.286C810.42 347.942 810.707 348.442 811.078 348.787C811.453 349.132 811.9 349.304 812.42 349.304ZM785.276 361.818V372H784.346V362.793H784.286L781.9 364.379V363.414L784.306 361.818H785.276ZM791.575 372.139C791.154 372.136 790.743 372.051 790.342 371.886C789.941 371.717 789.579 371.446 789.258 371.075C788.936 370.701 788.681 370.207 788.492 369.594C788.303 368.981 788.209 368.227 788.209 367.332C788.209 366.503 788.282 365.744 788.428 365.055C788.573 364.365 788.792 363.769 789.084 363.265C789.375 362.761 789.74 362.372 790.178 362.097C790.615 361.818 791.127 361.679 791.714 361.679C792.264 361.679 792.75 361.793 793.17 362.022C793.591 362.247 793.933 362.562 794.195 362.967C794.456 363.371 794.621 363.837 794.687 364.364H793.772C793.679 363.827 793.459 363.384 793.111 363.036C792.763 362.688 792.297 362.514 791.714 362.514C790.879 362.514 790.232 362.902 789.775 363.678C789.317 364.45 789.087 365.547 789.084 366.969H789.148C789.311 366.667 789.52 366.407 789.775 366.188C790.033 365.966 790.327 365.794 790.655 365.671C790.983 365.545 791.328 365.482 791.689 365.482C792.256 365.482 792.774 365.626 793.245 365.915C793.716 366.2 794.092 366.593 794.374 367.093C794.655 367.59 794.796 368.159 794.796 368.798C794.796 369.405 794.662 369.963 794.393 370.474C794.128 370.984 793.754 371.39 793.27 371.692C792.789 371.993 792.224 372.143 791.575 372.139ZM791.575 371.304C792.019 371.304 792.415 371.191 792.763 370.966C793.114 370.741 793.391 370.439 793.593 370.061C793.795 369.68 793.896 369.259 793.896 368.798C793.896 368.338 793.795 367.92 793.593 367.545C793.391 367.171 793.114 366.873 792.763 366.651C792.415 366.429 792.019 366.317 791.575 366.317C791.237 366.317 790.922 366.387 790.63 366.526C790.338 366.662 790.085 366.849 789.869 367.088C789.657 367.323 789.495 367.594 789.382 367.898C789.273 368.203 789.231 368.523 789.258 368.858C789.294 369.325 789.415 369.745 789.621 370.116C789.83 370.484 790.101 370.774 790.436 370.986C790.774 371.198 791.154 371.304 791.575 371.304ZM797.64 370.474C797.444 370.474 797.275 370.404 797.133 370.265C796.994 370.122 796.924 369.953 796.924 369.758C796.924 369.559 796.994 369.39 797.133 369.251C797.275 369.112 797.444 369.042 797.64 369.042C797.839 369.042 798.008 369.112 798.147 369.251C798.286 369.39 798.356 369.559 798.356 369.758C798.356 369.887 798.323 370.006 798.256 370.116C798.193 370.225 798.107 370.313 797.998 370.379C797.892 370.442 797.772 370.474 797.64 370.474ZM797.64 365.308C797.444 365.308 797.275 365.239 797.133 365.099C796.994 364.957 796.924 364.788 796.924 364.592C796.924 364.397 796.994 364.229 797.133 364.09C797.275 363.948 797.444 363.876 797.64 363.876C797.839 363.876 798.008 363.948 798.147 364.09C798.286 364.229 798.356 364.397 798.356 364.592C798.356 364.722 798.323 364.841 798.256 364.95C798.193 365.06 798.107 365.147 797.998 365.214C797.892 365.277 797.772 365.308 797.64 365.308ZM803.821 372.139C803.105 372.139 802.493 371.934 801.986 371.523C801.483 371.108 801.095 370.51 800.823 369.728C800.555 368.946 800.42 368.006 800.42 366.909C800.42 365.815 800.555 364.879 800.823 364.1C801.095 363.318 801.484 362.72 801.991 362.305C802.502 361.888 803.112 361.679 803.821 361.679C804.53 361.679 805.138 361.888 805.645 362.305C806.156 362.72 806.545 363.318 806.814 364.1C807.086 364.879 807.221 365.815 807.221 366.909C807.221 368.006 807.086 368.946 806.814 369.728C806.545 370.51 806.157 371.108 805.65 371.523C805.147 371.934 804.537 372.139 803.821 372.139ZM803.821 371.304C804.606 371.304 805.22 370.921 805.66 370.156C806.101 369.387 806.322 368.304 806.322 366.909C806.322 365.981 806.22 365.189 806.018 364.533C805.819 363.873 805.533 363.369 805.158 363.021C804.787 362.673 804.341 362.499 803.821 362.499C803.042 362.499 802.43 362.887 801.986 363.663C801.542 364.435 801.32 365.517 801.32 366.909C801.32 367.837 801.42 368.629 801.618 369.286C801.821 369.942 802.107 370.442 802.479 370.787C802.853 371.132 803.3 371.304 803.821 371.304ZM812.407 372.139C811.691 372.139 811.079 371.934 810.572 371.523C810.068 371.108 809.681 370.51 809.409 369.728C809.14 368.946 809.006 368.006 809.006 366.909C809.006 365.815 809.14 364.879 809.409 364.1C809.681 363.318 810.07 362.72 810.577 362.305C811.088 361.888 811.698 361.679 812.407 361.679C813.116 361.679 813.724 361.888 814.231 362.305C814.742 362.72 815.131 363.318 815.4 364.1C815.671 364.879 815.807 365.815 815.807 366.909C815.807 368.006 815.671 368.946 815.4 369.728C815.131 370.51 814.743 371.108 814.236 371.523C813.733 371.934 813.123 372.139 812.407 372.139ZM812.407 371.304C813.192 371.304 813.805 370.921 814.246 370.156C814.687 369.387 814.907 368.304 814.907 366.909C814.907 365.981 814.806 365.189 814.604 364.533C814.405 363.873 814.119 363.369 813.744 363.021C813.373 362.673 812.927 362.499 812.407 362.499C811.628 362.499 811.016 362.887 810.572 363.663C810.128 364.435 809.906 365.517 809.906 366.909C809.906 367.837 810.006 368.629 810.204 369.286C810.407 369.942 810.693 370.442 811.064 370.787C811.439 371.132 811.886 371.304 812.407 371.304Z" fill="#303030" fill-opacity="0.5"/>
<path d="M976.276 339.818V350H975.346V340.793H975.286L972.9 342.379V341.414L975.306 339.818H976.276ZM982.575 350.139C982.154 350.136 981.743 350.051 981.342 349.886C980.941 349.717 980.579 349.446 980.258 349.075C979.936 348.701 979.681 348.207 979.492 347.594C979.303 346.981 979.209 346.227 979.209 345.332C979.209 344.503 979.282 343.744 979.428 343.055C979.573 342.365 979.792 341.769 980.084 341.265C980.375 340.761 980.74 340.372 981.178 340.097C981.615 339.818 982.127 339.679 982.714 339.679C983.264 339.679 983.75 339.793 984.17 340.022C984.591 340.247 984.933 340.562 985.195 340.967C985.456 341.371 985.621 341.837 985.687 342.364H984.772C984.679 341.827 984.459 341.384 984.111 341.036C983.763 340.688 983.297 340.514 982.714 340.514C981.879 340.514 981.232 340.902 980.775 341.678C980.317 342.45 980.087 343.547 980.084 344.969H980.148C980.311 344.667 980.52 344.407 980.775 344.188C981.033 343.966 981.327 343.794 981.655 343.671C981.983 343.545 982.328 343.482 982.689 343.482C983.256 343.482 983.774 343.626 984.245 343.915C984.716 344.2 985.092 344.593 985.374 345.093C985.655 345.59 985.796 346.159 985.796 346.798C985.796 347.405 985.662 347.963 985.393 348.474C985.128 348.984 984.754 349.39 984.27 349.692C983.789 349.993 983.224 350.143 982.575 350.139ZM982.575 349.304C983.019 349.304 983.415 349.191 983.763 348.966C984.114 348.741 984.391 348.439 984.593 348.061C984.795 347.68 984.896 347.259 984.896 346.798C984.896 346.338 984.795 345.92 984.593 345.545C984.391 345.171 984.114 344.873 983.763 344.651C983.415 344.429 983.019 344.317 982.575 344.317C982.237 344.317 981.922 344.387 981.63 344.526C981.338 344.662 981.085 344.849 980.869 345.088C980.657 345.323 980.495 345.594 980.382 345.898C980.273 346.203 980.231 346.523 980.258 346.858C980.294 347.325 980.415 347.745 980.621 348.116C980.83 348.484 981.101 348.774 981.436 348.986C981.774 349.198 982.154 349.304 982.575 349.304ZM988.64 348.474C988.444 348.474 988.275 348.404 988.133 348.265C987.994 348.122 987.924 347.953 987.924 347.758C987.924 347.559 987.994 347.39 988.133 347.251C988.275 347.112 988.444 347.042 988.64 347.042C988.839 347.042 989.008 347.112 989.147 347.251C989.286 347.39 989.356 347.559 989.356 347.758C989.356 347.887 989.323 348.006 989.256 348.116C989.193 348.225 989.107 348.313 988.998 348.379C988.892 348.442 988.772 348.474 988.64 348.474ZM988.64 343.308C988.444 343.308 988.275 343.239 988.133 343.099C987.994 342.957 987.924 342.788 987.924 342.592C987.924 342.397 987.994 342.229 988.133 342.09C988.275 341.948 988.444 341.876 988.64 341.876C988.839 341.876 989.008 341.948 989.147 342.09C989.286 342.229 989.356 342.397 989.356 342.592C989.356 342.722 989.323 342.841 989.256 342.95C989.193 343.06 989.107 343.147 988.998 343.214C988.892 343.277 988.772 343.308 988.64 343.308ZM994.821 350.139C994.105 350.139 993.493 349.934 992.986 349.523C992.483 349.108 992.095 348.51 991.823 347.728C991.555 346.946 991.42 346.006 991.42 344.909C991.42 343.815 991.555 342.879 991.823 342.1C992.095 341.318 992.484 340.72 992.991 340.305C993.502 339.888 994.112 339.679 994.821 339.679C995.53 339.679 996.138 339.888 996.645 340.305C997.156 340.72 997.545 341.318 997.814 342.1C998.086 342.879 998.221 343.815 998.221 344.909C998.221 346.006 998.086 346.946 997.814 347.728C997.545 348.51 997.157 349.108 996.65 349.523C996.147 349.934 995.537 350.139 994.821 350.139ZM994.821 349.304C995.606 349.304 996.22 348.921 996.66 348.156C997.101 347.387 997.322 346.304 997.322 344.909C997.322 343.981 997.22 343.189 997.018 342.533C996.819 341.873 996.533 341.369 996.158 341.021C995.787 340.673 995.341 340.499 994.821 340.499C994.042 340.499 993.43 340.887 992.986 341.663C992.542 342.435 992.32 343.517 992.32 344.909C992.32 345.837 992.42 346.629 992.618 347.286C992.821 347.942 993.107 348.442 993.479 348.787C993.853 349.132 994.3 349.304 994.821 349.304ZM1003.41 350.139C1002.69 350.139 1002.08 349.934 1001.57 349.523C1001.07 349.108 1000.68 348.51 1000.41 347.728C1000.14 346.946 1000.01 346.006 1000.01 344.909C1000.01 343.815 1000.14 342.879 1000.41 342.1C1000.68 341.318 1001.07 340.72 1001.58 340.305C1002.09 339.888 1002.7 339.679 1003.41 339.679C1004.12 339.679 1004.72 339.888 1005.23 340.305C1005.74 340.72 1006.13 341.318 1006.4 342.1C1006.67 342.879 1006.81 343.815 1006.81 344.909C1006.81 346.006 1006.67 346.946 1006.4 347.728C1006.13 348.51 1005.74 349.108 1005.24 349.523C1004.73 349.934 1004.12 350.139 1003.41 350.139ZM1003.41 349.304C1004.19 349.304 1004.81 348.921 1005.25 348.156C1005.69 347.387 1005.91 346.304 1005.91 344.909C1005.91 343.981 1005.81 343.189 1005.6 342.533C1005.41 341.873 1005.12 341.369 1004.74 341.021C1004.37 340.673 1003.93 340.499 1003.41 340.499C1002.63 340.499 1002.02 340.887 1001.57 341.663C1001.13 342.435 1000.91 343.517 1000.91 344.909C1000.91 345.837 1001.01 346.629 1001.2 347.286C1001.41 347.942 1001.69 348.442 1002.06 348.787C1002.44 349.132 1002.89 349.304 1003.41 349.304ZM973.134 372V371.319L976.46 367.58C976.894 367.09 977.243 366.67 977.509 366.322C977.774 365.974 977.966 365.653 978.085 365.358C978.208 365.063 978.269 364.756 978.269 364.438C978.269 364.05 978.178 363.712 977.996 363.424C977.817 363.132 977.57 362.905 977.255 362.743C976.94 362.58 976.585 362.499 976.191 362.499C975.773 362.499 975.407 362.589 975.092 362.768C974.781 362.947 974.539 363.192 974.366 363.504C974.194 363.815 974.108 364.173 974.108 364.577H973.218C973.218 364.014 973.347 363.515 973.606 363.081C973.868 362.643 974.224 362.3 974.675 362.052C975.129 361.803 975.643 361.679 976.216 361.679C976.783 361.679 977.286 361.802 977.727 362.047C978.168 362.289 978.514 362.619 978.766 363.036C979.018 363.454 979.144 363.921 979.144 364.438C979.144 364.813 979.078 365.176 978.945 365.527C978.816 365.878 978.592 366.269 978.274 366.7C977.956 367.131 977.515 367.658 976.952 368.281L974.426 371.1V371.165H979.462V372H973.134ZM984.84 372.139C984.124 372.139 983.513 371.934 983.006 371.523C982.502 371.108 982.114 370.51 981.843 369.728C981.574 368.946 981.44 368.006 981.44 366.909C981.44 365.815 981.574 364.879 981.843 364.1C982.114 363.318 982.504 362.72 983.011 362.305C983.521 361.888 984.131 361.679 984.84 361.679C985.55 361.679 986.158 361.888 986.665 362.305C987.175 362.72 987.565 363.318 987.833 364.1C988.105 364.879 988.241 365.815 988.241 366.909C988.241 368.006 988.105 368.946 987.833 369.728C987.565 370.51 987.177 371.108 986.67 371.523C986.166 371.934 985.556 372.139 984.84 372.139ZM984.84 371.304C985.626 371.304 986.239 370.921 986.68 370.156C987.121 369.387 987.341 368.304 987.341 366.909C987.341 365.981 987.24 365.189 987.038 364.533C986.839 363.873 986.552 363.369 986.178 363.021C985.807 362.673 985.361 362.499 984.84 362.499C984.061 362.499 983.45 362.887 983.006 363.663C982.562 364.435 982.34 365.517 982.34 366.909C982.34 367.837 982.439 368.629 982.638 369.286C982.84 369.942 983.127 370.442 983.498 370.787C983.873 371.132 984.32 371.304 984.84 371.304ZM991.005 370.474C990.81 370.474 990.641 370.404 990.498 370.265C990.359 370.122 990.289 369.953 990.289 369.758C990.289 369.559 990.359 369.39 990.498 369.251C990.641 369.112 990.81 369.042 991.005 369.042C991.204 369.042 991.373 369.112 991.512 369.251C991.651 369.39 991.721 369.559 991.721 369.758C991.721 369.887 991.688 370.006 991.622 370.116C991.559 370.225 991.472 370.313 991.363 370.379C991.257 370.442 991.138 370.474 991.005 370.474ZM991.005 365.308C990.81 365.308 990.641 365.239 990.498 365.099C990.359 364.957 990.289 364.788 990.289 364.592C990.289 364.397 990.359 364.229 990.498 364.09C990.641 363.948 990.81 363.876 991.005 363.876C991.204 363.876 991.373 363.948 991.512 364.09C991.651 364.229 991.721 364.397 991.721 364.592C991.721 364.722 991.688 364.841 991.622 364.95C991.559 365.06 991.472 365.147 991.363 365.214C991.257 365.277 991.138 365.308 991.005 365.308ZM997.186 372.139C996.47 372.139 995.859 371.934 995.352 371.523C994.848 371.108 994.46 370.51 994.188 369.728C993.92 368.946 993.786 368.006 993.786 366.909C993.786 365.815 993.92 364.879 994.188 364.1C994.46 363.318 994.849 362.72 995.357 362.305C995.867 361.888 996.477 361.679 997.186 361.679C997.895 361.679 998.504 361.888 999.011 362.305C999.521 362.72 999.911 363.318 1000.18 364.1C1000.45 364.879 1000.59 365.815 1000.59 366.909C1000.59 368.006 1000.45 368.946 1000.18 369.728C999.911 370.51 999.523 371.108 999.016 371.523C998.512 371.934 997.902 372.139 997.186 372.139ZM997.186 371.304C997.972 371.304 998.585 370.921 999.026 370.156C999.466 369.387 999.687 368.304 999.687 366.909C999.687 365.981 999.586 365.189 999.384 364.533C999.185 363.873 998.898 363.369 998.523 363.021C998.152 362.673 997.706 362.499 997.186 362.499C996.407 362.499 995.796 362.887 995.352 363.663C994.907 364.435 994.685 365.517 994.685 366.909C994.685 367.837 994.785 368.629 994.984 369.286C995.186 369.942 995.473 370.442 995.844 370.787C996.218 371.132 996.666 371.304 997.186 371.304ZM1005.77 372.139C1005.06 372.139 1004.44 371.934 1003.94 371.523C1003.43 371.108 1003.05 370.51 1002.77 369.728C1002.51 368.946 1002.37 368.006 1002.37 366.909C1002.37 365.815 1002.51 364.879 1002.77 364.1C1003.05 363.318 1003.44 362.72 1003.94 362.305C1004.45 361.888 1005.06 361.679 1005.77 361.679C1006.48 361.679 1007.09 361.888 1007.6 362.305C1008.11 362.72 1008.5 363.318 1008.76 364.1C1009.04 364.879 1009.17 365.815 1009.17 366.909C1009.17 368.006 1009.04 368.946 1008.76 369.728C1008.5 370.51 1008.11 371.108 1007.6 371.523C1007.1 371.934 1006.49 372.139 1005.77 372.139ZM1005.77 371.304C1006.56 371.304 1007.17 370.921 1007.61 370.156C1008.05 369.387 1008.27 368.304 1008.27 366.909C1008.27 365.981 1008.17 365.189 1007.97 364.533C1007.77 363.873 1007.48 363.369 1007.11 363.021C1006.74 362.673 1006.29 362.499 1005.77 362.499C1004.99 362.499 1004.38 362.887 1003.94 363.663C1003.49 364.435 1003.27 365.517 1003.27 366.909C1003.27 367.837 1003.37 368.629 1003.57 369.286C1003.77 369.942 1004.06 370.442 1004.43 370.787C1004.8 371.132 1005.25 371.304 1005.77 371.304Z" fill="#303030" fill-opacity="0.5"/>
<path d="M1165.13 352V351.319L1168.46 347.58C1168.89 347.09 1169.24 346.67 1169.51 346.322C1169.77 345.974 1169.97 345.653 1170.09 345.358C1170.21 345.063 1170.27 344.756 1170.27 344.438C1170.27 344.05 1170.18 343.712 1170 343.424C1169.82 343.132 1169.57 342.905 1169.25 342.743C1168.94 342.58 1168.59 342.499 1168.19 342.499C1167.77 342.499 1167.41 342.589 1167.09 342.768C1166.78 342.947 1166.54 343.192 1166.37 343.504C1166.19 343.815 1166.11 344.173 1166.11 344.577H1165.22C1165.22 344.014 1165.35 343.515 1165.61 343.081C1165.87 342.643 1166.22 342.3 1166.67 342.052C1167.13 341.803 1167.64 341.679 1168.22 341.679C1168.78 341.679 1169.29 341.802 1169.73 342.047C1170.17 342.289 1170.51 342.619 1170.77 343.036C1171.02 343.454 1171.14 343.921 1171.14 344.438C1171.14 344.813 1171.08 345.176 1170.95 345.527C1170.82 345.878 1170.59 346.269 1170.27 346.7C1169.96 347.131 1169.52 347.658 1168.95 348.281L1166.43 351.1V351.165H1171.46V352H1165.13ZM1176.84 352.139C1176.12 352.139 1175.51 351.934 1175.01 351.523C1174.5 351.108 1174.11 350.51 1173.84 349.728C1173.57 348.946 1173.44 348.006 1173.44 346.909C1173.44 345.815 1173.57 344.879 1173.84 344.1C1174.11 343.318 1174.5 342.72 1175.01 342.305C1175.52 341.888 1176.13 341.679 1176.84 341.679C1177.55 341.679 1178.16 341.888 1178.66 342.305C1179.18 342.72 1179.56 343.318 1179.83 344.1C1180.11 344.879 1180.24 345.815 1180.24 346.909C1180.24 348.006 1180.11 348.946 1179.83 349.728C1179.56 350.51 1179.18 351.108 1178.67 351.523C1178.17 351.934 1177.56 352.139 1176.84 352.139ZM1176.84 351.304C1177.63 351.304 1178.24 350.921 1178.68 350.156C1179.12 349.387 1179.34 348.304 1179.34 346.909C1179.34 345.981 1179.24 345.189 1179.04 344.533C1178.84 343.873 1178.55 343.369 1178.18 343.021C1177.81 342.673 1177.36 342.499 1176.84 342.499C1176.06 342.499 1175.45 342.887 1175.01 343.663C1174.56 344.435 1174.34 345.517 1174.34 346.909C1174.34 347.837 1174.44 348.629 1174.64 349.286C1174.84 349.942 1175.13 350.442 1175.5 350.787C1175.87 351.132 1176.32 351.304 1176.84 351.304ZM1183.01 350.474C1182.81 350.474 1182.64 350.404 1182.5 350.265C1182.36 350.122 1182.29 349.953 1182.29 349.758C1182.29 349.559 1182.36 349.39 1182.5 349.251C1182.64 349.112 1182.81 349.042 1183.01 349.042C1183.2 349.042 1183.37 349.112 1183.51 349.251C1183.65 349.39 1183.72 349.559 1183.72 349.758C1183.72 349.887 1183.69 350.006 1183.62 350.116C1183.56 350.225 1183.47 350.313 1183.36 350.379C1183.26 350.442 1183.14 350.474 1183.01 350.474ZM1183.01 345.308C1182.81 345.308 1182.64 345.239 1182.5 345.099C1182.36 344.957 1182.29 344.788 1182.29 344.592C1182.29 344.397 1182.36 344.229 1182.5 344.09C1182.64 343.948 1182.81 343.876 1183.01 343.876C1183.2 343.876 1183.37 343.948 1183.51 344.09C1183.65 344.229 1183.72 344.397 1183.72 344.592C1183.72 344.722 1183.69 344.841 1183.62 344.95C1183.56 345.06 1183.47 345.147 1183.36 345.214C1183.26 345.277 1183.14 345.308 1183.01 345.308ZM1189.19 352.139C1188.47 352.139 1187.86 351.934 1187.35 351.523C1186.85 351.108 1186.46 350.51 1186.19 349.728C1185.92 348.946 1185.79 348.006 1185.79 346.909C1185.79 345.815 1185.92 344.879 1186.19 344.1C1186.46 343.318 1186.85 342.72 1187.36 342.305C1187.87 341.888 1188.48 341.679 1189.19 341.679C1189.9 341.679 1190.5 341.888 1191.01 342.305C1191.52 342.72 1191.91 343.318 1192.18 344.1C1192.45 344.879 1192.59 345.815 1192.59 346.909C1192.59 348.006 1192.45 348.946 1192.18 349.728C1191.91 350.51 1191.52 351.108 1191.02 351.523C1190.51 351.934 1189.9 352.139 1189.19 352.139ZM1189.19 351.304C1189.97 351.304 1190.58 350.921 1191.03 350.156C1191.47 349.387 1191.69 348.304 1191.69 346.909C1191.69 345.981 1191.59 345.189 1191.38 344.533C1191.18 343.873 1190.9 343.369 1190.52 343.021C1190.15 342.673 1189.71 342.499 1189.19 342.499C1188.41 342.499 1187.8 342.887 1187.35 343.663C1186.91 344.435 1186.69 345.517 1186.69 346.909C1186.69 347.837 1186.78 348.629 1186.98 349.286C1187.19 349.942 1187.47 350.442 1187.84 350.787C1188.22 351.132 1188.67 351.304 1189.19 351.304ZM1197.77 352.139C1197.06 352.139 1196.44 351.934 1195.94 351.523C1195.43 351.108 1195.05 350.51 1194.77 349.728C1194.51 348.946 1194.37 348.006 1194.37 346.909C1194.37 345.815 1194.51 344.879 1194.77 344.1C1195.05 343.318 1195.44 342.72 1195.94 342.305C1196.45 341.888 1197.06 341.679 1197.77 341.679C1198.48 341.679 1199.09 341.888 1199.6 342.305C1200.11 342.72 1200.5 343.318 1200.76 344.1C1201.04 344.879 1201.17 345.815 1201.17 346.909C1201.17 348.006 1201.04 348.946 1200.76 349.728C1200.5 350.51 1200.11 351.108 1199.6 351.523C1199.1 351.934 1198.49 352.139 1197.77 352.139ZM1197.77 351.304C1198.56 351.304 1199.17 350.921 1199.61 350.156C1200.05 349.387 1200.27 348.304 1200.27 346.909C1200.27 345.981 1200.17 345.189 1199.97 344.533C1199.77 343.873 1199.48 343.369 1199.11 343.021C1198.74 342.673 1198.29 342.499 1197.77 342.499C1196.99 342.499 1196.38 342.887 1195.94 343.663C1195.49 344.435 1195.27 345.517 1195.27 346.909C1195.27 347.837 1195.37 348.629 1195.57 349.286C1195.77 349.942 1196.06 350.442 1196.43 350.787C1196.8 351.132 1197.25 351.304 1197.77 351.304ZM1168.3 374.139C1167.58 374.139 1166.97 373.934 1166.46 373.523C1165.96 373.108 1165.57 372.51 1165.3 371.728C1165.03 370.946 1164.89 370.006 1164.89 368.909C1164.89 367.815 1165.03 366.879 1165.3 366.1C1165.57 365.318 1165.96 364.72 1166.47 364.305C1166.98 363.888 1167.59 363.679 1168.3 363.679C1169 363.679 1169.61 363.888 1170.12 364.305C1170.63 364.72 1171.02 365.318 1171.29 366.1C1171.56 366.879 1171.7 367.815 1171.7 368.909C1171.7 370.006 1171.56 370.946 1171.29 371.728C1171.02 372.51 1170.63 373.108 1170.12 373.523C1169.62 373.934 1169.01 374.139 1168.3 374.139ZM1168.3 373.304C1169.08 373.304 1169.69 372.921 1170.13 372.156C1170.58 371.387 1170.8 370.304 1170.8 368.909C1170.8 367.981 1170.7 367.189 1170.49 366.533C1170.29 365.873 1170.01 365.369 1169.63 365.021C1169.26 364.673 1168.82 364.499 1168.3 364.499C1167.52 364.499 1166.91 364.887 1166.46 365.663C1166.02 366.435 1165.79 367.517 1165.79 368.909C1165.79 369.837 1165.89 370.629 1166.09 371.286C1166.3 371.942 1166.58 372.442 1166.95 372.787C1167.33 373.132 1167.78 373.304 1168.3 373.304ZM1176.88 374.139C1176.17 374.139 1175.55 373.934 1175.05 373.523C1174.54 373.108 1174.16 372.51 1173.88 371.728C1173.62 370.946 1173.48 370.006 1173.48 368.909C1173.48 367.815 1173.62 366.879 1173.88 366.1C1174.16 365.318 1174.54 364.72 1175.05 364.305C1175.56 363.888 1176.17 363.679 1176.88 363.679C1177.59 363.679 1178.2 363.888 1178.71 364.305C1179.22 364.72 1179.61 365.318 1179.87 366.1C1180.15 366.879 1180.28 367.815 1180.28 368.909C1180.28 370.006 1180.15 370.946 1179.87 371.728C1179.61 372.51 1179.22 373.108 1178.71 373.523C1178.21 373.934 1177.6 374.139 1176.88 374.139ZM1176.88 373.304C1177.67 373.304 1178.28 372.921 1178.72 372.156C1179.16 371.387 1179.38 370.304 1179.38 368.909C1179.38 367.981 1179.28 367.189 1179.08 366.533C1178.88 365.873 1178.59 365.369 1178.22 365.021C1177.85 364.673 1177.4 364.499 1176.88 364.499C1176.1 364.499 1175.49 364.887 1175.05 365.663C1174.6 366.435 1174.38 367.517 1174.38 368.909C1174.38 369.837 1174.48 370.629 1174.68 371.286C1174.88 371.942 1175.17 372.442 1175.54 372.787C1175.91 373.132 1176.36 373.304 1176.88 373.304ZM1183.05 372.474C1182.85 372.474 1182.68 372.404 1182.54 372.265C1182.4 372.122 1182.33 371.953 1182.33 371.758C1182.33 371.559 1182.4 371.39 1182.54 371.251C1182.68 371.112 1182.85 371.042 1183.05 371.042C1183.25 371.042 1183.41 371.112 1183.55 371.251C1183.69 371.39 1183.76 371.559 1183.76 371.758C1183.76 371.887 1183.73 372.006 1183.66 372.116C1183.6 372.225 1183.51 372.313 1183.4 372.379C1183.3 372.442 1183.18 372.474 1183.05 372.474ZM1183.05 367.308C1182.85 367.308 1182.68 367.239 1182.54 367.099C1182.4 366.957 1182.33 366.788 1182.33 366.592C1182.33 366.397 1182.4 366.229 1182.54 366.09C1182.68 365.948 1182.85 365.876 1183.05 365.876C1183.25 365.876 1183.41 365.948 1183.55 366.09C1183.69 366.229 1183.76 366.397 1183.76 366.592C1183.76 366.722 1183.73 366.841 1183.66 366.95C1183.6 367.06 1183.51 367.147 1183.4 367.214C1183.3 367.277 1183.18 367.308 1183.05 367.308ZM1189.23 374.139C1188.51 374.139 1187.9 373.934 1187.39 373.523C1186.89 373.108 1186.5 372.51 1186.23 371.728C1185.96 370.946 1185.83 370.006 1185.83 368.909C1185.83 367.815 1185.96 366.879 1186.23 366.1C1186.5 365.318 1186.89 364.72 1187.4 364.305C1187.91 363.888 1188.52 363.679 1189.23 363.679C1189.94 363.679 1190.54 363.888 1191.05 364.305C1191.56 364.72 1191.95 365.318 1192.22 366.1C1192.49 366.879 1192.63 367.815 1192.63 368.909C1192.63 370.006 1192.49 370.946 1192.22 371.728C1191.95 372.51 1191.56 373.108 1191.06 373.523C1190.55 373.934 1189.94 374.139 1189.23 374.139ZM1189.23 373.304C1190.01 373.304 1190.63 372.921 1191.07 372.156C1191.51 371.387 1191.73 370.304 1191.73 368.909C1191.73 367.981 1191.63 367.189 1191.42 366.533C1191.23 365.873 1190.94 365.369 1190.56 365.021C1190.19 364.673 1189.75 364.499 1189.23 364.499C1188.45 364.499 1187.84 364.887 1187.39 365.663C1186.95 366.435 1186.73 367.517 1186.73 368.909C1186.73 369.837 1186.83 370.629 1187.02 371.286C1187.23 371.942 1187.51 372.442 1187.88 372.787C1188.26 373.132 1188.71 373.304 1189.23 373.304ZM1197.81 374.139C1197.1 374.139 1196.49 373.934 1195.98 373.523C1195.47 373.108 1195.09 372.51 1194.82 371.728C1194.55 370.946 1194.41 370.006 1194.41 368.909C1194.41 367.815 1194.55 366.879 1194.82 366.1C1195.09 365.318 1195.48 364.72 1195.98 364.305C1196.49 363.888 1197.1 363.679 1197.81 363.679C1198.52 363.679 1199.13 363.888 1199.64 364.305C1200.15 364.72 1200.54 365.318 1200.81 366.1C1201.08 366.879 1201.21 367.815 1201.21 368.909C1201.21 370.006 1201.08 370.946 1200.81 371.728C1200.54 372.51 1200.15 373.108 1199.64 373.523C1199.14 373.934 1198.53 374.139 1197.81 374.139ZM1197.81 373.304C1198.6 373.304 1199.21 372.921 1199.65 372.156C1200.09 371.387 1200.31 370.304 1200.31 368.909C1200.31 367.981 1200.21 367.189 1200.01 366.533C1199.81 365.873 1199.52 365.369 1199.15 365.021C1198.78 364.673 1198.33 364.499 1197.81 364.499C1197.03 364.499 1196.42 364.887 1195.98 365.663C1195.53 366.435 1195.31 367.517 1195.31 368.909C1195.31 369.837 1195.41 370.629 1195.61 371.286C1195.81 371.942 1196.1 372.442 1196.47 372.787C1196.85 373.132 1197.29 373.304 1197.81 373.304Z" fill="#303030" fill-opacity="0.5"/>
<path d="M6.93821 215.818V226H5.70526V217.111H5.6456L3.1598 218.761V217.509L5.70526 215.818H6.93821ZM17.125 226.139C16.3759 226.139 15.7379 225.935 15.2109 225.528C14.6839 225.117 14.2813 224.522 14.0028 223.743C13.7244 222.961 13.5852 222.016 13.5852 220.909C13.5852 219.809 13.7244 218.869 14.0028 218.09C14.2846 217.308 14.6889 216.711 15.2159 216.3C15.7462 215.886 16.3826 215.679 17.125 215.679C17.8674 215.679 18.5021 215.886 19.0291 216.3C19.5594 216.711 19.9638 217.308 20.2422 218.09C20.5239 218.869 20.6648 219.809 20.6648 220.909C20.6648 222.016 20.5256 222.961 20.2472 223.743C19.9688 224.522 19.5661 225.117 19.0391 225.528C18.5121 225.935 17.8741 226.139 17.125 226.139ZM17.125 225.045C17.8674 225.045 18.4441 224.687 18.8551 223.972C19.2661 223.256 19.4716 222.235 19.4716 220.909C19.4716 220.027 19.3771 219.277 19.1882 218.657C19.0026 218.037 18.7341 217.565 18.3828 217.24C18.0348 216.915 17.6155 216.753 17.125 216.753C16.3892 216.753 15.8142 217.116 15.3999 217.842C14.9856 218.564 14.7784 219.587 14.7784 220.909C14.7784 221.791 14.8712 222.54 15.0568 223.156C15.2424 223.773 15.5092 224.242 15.8572 224.563C16.2086 224.885 16.6312 225.045 17.125 225.045ZM25.875 226.139C25.1259 226.139 24.4879 225.935 23.9609 225.528C23.4339 225.117 23.0313 224.522 22.7528 223.743C22.4744 222.961 22.3352 222.016 22.3352 220.909C22.3352 219.809 22.4744 218.869 22.7528 218.09C23.0346 217.308 23.4389 216.711 23.9659 216.3C24.4962 215.886 25.1326 215.679 25.875 215.679C26.6174 215.679 27.2521 215.886 27.7791 216.3C28.3094 216.711 28.7138 217.308 28.9922 218.09C29.2739 218.869 29.4148 219.809 29.4148 220.909C29.4148 222.016 29.2756 222.961 28.9972 223.743C28.7188 224.522 28.3161 225.117 27.7891 225.528C27.2621 225.935 26.6241 226.139 25.875 226.139ZM25.875 225.045C26.6174 225.045 27.1941 224.687 27.6051 223.972C28.0161 223.256 28.2216 222.235 28.2216 220.909C28.2216 220.027 28.1271 219.277 27.9382 218.657C27.7526 218.037 27.4841 217.565 27.1328 217.24C26.7848 216.915 26.3655 216.753 25.875 216.753C25.1392 216.753 24.5642 217.116 24.1499 217.842C23.7356 218.564 23.5284 219.587 23.5284 220.909C23.5284 221.791 23.6212 222.54 23.8068 223.156C23.9924 223.773 24.2592 224.242 24.6072 224.563C24.9586 224.885 25.3812 225.045 25.875 225.045ZM34.625 226.139C33.8759 226.139 33.2379 225.935 32.7109 225.528C32.1839 225.117 31.7813 224.522 31.5028 223.743C31.2244 222.961 31.0852 222.016 31.0852 220.909C31.0852 219.809 31.2244 218.869 31.5028 218.09C31.7846 217.308 32.1889 216.711 32.7159 216.3C33.2462 215.886 33.8826 215.679 34.625 215.679C35.3674 215.679 36.0021 215.886 36.5291 216.3C37.0594 216.711 37.4638 217.308 37.7422 218.09C38.0239 218.869 38.1648 219.809 38.1648 220.909C38.1648 222.016 38.0256 222.961 37.7472 223.743C37.4688 224.522 37.0661 225.117 36.5391 225.528C36.0121 225.935 35.3741 226.139 34.625 226.139ZM34.625 225.045C35.3674 225.045 35.9441 224.687 36.3551 223.972C36.7661 223.256 36.9716 222.235 36.9716 220.909C36.9716 220.027 36.8771 219.277 36.6882 218.657C36.5026 218.037 36.2341 217.565 35.8828 217.24C35.5348 216.915 35.1155 216.753 34.625 216.753C33.8892 216.753 33.3142 217.116 32.8999 217.842C32.4856 218.564 32.2784 219.587 32.2784 220.909C32.2784 221.791 32.3712 222.54 32.5568 223.156C32.7424 223.773 33.0092 224.242 33.3572 224.563C33.7086 224.885 34.1312 225.045 34.625 225.045Z" fill="#303030" fill-opacity="0.5"/>
<path d="M7.17063 168.818V179H5.93768V170.111H5.87802L3.39222 171.761V170.509L5.93768 168.818H7.17063ZM17.2182 179.139C16.6349 179.139 16.1096 179.023 15.6422 178.791C15.1749 178.559 14.8004 178.241 14.5186 177.837C14.2369 177.432 14.0828 176.972 14.0563 176.455H15.2495C15.2959 176.915 15.5047 177.296 15.8759 177.598C16.2504 177.896 16.6979 178.045 17.2182 178.045C17.6358 178.045 18.007 177.948 18.3319 177.752C18.66 177.557 18.9168 177.288 19.1025 176.947C19.2914 176.602 19.3858 176.213 19.3858 175.778C19.3858 175.334 19.2881 174.938 19.0925 174.59C18.9003 174.239 18.6351 173.962 18.2971 173.76C17.959 173.558 17.5729 173.455 17.1387 173.452C16.8271 173.448 16.5073 173.496 16.1792 173.596C15.851 173.692 15.5809 173.816 15.3688 173.969L14.2154 173.83L14.8319 168.818H20.1216V169.912H15.8659L15.508 172.915H15.5676C15.7765 172.749 16.0383 172.612 16.3532 172.502C16.668 172.393 16.9962 172.338 17.3375 172.338C17.9606 172.338 18.5158 172.487 19.003 172.786C19.4935 173.08 19.878 173.485 20.1564 173.999C20.4382 174.512 20.579 175.099 20.579 175.759C20.579 176.408 20.4332 176.988 20.1415 177.499C19.8532 178.006 19.4554 178.407 18.9483 178.702C18.4412 178.993 17.8645 179.139 17.2182 179.139ZM25.875 179.139C25.1259 179.139 24.4879 178.935 23.9609 178.528C23.4339 178.117 23.0313 177.522 22.7528 176.743C22.4744 175.961 22.3352 175.016 22.3352 173.909C22.3352 172.809 22.4744 171.869 22.7528 171.09C23.0346 170.308 23.4389 169.711 23.9659 169.3C24.4962 168.886 25.1326 168.679 25.875 168.679C26.6174 168.679 27.2521 168.886 27.7791 169.3C28.3094 169.711 28.7138 170.308 28.9922 171.09C29.2739 171.869 29.4148 172.809 29.4148 173.909C29.4148 175.016 29.2756 175.961 28.9972 176.743C28.7188 177.522 28.3161 178.117 27.7891 178.528C27.2621 178.935 26.6241 179.139 25.875 179.139ZM25.875 178.045C26.6174 178.045 27.1941 177.687 27.6051 176.972C28.0161 176.256 28.2216 175.235 28.2216 173.909C28.2216 173.027 28.1271 172.277 27.9382 171.657C27.7526 171.037 27.4841 170.565 27.1328 170.24C26.7848 169.915 26.3655 169.753 25.875 169.753C25.1392 169.753 24.5642 170.116 24.1499 170.842C23.7356 171.564 23.5284 172.587 23.5284 173.909C23.5284 174.791 23.6212 175.54 23.8068 176.156C23.9924 176.773 24.2592 177.242 24.6072 177.563C24.9586 177.885 25.3812 178.045 25.875 178.045ZM34.625 179.139C33.8759 179.139 33.2379 178.935 32.7109 178.528C32.1839 178.117 31.7813 177.522 31.5028 176.743C31.2244 175.961 31.0852 175.016 31.0852 173.909C31.0852 172.809 31.2244 171.869 31.5028 171.09C31.7846 170.308 32.1889 169.711 32.7159 169.3C33.2462 168.886 33.8826 168.679 34.625 168.679C35.3674 168.679 36.0021 168.886 36.5291 169.3C37.0594 169.711 37.4638 170.308 37.7422 171.09C38.0239 171.869 38.1648 172.809 38.1648 173.909C38.1648 175.016 38.0256 175.961 37.7472 176.743C37.4688 177.522 37.0661 178.117 36.5391 178.528C36.0121 178.935 35.3741 179.139 34.625 179.139ZM34.625 178.045C35.3674 178.045 35.9441 177.687 36.3551 176.972C36.7661 176.256 36.9716 175.235 36.9716 173.909C36.9716 173.027 36.8771 172.277 36.6882 171.657C36.5026 171.037 36.2341 170.565 35.8828 170.24C35.5348 169.915 35.1155 169.753 34.625 169.753C33.8892 169.753 33.3142 170.116 32.8999 170.842C32.4856 171.564 32.2784 172.587 32.2784 173.909C32.2784 174.791 32.3712 175.54 32.5568 176.156C32.7424 176.773 33.0092 177.242 33.3572 177.563C33.7086 177.885 34.1312 178.045 34.625 178.045Z" fill="#303030" fill-opacity="0.5"/>
<path d="M1.38991 132V131.105L4.75071 127.426C5.14512 126.995 5.46993 126.621 5.72514 126.303C5.98035 125.981 6.16927 125.679 6.2919 125.398C6.41785 125.113 6.48082 124.814 6.48082 124.503C6.48082 124.145 6.39465 123.835 6.2223 123.573C6.05327 123.311 5.82126 123.109 5.52628 122.967C5.2313 122.824 4.89986 122.753 4.53196 122.753C4.14086 122.753 3.79948 122.834 3.50781 122.996C3.21946 123.156 2.99574 123.379 2.83665 123.668C2.68087 123.956 2.60298 124.294 2.60298 124.682H1.42969C1.42969 124.085 1.56723 123.562 1.84233 123.111C2.11742 122.66 2.49195 122.309 2.96591 122.057C3.44318 121.805 3.97846 121.679 4.57173 121.679C5.16832 121.679 5.69697 121.805 6.15767 122.057C6.61837 122.309 6.97964 122.648 7.24148 123.076C7.50331 123.504 7.63423 123.979 7.63423 124.503C7.63423 124.877 7.56629 125.244 7.4304 125.602C7.29782 125.956 7.06581 126.352 6.73438 126.79C6.40625 127.224 5.95052 127.754 5.36719 128.381L3.08026 130.827V130.906H7.81321V132H1.38991ZM17.125 132.139C16.3759 132.139 15.7379 131.935 15.2109 131.528C14.6839 131.117 14.2813 130.522 14.0028 129.743C13.7244 128.961 13.5852 128.016 13.5852 126.909C13.5852 125.809 13.7244 124.869 14.0028 124.09C14.2846 123.308 14.6889 122.711 15.2159 122.3C15.7462 121.886 16.3826 121.679 17.125 121.679C17.8674 121.679 18.5021 121.886 19.0291 122.3C19.5594 122.711 19.9638 123.308 20.2422 124.09C20.5239 124.869 20.6648 125.809 20.6648 126.909C20.6648 128.016 20.5256 128.961 20.2472 129.743C19.9688 130.522 19.5661 131.117 19.0391 131.528C18.5121 131.935 17.8741 132.139 17.125 132.139ZM17.125 131.045C17.8674 131.045 18.4441 130.687 18.8551 129.972C19.2661 129.256 19.4716 128.235 19.4716 126.909C19.4716 126.027 19.3771 125.277 19.1882 124.657C19.0026 124.037 18.7341 123.565 18.3828 123.24C18.0348 122.915 17.6155 122.753 17.125 122.753C16.3892 122.753 15.8142 123.116 15.3999 123.842C14.9856 124.564 14.7784 125.587 14.7784 126.909C14.7784 127.791 14.8712 128.54 15.0568 129.156C15.2424 129.773 15.5092 130.242 15.8572 130.563C16.2086 130.885 16.6312 131.045 17.125 131.045ZM25.875 132.139C25.1259 132.139 24.4879 131.935 23.9609 131.528C23.4339 131.117 23.0313 130.522 22.7528 129.743C22.4744 128.961 22.3352 128.016 22.3352 126.909C22.3352 125.809 22.4744 124.869 22.7528 124.09C23.0346 123.308 23.4389 122.711 23.9659 122.3C24.4962 121.886 25.1326 121.679 25.875 121.679C26.6174 121.679 27.2521 121.886 27.7791 122.3C28.3094 122.711 28.7138 123.308 28.9922 124.09C29.2739 124.869 29.4148 125.809 29.4148 126.909C29.4148 128.016 29.2756 128.961 28.9972 129.743C28.7188 130.522 28.3161 131.117 27.7891 131.528C27.2621 131.935 26.6241 132.139 25.875 132.139ZM25.875 131.045C26.6174 131.045 27.1941 130.687 27.6051 129.972C28.0161 129.256 28.2216 128.235 28.2216 126.909C28.2216 126.027 28.1271 125.277 27.9382 124.657C27.7526 124.037 27.4841 123.565 27.1328 123.24C26.7848 122.915 26.3655 122.753 25.875 122.753C25.1392 122.753 24.5642 123.116 24.1499 123.842C23.7356 124.564 23.5284 125.587 23.5284 126.909C23.5284 127.791 23.6212 128.54 23.8068 129.156C23.9924 129.773 24.2592 130.242 24.6072 130.563C24.9586 130.885 25.3812 131.045 25.875 131.045ZM34.625 132.139C33.8759 132.139 33.2379 131.935 32.7109 131.528C32.1839 131.117 31.7813 130.522 31.5028 129.743C31.2244 128.961 31.0852 128.016 31.0852 126.909C31.0852 125.809 31.2244 124.869 31.5028 124.09C31.7846 123.308 32.1889 122.711 32.7159 122.3C33.2462 121.886 33.8826 121.679 34.625 121.679C35.3674 121.679 36.0021 121.886 36.5291 122.3C37.0594 122.711 37.4638 123.308 37.7422 124.09C38.0239 124.869 38.1648 125.809 38.1648 126.909C38.1648 128.016 38.0256 128.961 37.7472 129.743C37.4688 130.522 37.0661 131.117 36.5391 131.528C36.0121 131.935 35.3741 132.139 34.625 132.139ZM34.625 131.045C35.3674 131.045 35.9441 130.687 36.3551 129.972C36.7661 129.256 36.9716 128.235 36.9716 126.909C36.9716 126.027 36.8771 125.277 36.6882 124.657C36.5026 124.037 36.2341 123.565 35.8828 123.24C35.5348 122.915 35.1155 122.753 34.625 122.753C33.8892 122.753 33.3142 123.116 32.8999 123.842C32.4856 124.564 32.2784 125.587 32.2784 126.909C32.2784 127.791 32.3712 128.54 32.5568 129.156C32.7424 129.773 33.0092 130.242 33.3572 130.563C33.7086 130.885 34.1312 131.045 34.625 131.045Z" fill="#303030" fill-opacity="0.5"/>
<path d="M1.62234 85V84.1051L4.98313 80.4261C5.37755 79.9953 5.70236 79.6207 5.95756 79.3026C6.21277 78.9811 6.40169 78.6795 6.52433 78.3977C6.65027 78.1127 6.71325 77.8144 6.71325 77.5028C6.71325 77.1449 6.62707 76.835 6.45472 76.5732C6.28569 76.3113 6.05368 76.1091 5.7587 75.9666C5.46372 75.8241 5.13228 75.7528 4.76438 75.7528C4.37328 75.7528 4.0319 75.834 3.74023 75.9964C3.45188 76.1555 3.22816 76.3793 3.06907 76.6676C2.91329 76.956 2.8354 77.294 2.8354 77.6818H1.66211C1.66211 77.0852 1.79966 76.5616 2.07475 76.1108C2.34985 75.66 2.72437 75.3087 3.19833 75.0568C3.6756 74.8049 4.21088 74.679 4.80415 74.679C5.40075 74.679 5.92939 74.8049 6.39009 75.0568C6.85079 75.3087 7.21206 75.6484 7.4739 76.076C7.73574 76.5036 7.86665 76.9792 7.86665 77.5028C7.86665 77.8774 7.79871 78.2436 7.66282 78.6016C7.53024 78.9562 7.29824 79.3523 6.9668 79.7898C6.63867 80.224 6.18294 80.7543 5.59961 81.3807L3.31268 83.8267V83.9062H8.04563V85H1.62234ZM17.2182 85.1392C16.6349 85.1392 16.1096 85.0232 15.6422 84.7912C15.1749 84.5592 14.8004 84.241 14.5186 83.8366C14.2369 83.4323 14.0828 82.9716 14.0563 82.4545H15.2495C15.2959 82.9152 15.5047 83.2964 15.8759 83.598C16.2504 83.8963 16.6979 84.0455 17.2182 84.0455C17.6358 84.0455 18.007 83.9477 18.3319 83.7521C18.66 83.5566 18.9168 83.2881 19.1025 82.9467C19.2914 82.602 19.3858 82.2126 19.3858 81.7784C19.3858 81.3343 19.2881 80.9382 19.0925 80.5902C18.9003 80.2389 18.6351 79.9621 18.2971 79.7599C17.959 79.5578 17.5729 79.455 17.1387 79.4517C16.8271 79.4484 16.5073 79.4964 16.1792 79.5959C15.851 79.692 15.5809 79.8163 15.3688 79.9688L14.2154 79.8295L14.8319 74.8182H20.1216V75.9119H15.8659L15.508 78.9148H15.5676C15.7765 78.7491 16.0383 78.6115 16.3532 78.5021C16.668 78.3928 16.9962 78.3381 17.3375 78.3381C17.9606 78.3381 18.5158 78.4872 19.003 78.7855C19.4935 79.0805 19.878 79.4848 20.1564 79.9986C20.4382 80.5123 20.579 81.099 20.579 81.7585C20.579 82.4081 20.4332 82.9882 20.1415 83.4986C19.8532 84.0057 19.4554 84.4067 18.9483 84.7017C18.4412 84.9934 17.8645 85.1392 17.2182 85.1392ZM25.875 85.1392C25.1259 85.1392 24.4879 84.9354 23.9609 84.5277C23.4339 84.1167 23.0313 83.5218 22.7528 82.7429C22.4744 81.9607 22.3352 81.0161 22.3352 79.9091C22.3352 78.8087 22.4744 77.8691 22.7528 77.0902C23.0346 76.308 23.4389 75.7114 23.9659 75.3004C24.4962 74.8861 25.1326 74.679 25.875 74.679C26.6174 74.679 27.2521 74.8861 27.7791 75.3004C28.3094 75.7114 28.7138 76.308 28.9922 77.0902C29.2739 77.8691 29.4148 78.8087 29.4148 79.9091C29.4148 81.0161 29.2756 81.9607 28.9972 82.7429C28.7188 83.5218 28.3161 84.1167 27.7891 84.5277C27.2621 84.9354 26.6241 85.1392 25.875 85.1392ZM25.875 84.0455C26.6174 84.0455 27.1941 83.6875 27.6051 82.9716C28.0161 82.2557 28.2216 81.2348 28.2216 79.9091C28.2216 79.0275 28.1271 78.2768 27.9382 77.657C27.7526 77.0372 27.4841 76.5649 27.1328 76.2401C26.7848 75.9152 26.3655 75.7528 25.875 75.7528C25.1392 75.7528 24.5642 76.1158 24.1499 76.8416C23.7356 77.5642 23.5284 78.5866 23.5284 79.9091C23.5284 80.7907 23.6212 81.5398 23.8068 82.1562C23.9924 82.7727 24.2592 83.2417 24.6072 83.5632C24.9586 83.8847 25.3812 84.0455 25.875 84.0455ZM34.625 85.1392C33.8759 85.1392 33.2379 84.9354 32.7109 84.5277C32.1839 84.1167 31.7813 83.5218 31.5028 82.7429C31.2244 81.9607 31.0852 81.0161 31.0852 79.9091C31.0852 78.8087 31.2244 77.8691 31.5028 77.0902C31.7846 76.308 32.1889 75.7114 32.7159 75.3004C33.2462 74.8861 33.8826 74.679 34.625 74.679C35.3674 74.679 36.0021 74.8861 36.5291 75.3004C37.0594 75.7114 37.4638 76.308 37.7422 77.0902C38.0239 77.8691 38.1648 78.8087 38.1648 79.9091C38.1648 81.0161 38.0256 81.9607 37.7472 82.7429C37.4688 83.5218 37.0661 84.1167 36.5391 84.5277C36.0121 84.9354 35.3741 85.1392 34.625 85.1392ZM34.625 84.0455C35.3674 84.0455 35.9441 83.6875 36.3551 82.9716C36.7661 82.2557 36.9716 81.2348 36.9716 79.9091C36.9716 79.0275 36.8771 78.2768 36.6882 77.657C36.5026 77.0372 36.2341 76.5649 35.8828 76.2401C35.5348 75.9152 35.1155 75.7528 34.625 75.7528C33.8892 75.7528 33.3142 76.1158 32.8999 76.8416C32.4856 77.5642 32.2784 78.5866 32.2784 79.9091C32.2784 80.7907 32.3712 81.5398 32.5568 82.1562C32.7424 82.7727 33.0092 83.2417 33.3572 83.5632C33.7086 83.8847 34.1312 84.0455 34.625 84.0455Z" fill="#303030" fill-opacity="0.5"/>
<path d="M8.33026 38.1392C7.67401 38.1392 7.08902 38.0265 6.57528 37.8011C6.06487 37.5758 5.65885 37.2625 5.35724 36.8615C5.05895 36.4571 4.89654 35.9882 4.87003 35.4545H6.12287C6.14938 35.7827 6.26207 36.0661 6.46094 36.3047C6.6598 36.54 6.91998 36.7223 7.24148 36.8516C7.56297 36.9808 7.91927 37.0455 8.31037 37.0455C8.74787 37.0455 9.13565 36.9692 9.47372 36.8168C9.81179 36.6643 10.0769 36.4522 10.2692 36.1804C10.4614 35.9086 10.5575 35.5938 10.5575 35.2358C10.5575 34.8613 10.4647 34.5315 10.2791 34.2464C10.0935 33.9581 9.82173 33.7327 9.46378 33.5703C9.10582 33.4079 8.66832 33.3267 8.15128 33.3267H7.33594V32.233H8.15128C8.55563 32.233 8.91027 32.16 9.2152 32.0142C9.52344 31.8684 9.76373 31.6629 9.93608 31.3977C10.1117 31.1326 10.1996 30.821 10.1996 30.4631C10.1996 30.1184 10.1233 29.8184 9.97088 29.5632C9.81842 29.308 9.60298 29.1091 9.32457 28.9666C9.04948 28.8241 8.72467 28.7528 8.35014 28.7528C7.99882 28.7528 7.66738 28.8175 7.35582 28.9467C7.04759 29.0727 6.79569 29.2566 6.60014 29.4986C6.40459 29.7372 6.29853 30.0256 6.28196 30.3636H5.08878C5.10866 29.83 5.26941 29.3627 5.57102 28.9616C5.87263 28.5573 6.26705 28.2424 6.75426 28.017C7.24479 27.7917 7.78338 27.679 8.37003 27.679C8.99976 27.679 9.54001 27.8066 9.99077 28.0618C10.4415 28.3137 10.7879 28.6468 11.0298 29.0611C11.2718 29.4754 11.3928 29.9228 11.3928 30.4034C11.3928 30.9768 11.242 31.4657 10.9403 31.87C10.642 32.2744 10.236 32.5545 9.7223 32.7102V32.7898C10.3653 32.8958 10.8674 33.1693 11.2287 33.6101C11.59 34.0476 11.7706 34.5895 11.7706 35.2358C11.7706 35.7893 11.6198 36.2865 11.3182 36.7273C11.0199 37.1648 10.6122 37.5095 10.0952 37.7614C9.57813 38.0133 8.98982 38.1392 8.33026 38.1392ZM17.125 38.1392C16.3759 38.1392 15.7379 37.9354 15.2109 37.5277C14.6839 37.1167 14.2813 36.5218 14.0028 35.7429C13.7244 34.9607 13.5852 34.0161 13.5852 32.9091C13.5852 31.8087 13.7244 30.8691 14.0028 30.0902C14.2846 29.308 14.6889 28.7114 15.2159 28.3004C15.7462 27.8861 16.3826 27.679 17.125 27.679C17.8674 27.679 18.5021 27.8861 19.0291 28.3004C19.5594 28.7114 19.9638 29.308 20.2422 30.0902C20.5239 30.8691 20.6648 31.8087 20.6648 32.9091C20.6648 34.0161 20.5256 34.9607 20.2472 35.7429C19.9688 36.5218 19.5661 37.1167 19.0391 37.5277C18.5121 37.9354 17.8741 38.1392 17.125 38.1392ZM17.125 37.0455C17.8674 37.0455 18.4441 36.6875 18.8551 35.9716C19.2661 35.2557 19.4716 34.2348 19.4716 32.9091C19.4716 32.0275 19.3771 31.2768 19.1882 30.657C19.0026 30.0372 18.7341 29.5649 18.3828 29.2401C18.0348 28.9152 17.6155 28.7528 17.125 28.7528C16.3892 28.7528 15.8142 29.1158 15.3999 29.8416C14.9856 30.5642 14.7784 31.5866 14.7784 32.9091C14.7784 33.7907 14.8712 34.5398 15.0568 35.1562C15.2424 35.7727 15.5092 36.2417 15.8572 36.5632C16.2086 36.8847 16.6312 37.0455 17.125 37.0455ZM25.875 38.1392C25.1259 38.1392 24.4879 37.9354 23.9609 37.5277C23.4339 37.1167 23.0313 36.5218 22.7528 35.7429C22.4744 34.9607 22.3352 34.0161 22.3352 32.9091C22.3352 31.8087 22.4744 30.8691 22.7528 30.0902C23.0346 29.308 23.4389 28.7114 23.9659 28.3004C24.4962 27.8861 25.1326 27.679 25.875 27.679C26.6174 27.679 27.2521 27.8861 27.7791 28.3004C28.3094 28.7114 28.7138 29.308 28.9922 30.0902C29.2739 30.8691 29.4148 31.8087 29.4148 32.9091C29.4148 34.0161 29.2756 34.9607 28.9972 35.7429C28.7188 36.5218 28.3161 37.1167 27.7891 37.5277C27.2621 37.9354 26.6241 38.1392 25.875 38.1392ZM25.875 37.0455C26.6174 37.0455 27.1941 36.6875 27.6051 35.9716C28.0161 35.2557 28.2216 34.2348 28.2216 32.9091C28.2216 32.0275 28.1271 31.2768 27.9382 30.657C27.7526 30.0372 27.4841 29.5649 27.1328 29.2401C26.7848 28.9152 26.3655 28.7528 25.875 28.7528C25.1392 28.7528 24.5642 29.1158 24.1499 29.8416C23.7356 30.5642 23.5284 31.5866 23.5284 32.9091C23.5284 33.7907 23.6212 34.5398 23.8068 35.1562C23.9924 35.7727 24.2592 36.2417 24.6072 36.5632C24.9586 36.8847 25.3812 37.0455 25.875 37.0455ZM34.625 38.1392C33.8759 38.1392 33.2379 37.9354 32.7109 37.5277C32.1839 37.1167 31.7813 36.5218 31.5028 35.7429C31.2244 34.9607 31.0852 34.0161 31.0852 32.9091C31.0852 31.8087 31.2244 30.8691 31.5028 30.0902C31.7846 29.308 32.1889 28.7114 32.7159 28.3004C33.2462 27.8861 33.8826 27.679 34.625 27.679C35.3674 27.679 36.0021 27.8861 36.5291 28.3004C37.0594 28.7114 37.4638 29.308 37.7422 30.0902C38.0239 30.8691 38.1648 31.8087 38.1648 32.9091C38.1648 34.0161 38.0256 34.9607 37.7472 35.7429C37.4688 36.5218 37.0661 37.1167 36.5391 37.5277C36.0121 37.9354 35.3741 38.1392 34.625 38.1392ZM34.625 37.0455C35.3674 37.0455 35.9441 36.6875 36.3551 35.9716C36.7661 35.2557 36.9716 34.2348 36.9716 32.9091C36.9716 32.0275 36.8771 31.2768 36.6882 30.657C36.5026 30.0372 36.2341 29.5649 35.8828 29.2401C35.5348 28.9152 35.1155 28.7528 34.625 28.7528C33.8892 28.7528 33.3142 29.1158 32.8999 29.8416C32.4856 30.5642 32.2784 31.5866 32.2784 32.9091C32.2784 33.7907 32.3712 34.5398 32.5568 35.1562C32.7424 35.7727 33.0092 36.2417 33.3572 36.5632C33.7086 36.8847 34.1312 37.0455 34.625 37.0455Z" fill="#303030" fill-opacity="0.5"/>
</svg>
