<svg width="22" height="19" viewBox="0 0 22 19" fill="none" xmlns="http://www.w3.org/2000/svg">
<path d="M0.643575 15.2012H17.4881C17.6392 15.2012 17.7852 15.1493 17.901 15.0546C18.0628 14.9215 21.7534 11.8016 21.9785 5.06707H3.88778C3.6636 11.1802 0.264702 14.0536 0.22938 14.0823C0.0223036 14.2542 -0.0538835 14.5351 0.0392771 14.7849C0.131793 15.0342 0.372902 15.2012 0.643575 15.2012ZM21.3554 1.26677H18.1326V0.633384C18.1326 0.278689 17.849 0 17.4881 0C17.1271 0 16.8435 0.278689 16.8435 0.633384V1.26677H13.5777V0.633384C13.5777 0.278689 13.2941 0 12.9332 0C12.5722 0 12.2886 0.278689 12.2886 0.633384V1.26677H9.0658V0.633384C9.0658 0.278689 8.78219 0 8.42124 0C8.06029 0 7.77668 0.278689 7.77668 0.633384V1.26677H4.55387C4.19292 1.26677 3.90931 1.54546 3.90931 1.90015V3.8003H22V1.90015C22 1.54546 21.7164 1.26677 21.3554 1.26677Z" fill="white"/>
<path d="M18.7257 16.0233C18.3757 16.3096 17.9363 16.4655 17.485 16.4655H3.90625V18.3657C3.90625 18.7158 4.19454 18.9991 4.55081 18.9991H21.3524C21.7087 18.9991 21.9969 18.7158 21.9969 18.3657V11.2656C20.7542 14.2616 19.0201 15.7811 18.7257 16.0233Z" fill="white"/>
</svg>
