<svg width="15" height="15" viewBox="0 0 15 15" fill="none" xmlns="http://www.w3.org/2000/svg">
  <g clip-path="url(#clip0_1681_15967)">
    <path
      d="M3.25 6.49609C3.1837 6.49612 3.12013 6.52246 3.07325 6.56934C3.02637 6.61622 3.00002 6.67979 3 6.74609V8.24612C3 8.38411 3.112 8.49612 3.25 8.49612C3.38799 8.49612 3.49999 8.38411 3.49999 8.24612V6.74609C3.50002 6.6081 3.38802 6.49609 3.25 6.49609Z"
      fill="black"/>
    <path
      d="M3.27707 0.0668309L0.913262 1.01261C0.247505 1.25912 0 1.59364 0 2.24689V12.7494C0 13.4026 0.247505 13.7371 0.907021 13.9817L3.28182 14.9317C3.39933 14.9762 3.51731 14.9987 3.63283 14.9987C4.13534 14.9987 4.5001 14.5787 4.5001 13.9999V0.99688C4.5001 0.285859 3.93307 -0.180147 3.27707 0.0668309ZM4.00008 13.9999C4.00008 14.2982 3.85256 14.4987 3.63283 14.4987C3.57807 14.4987 3.51907 14.4869 3.46282 14.4659L1.08703 13.5151C0.615277 13.3404 0.500021 13.1899 0.500021 12.7494V2.24689C0.500021 1.80637 0.615277 1.65613 1.09303 1.47912L3.45807 0.533101C3.51907 0.510102 3.57781 0.498354 3.63257 0.498354C3.85233 0.498354 4.00008 0.698602 4.00008 0.99688V13.9999ZM5.21885 1.49687H8.75017C9.16367 1.49687 9.50018 1.83338 9.50018 2.24689V5.99697C9.50017 6.0298 9.50663 6.06231 9.51919 6.09265C9.53175 6.12299 9.55016 6.15055 9.57338 6.17377C9.5966 6.19698 9.62416 6.2154 9.6545 6.22796C9.68483 6.24052 9.71735 6.24698 9.75018 6.24696C9.78301 6.24698 9.81553 6.24052 9.84586 6.22796C9.8762 6.2154 9.90376 6.19698 9.92698 6.17377C9.9502 6.15055 9.96861 6.12299 9.98117 6.09265C9.99373 6.06231 10.0002 6.0298 10.0002 5.99697V2.24689C10.0002 1.55763 9.43942 0.996851 8.75014 0.996851H5.21885C5.08086 0.996851 4.96886 1.10886 4.96886 1.24685C4.96886 1.38484 5.08086 1.49687 5.21885 1.49687ZM9.75021 8.74704C9.71738 8.74703 9.68486 8.75348 9.65453 8.76604C9.62419 8.7786 9.59663 8.79702 9.57341 8.82023C9.55019 8.84345 9.53178 8.87101 9.51922 8.90135C9.50666 8.93169 9.5002 8.9642 9.50021 8.99703V12.7471C9.50021 13.1606 9.1637 13.4971 8.7502 13.4971H5.25011C5.11212 13.4971 5.00012 13.6091 5.00012 13.7471C5.00012 13.8851 5.11212 13.9971 5.25011 13.9971H8.7502C9.43945 13.9971 10.0002 13.4364 10.0002 12.7471V8.997C10.0002 8.96417 9.99377 8.93166 9.9812 8.90133C9.96864 8.871 9.95022 8.84344 9.927 8.82023C9.90378 8.79702 9.87622 8.77861 9.84589 8.76605C9.81555 8.75349 9.78304 8.74703 9.75021 8.74704Z"
      fill="black"/>
    <path
      d="M14.9809 7.40094C14.9684 7.37046 14.95 7.34276 14.9267 7.31944L12.4269 4.81939C12.4037 4.79616 12.3761 4.77772 12.3458 4.76514C12.3155 4.75257 12.2829 4.74609 12.2501 4.74609C12.2173 4.74609 12.1848 4.75257 12.1544 4.76514C12.1241 4.77772 12.0966 4.79616 12.0734 4.81939C12.0501 4.84259 12.0317 4.87014 12.0191 4.90046C12.0065 4.93079 12 4.96331 12 4.99614C12 5.02898 12.0065 5.06149 12.0191 5.09182C12.0317 5.12215 12.0501 5.1497 12.0734 5.1729L14.1467 7.24643H5.75C5.6837 7.24645 5.62013 7.2728 5.57325 7.31967C5.52637 7.36655 5.50002 7.43013 5.5 7.49642C5.50002 7.56272 5.52637 7.62629 5.57325 7.67317C5.62013 7.72005 5.6837 7.74639 5.75 7.74642H14.1467L12.0734 9.81974C12.0501 9.84294 12.0317 9.87049 12.0191 9.90082C12.0065 9.93115 12 9.96366 12 9.99649C12 10.0293 12.0065 10.0618 12.0191 10.0922C12.0317 10.1225 12.0501 10.1501 12.0734 10.1732C12.0966 10.1965 12.1241 10.2149 12.1544 10.2275C12.1848 10.2401 12.2173 10.2465 12.2501 10.2465C12.2829 10.2465 12.3155 10.2401 12.3458 10.2275C12.3761 10.2149 12.4037 10.1965 12.4269 10.1732L14.9267 7.67344C14.95 7.65011 14.9684 7.62241 14.9809 7.59193C15.0062 7.53077 15.0062 7.4621 14.9809 7.40094Z"
      fill="black"/>
  </g>
  <defs>
    <clipPath id="clip0_1681_15967">
      <rect width="15" height="15" fill="white"/>
    </clipPath>
  </defs>
</svg>
