<svg width="15" height="15" viewBox="0 0 15 15" fill="none" xmlns="http://www.w3.org/2000/svg">
  <path
    d="M11.2364 5.78752C11.686 5.53192 12.0385 5.13478 12.2388 4.65799C12.4392 4.18119 12.4762 3.65151 12.3442 3.15148C12.2121 2.65144 11.9183 2.20913 11.5087 1.89346C11.099 1.57779 10.5964 1.40649 10.0792 1.40625C9.56204 1.40601 9.0593 1.57684 8.64933 1.89212C8.23936 2.20741 7.94519 2.64945 7.81265 3.14936C7.68011 3.64927 7.71664 4.17898 7.91655 4.65597C8.11647 5.13295 8.46854 5.53042 8.91791 5.78643C8.15382 6.00429 7.46771 6.44034 6.91544 7.067C6.65042 6.9227 6.37031 6.80801 6.08019 6.72502C6.52988 6.46937 6.88236 6.07214 7.0827 5.59524C7.28305 5.11833 7.31999 4.58854 7.18777 4.08845C7.05556 3.58835 6.76162 3.14604 6.35176 2.83046C5.9419 2.51488 5.43915 2.34375 4.92188 2.34375C4.4046 2.34375 3.90185 2.51488 3.49199 2.83046C3.08213 3.14604 2.78819 3.58835 2.65598 4.08845C2.52376 4.58854 2.5607 5.11833 2.76105 5.59524C2.96139 6.07214 3.31387 6.46937 3.76356 6.72502C2.9885 6.94945 2.29421 7.39179 1.76329 7.99943C0.928477 8.9425 0.46875 10.2638 0.46875 11.7201C0.468752 11.7619 0.47993 11.803 0.501128 11.839C0.522325 11.875 0.55277 11.9047 0.589307 11.925C0.677607 11.9741 2.77644 13.1264 4.92188 13.1264C6.74297 13.1264 8.30956 12.4258 8.95312 12.0918C9.32489 12.1544 9.70112 12.1869 10.0781 12.1889C12.4183 12.1889 14.3385 11.0319 14.4191 10.9826C14.4533 10.9617 14.4816 10.9323 14.5013 10.8973C14.5209 10.8623 14.5312 10.8228 14.5312 10.7826C14.5312 9.32635 14.0715 8.005 13.2367 7.06193C12.7058 6.45429 12.0115 6.01195 11.2364 5.78752ZM8.20312 3.75139C8.20312 3.38055 8.31309 3.01803 8.51912 2.70969C8.72515 2.40135 9.01798 2.16103 9.36059 2.01911C9.70321 1.8772 10.0802 1.84007 10.4439 1.91241C10.8076 1.98476 11.1417 2.16334 11.4039 2.42556C11.6662 2.68778 11.8448 3.02188 11.9171 3.38559C11.9894 3.74931 11.9523 4.12631 11.8104 4.46892C11.6685 4.81153 11.4282 5.10436 11.1198 5.31039C10.8115 5.51642 10.449 5.62639 10.0781 5.62639C9.58102 5.62583 9.10443 5.4281 8.75292 5.07659C8.40141 4.72508 8.20368 4.2485 8.20312 3.75139ZM3.04688 4.68889C3.04688 4.31805 3.15684 3.95553 3.36287 3.64719C3.5689 3.33885 3.86173 3.09853 4.20434 2.95661C4.54696 2.8147 4.92395 2.77757 5.28767 2.84991C5.65138 2.92226 5.98548 3.10084 6.2477 3.36306C6.50992 3.62528 6.6885 3.95938 6.76085 4.32309C6.83319 4.68681 6.79606 5.06381 6.65415 5.40642C6.51224 5.74903 6.27191 6.04186 5.96357 6.24789C5.65523 6.45392 5.29272 6.56389 4.92188 6.56389C4.42477 6.56333 3.94818 6.3656 3.59667 6.01409C3.24516 5.66258 3.04743 5.186 3.04688 4.68889ZM4.92188 12.6576C3.18214 12.6576 1.41211 11.8201 0.939053 11.5792C0.967295 10.2938 1.38208 9.13729 2.11427 8.31024C2.84361 7.48636 3.84082 7.03264 4.92188 7.03264C6.00293 7.03264 7.00014 7.48636 7.72948 8.31024C8.46272 9.1385 8.87766 10.2971 8.90481 11.5848C8.46636 11.8259 6.81633 12.6576 4.92188 12.6576ZM10.0781 11.7201C9.843 11.7195 9.6081 11.7054 9.37459 11.6779C9.3658 10.2383 8.90716 8.93336 8.08046 7.99955C7.85449 7.74348 7.59932 7.51476 7.32015 7.31805C8.04492 6.52753 9.01465 6.09514 10.0781 6.09514C11.1592 6.09514 12.1564 6.54886 12.8857 7.37274C13.619 8.20105 14.0339 9.35972 14.0611 10.6475C13.6234 10.8887 11.9768 11.7201 10.0781 11.7201Z"
    fill="currentColor"/>
</svg>
