<svg width="24" height="24" viewBox="0 0 24 24" fill="none" xmlns="http://www.w3.org/2000/svg">
  <path
    d="M19.5971 11.5243L19.596 11.5232L13.4766 5.40468C13.2157 5.1437 12.869 5 12.5001 5C12.1312 5 11.7844 5.14361 11.5235 5.40456L5.40722 11.52C5.40517 11.5221 5.40312 11.5242 5.40106 11.5263C4.8654 12.065 4.86634 12.939 5.4037 13.4763C5.64918 13.7219 5.97344 13.8641 6.32011 13.879C6.33418 13.8804 6.34839 13.881 6.36269 13.881H6.60658V18.384C6.60658 19.275 7.33163 20 8.22299 20H10.6171C10.8597 20 11.0566 19.8033 11.0566 19.5605V16.0303C11.0566 15.6237 11.3874 15.2929 11.794 15.2929H13.2061C13.6128 15.2929 13.9436 15.6237 13.9436 16.0303V19.5605C13.9436 19.8033 14.1403 20 14.3831 20H16.7772C17.6685 20 18.3936 19.275 18.3936 18.384V13.8811H18.6198C18.9885 13.8811 19.3353 13.7374 19.5964 13.4765C20.1343 12.9383 20.1345 12.0628 19.5971 11.5243Z"
    fill="black"/>
</svg>
