<svg width="127" height="48" viewBox="0 0 127 48" fill="none" xmlns="http://www.w3.org/2000/svg">
  <path
    d="M16.5725 37.4275C13.4075 37.4275 10.6475 36.8125 8.2925 35.5825C5.9525 34.3525 4.13 32.4775 2.825 29.9575C1.535 27.4225 0.89 24.22 0.89 20.35C0.89 16.48 1.535 13.285 2.825 10.765C4.13 8.23 5.9525 6.3475 8.2925 5.1175C10.6475 3.8875 13.4075 3.2725 16.5725 3.2725C19.7375 3.2725 22.49 3.895 24.83 5.14C27.185 6.37 29.0075 8.2525 30.2975 10.7875C31.6025 13.3075 32.255 16.495 32.255 20.35C32.255 24.205 31.6025 27.4 30.2975 29.935C29.0075 32.455 27.185 34.3375 24.83 35.5825C22.475 36.8125 19.7225 37.4275 16.5725 37.4275ZM16.5725 31.5325C18.2825 31.5325 19.745 31.165 20.96 30.43C22.19 29.68 23.1275 28.495 23.7725 26.875C24.4325 25.255 24.7625 23.1325 24.7625 20.5075C24.7625 17.7775 24.4325 15.5875 23.7725 13.9375C23.1125 12.2725 22.1675 11.065 20.9375 10.315C19.7225 9.55 18.2675 9.1675 16.5725 9.1675C14.8775 9.1675 13.415 9.535 12.185 10.27C10.97 11.005 10.0325 12.1825 9.3725 13.8025C8.7125 15.4225 8.3825 17.5525 8.3825 20.1925C8.3825 22.9375 8.705 25.1425 9.35 26.8075C10.01 28.4575 10.9475 29.6575 12.1625 30.4075C13.3925 31.1575 14.8625 31.5325 16.5725 31.5325ZM53.6188 37L44.9113 24.355L52.9888 12.385H60.6388L52.1788 25.165V23.275L61.4263 37H53.6188ZM43.3813 27.235V21.4975H47.4538V27.235H43.3813ZM36.8338 37V0.639999H43.9888V37H36.8338ZM63.3767 37V12.385H70.5542V37H63.3767ZM66.9542 8.8075C65.4542 8.8075 64.3367 8.4775 63.6017 7.8175C62.8817 7.1575 62.5217 6.2425 62.5217 5.0725C62.5217 3.8725 62.8817 2.95 63.6017 2.305C64.3367 1.645 65.4542 1.315 66.9542 1.315C68.4692 1.315 69.5867 1.645 70.3067 2.305C71.0267 2.95 71.3867 3.8725 71.3867 5.0725C71.3867 6.2425 71.0267 7.1575 70.3067 7.8175C69.5867 8.4775 68.4692 8.8075 66.9542 8.8075ZM84.7436 47.35C83.4386 47.35 82.0736 47.2675 80.6486 47.1025C79.2236 46.9525 77.8436 46.6975 76.5086 46.3375V40.735C77.8886 41.11 79.2311 41.3875 80.5361 41.5675C81.8411 41.7475 83.0561 41.8375 84.1811 41.8375C86.5811 41.8375 88.3211 41.3875 89.4011 40.4875C90.4961 39.5875 91.0436 38.0875 91.0436 35.9875V34.3675H90.7061C90.0011 35.2375 89.1086 35.92 88.0286 36.415C86.9636 36.91 85.7336 37.1575 84.3386 37.1575C82.6586 37.1575 81.0911 36.7375 79.6361 35.8975C78.1811 35.0425 77.0036 33.7375 76.1036 31.9825C75.2186 30.2125 74.7761 27.9475 74.7761 25.1875C74.7761 20.9425 75.9311 17.6875 78.2411 15.4225C80.5511 13.1425 84.0536 12.0025 88.7486 12.0025C89.7986 12.0025 90.8786 12.055 91.9886 12.16C93.1136 12.265 94.2086 12.4225 95.2736 12.6325C96.3386 12.8275 97.3211 13.075 98.2211 13.375V34.6825C98.2211 39.1375 97.1111 42.3625 94.8911 44.3575C92.6711 46.3525 89.2886 47.35 84.7436 47.35ZM87.0611 31.33C87.7811 31.33 88.4936 31.21 89.1986 30.97C89.9036 30.715 90.5186 30.34 91.0436 29.845V17.74C90.6536 17.65 90.2036 17.575 89.6936 17.515C89.1986 17.455 88.6736 17.425 88.1186 17.425C86.1386 17.425 84.6236 17.98 83.5736 19.09C82.5236 20.185 81.9986 22.015 81.9986 24.58C81.9986 26.32 82.2086 27.685 82.6286 28.675C83.0486 29.65 83.6336 30.34 84.3836 30.745C85.1486 31.135 86.0411 31.33 87.0611 31.33ZM114.454 37.4725C111.994 37.4725 109.864 37.0075 108.064 36.0775C106.279 35.1325 104.899 33.7225 103.924 31.8475C102.949 29.9575 102.462 27.595 102.462 24.76C102.462 21.895 102.934 19.5175 103.879 17.6275C104.839 15.7375 106.212 14.3275 107.997 13.3975C109.797 12.4675 111.949 12.0025 114.454 12.0025C116.959 12.0025 119.104 12.475 120.889 13.42C122.689 14.35 124.062 15.76 125.007 17.65C125.967 19.525 126.447 21.88 126.447 24.715C126.447 27.565 125.959 29.935 124.984 31.825C124.009 33.715 122.622 35.1325 120.822 36.0775C119.037 37.0075 116.914 37.4725 114.454 37.4725ZM114.454 32.0275C115.459 32.0275 116.314 31.81 117.019 31.375C117.739 30.94 118.287 30.1975 118.662 29.1475C119.037 28.0825 119.224 26.6275 119.224 24.7825C119.224 22.8925 119.037 21.415 118.662 20.35C118.287 19.285 117.739 18.535 117.019 18.1C116.314 17.65 115.459 17.425 114.454 17.425C113.449 17.425 112.587 17.6425 111.867 18.0775C111.162 18.5125 110.622 19.2625 110.247 20.3275C109.872 21.3775 109.684 22.8325 109.684 24.6925C109.684 26.5825 109.872 28.06 110.247 29.125C110.622 30.19 111.162 30.94 111.867 31.375C112.587 31.81 113.449 32.0275 114.454 32.0275Z"
    fill="currentColor"/>
</svg>
