<svg width="24" height="24" viewBox="0 0 24 24" fill="none" xmlns="http://www.w3.org/2000/svg">
<path d="M11.9093 12.2255C12.8611 12.2255 13.6853 11.8695 14.3588 11.167C15.0322 10.4647 15.3736 9.6054 15.3736 8.61266C15.3736 7.6202 15.0322 6.76079 14.3587 6.05822C13.6851 5.35601 12.861 5 11.9093 5C10.9573 5 10.1333 5.35601 9.45984 6.05834C8.78642 6.76067 8.4449 7.62012 8.4449 8.61266C8.4449 9.6054 8.78639 10.4648 9.45996 11.1672C10.1335 11.8694 10.9576 12.2255 11.9093 12.2255ZM17.9709 16.5342C17.9515 16.2419 17.9122 15.923 17.8544 15.5864C17.796 15.2472 17.7208 14.9265 17.6308 14.6334C17.5379 14.3305 17.4115 14.0314 17.2552 13.7447C17.093 13.4472 16.9025 13.1881 16.6888 12.9749C16.4652 12.7518 16.1916 12.5725 15.8751 12.4417C15.5597 12.3116 15.2102 12.2457 14.8363 12.2457C14.6895 12.2457 14.5475 12.3085 14.2733 12.4947C14.0783 12.6271 13.8828 12.7585 13.6867 12.889C13.4983 13.0142 13.2431 13.1315 12.9278 13.2377C12.6202 13.3415 12.3079 13.3942 11.9997 13.3942C11.6914 13.3942 11.3792 13.3415 11.0713 13.2377C10.7564 13.1316 10.5011 13.0144 10.3129 12.8891C10.0946 12.7437 9.89716 12.6109 9.72585 12.4946C9.45195 12.3084 9.30983 12.2455 9.16302 12.2455C8.78903 12.2455 8.43965 12.3116 8.12437 12.4418C7.8081 12.5724 7.53432 12.7517 7.31056 12.975C7.09692 13.1883 6.90631 13.4472 6.74433 13.7447C6.5882 14.0314 6.46178 14.3304 6.36871 14.6336C6.27882 14.9266 6.20367 15.2472 6.1453 15.5864C6.08745 15.9226 6.04818 16.2416 6.02874 16.5345C6.0094 16.8293 5.99982 17.1248 6 17.4203C6 18.2033 6.23867 18.8372 6.70933 19.3046C7.17417 19.766 7.78923 20 8.53718 20H15.4628C16.2108 20 16.8256 19.7661 17.2906 19.3047C17.7613 18.8375 18 18.2035 18 17.4202C17.9999 17.1179 17.9901 16.8198 17.9709 16.5342Z" fill="#303030"/>
</svg>
