<svg width="24" height="24" viewBox="0 0 24 24" fill="none" xmlns="http://www.w3.org/2000/svg">
<path fill-rule="evenodd" clip-rule="evenodd" d="M19 16.5V6.5C19 6.36739 18.9473 6.24022 18.8536 6.14645C18.7598 6.05268 18.6326 6 18.5 6H3.5C3.36739 6 3.24021 6.05268 3.14645 6.14645C3.05268 6.24022 3 6.36739 3 6.5V16.5C3 16.6326 3.05268 16.7598 3.14645 16.8536C3.24021 16.9473 3.36739 17 3.5 17H18.5C18.6326 17 18.7598 16.9473 18.8536 16.8536C18.9473 16.7598 19 16.6326 19 16.5ZM20 6.5V16.5C20 16.8978 19.842 17.2794 19.5607 17.5607C19.2794 17.842 18.8978 18 18.5 18H3.5C3.10218 18 2.72064 17.842 2.43934 17.5607C2.15804 17.2794 2 16.8978 2 16.5V6.5C2 6.10218 2.15804 5.72064 2.43934 5.43934C2.72064 5.15804 3.10218 5 3.5 5H18.5C18.8978 5 19.2794 5.15804 19.5607 5.43934C19.842 5.72064 20 6.10218 20 6.5Z" fill="black"/>
<path fill-rule="evenodd" clip-rule="evenodd" d="M21 18.5V8.5C21 8.36739 20.9473 8.24021 20.8536 8.14645C20.7598 8.05268 20.6326 8 20.5 8H19.5C19.3674 8 19.2402 7.94732 19.1464 7.85355C19.0527 7.75979 19 7.63261 19 7.5C19 7.36739 19.0527 7.24021 19.1464 7.14645C19.2402 7.05268 19.3674 7 19.5 7H20.5C20.8978 7 21.2794 7.15804 21.5607 7.43934C21.842 7.72064 22 8.10218 22 8.5V18.5C22 18.8978 21.842 19.2794 21.5607 19.5607C21.2794 19.842 20.8978 20 20.5 20H5.5C5.10218 20 4.72064 19.842 4.43934 19.5607C4.15804 19.2794 4 18.8978 4 18.5V17.5C4 17.3674 4.05268 17.2402 4.14645 17.1464C4.24021 17.0527 4.36739 17 4.5 17C4.63261 17 4.75979 17.0527 4.85355 17.1464C4.94732 17.2402 5 17.3674 5 17.5V18.5C5 18.6326 5.05268 18.7598 5.14645 18.8536C5.24021 18.9473 5.36739 19 5.5 19H20.5C20.6326 19 20.7598 18.9473 20.8536 18.8536C20.9473 18.7598 21 18.6326 21 18.5Z" fill="black"/>
<path fill-rule="evenodd" clip-rule="evenodd" d="M7.41091 11.034C7.31214 10.9466 7.18284 10.9018 7.05117 10.9093C6.9195 10.9168 6.79612 10.976 6.70791 11.074L2.87291 15.334L2.12891 14.666L5.96491 10.404C6.23004 10.1097 6.6008 9.93228 6.99629 9.91036C7.39178 9.88844 7.77988 10.0238 8.07591 10.287L11.2559 13.113C11.3385 13.1867 11.4432 13.2308 11.5536 13.2386C11.664 13.2464 11.7738 13.2173 11.8659 13.156L13.6969 11.935C13.9332 11.7775 14.2094 11.6902 14.4934 11.6835C14.7774 11.6768 15.0574 11.7508 15.3009 11.897L19.7579 14.571L19.2439 15.429L14.7859 12.754C14.7048 12.7055 14.6115 12.6809 14.517 12.6832C14.4225 12.6855 14.3306 12.7146 14.2519 12.767L12.4209 13.987C12.145 14.1712 11.8159 14.2587 11.4849 14.2359C11.154 14.2131 10.8399 14.0813 10.5919 13.861L7.41091 11.034ZM13.0009 10C13.2661 10 13.5205 9.89464 13.708 9.70711C13.8955 9.51957 14.0009 9.26522 14.0009 9C14.0009 8.73478 13.8955 8.48043 13.708 8.29289C13.5205 8.10536 13.2661 8 13.0009 8C12.7357 8 12.4813 8.10536 12.2938 8.29289C12.1063 8.48043 12.0009 8.73478 12.0009 9C12.0009 9.26522 12.1063 9.51957 12.2938 9.70711C12.4813 9.89464 12.7357 10 13.0009 10ZM13.0009 11C13.5313 11 14.04 10.7893 14.4151 10.4142C14.7902 10.0391 15.0009 9.53043 15.0009 9C15.0009 8.46957 14.7902 7.96086 14.4151 7.58579C14.04 7.21071 13.5313 7 13.0009 7C12.4705 7 11.9618 7.21071 11.5867 7.58579C11.2116 7.96086 11.0009 8.46957 11.0009 9C11.0009 9.53043 11.2116 10.0391 11.5867 10.4142C11.9618 10.7893 12.4705 11 13.0009 11Z" fill="black"/>
</svg>
