<svg width="12" height="12" viewBox="0 0 12 12" fill="none" xmlns="http://www.w3.org/2000/svg">
<path d="M6.03163 1C5.50654 1 4.99324 1.15491 4.55664 1.44514C4.12004 1.73536 3.77975 2.14787 3.5788 2.6305C3.37786 3.11313 3.32528 3.64421 3.42772 4.15656C3.53016 4.66892 3.78302 5.13955 4.15432 5.50894C4.52562 5.87833 4.99868 6.12988 5.51368 6.2318C6.02869 6.33371 6.5625 6.28141 7.04762 6.0815C7.53275 5.88158 7.94739 5.54304 8.23912 5.10869C8.53084 4.67433 8.68655 4.16367 8.68655 3.64128C8.68672 3.29437 8.61817 2.95083 8.48481 2.6303C8.35145 2.30977 8.1559 2.01853 7.90933 1.77323C7.66276 1.52793 7.37002 1.33338 7.04783 1.20071C6.72564 1.06803 6.38033 0.999828 6.03163 1ZM6.03163 4.95799C5.76986 4.95799 5.51398 4.88076 5.29633 4.73608C5.07868 4.5914 4.90904 4.38576 4.80886 4.14516C4.70869 3.90456 4.68248 3.63981 4.73355 3.3844C4.78462 3.12898 4.91067 2.89437 5.09577 2.71022C5.28086 2.52607 5.51669 2.40067 5.77343 2.34986C6.03016 2.29906 6.29628 2.32513 6.53812 2.42479C6.77996 2.52445 6.98666 2.69322 7.13209 2.90975C7.27752 3.12628 7.35514 3.38085 7.35514 3.64128C7.35532 3.81424 7.3212 3.98553 7.25475 4.14536C7.1883 4.30519 7.09082 4.45041 6.96788 4.57271C6.84495 4.69502 6.69898 4.792 6.53832 4.85811C6.37767 4.92422 6.20549 4.95816 6.03163 4.95799Z" fill="white"/>
<path d="M9.94396 6.74028C9.88615 6.63759 9.80856 6.54725 9.71563 6.47443C9.62269 6.40161 9.51624 6.34773 9.40235 6.31588C9.28847 6.28403 9.16939 6.27483 9.05192 6.28881C8.93446 6.30279 8.82092 6.33968 8.7178 6.39736C6.91014 7.40518 5.15247 7.40518 3.34481 6.39736C3.24115 6.33977 3.1271 6.30307 3.00918 6.28934C2.89126 6.27561 2.77178 6.28512 2.65755 6.31733C2.54333 6.34953 2.43659 6.40381 2.34345 6.47705C2.25031 6.5503 2.17258 6.64107 2.1147 6.7442C2.05683 6.84733 2.01993 6.96079 2.00613 7.07811C1.99233 7.19542 2.00189 7.31429 2.03426 7.42793C2.09964 7.65743 2.25399 7.8517 2.46334 7.96798C3.05637 8.30281 3.68991 8.561 4.34863 8.73628L3.06984 10.0085C2.90186 10.1756 2.80748 10.4023 2.80748 10.6387C2.80748 10.8751 2.90186 11.1018 3.06984 11.2689C3.23786 11.436 3.46572 11.5299 3.70332 11.5299C3.94091 11.5299 4.16877 11.436 4.33679 11.2689L6.03131 9.57657L7.72582 11.2624C7.89384 11.4295 8.1217 11.5234 8.3593 11.5234C8.59689 11.5234 8.82475 11.4295 8.99277 11.2624C9.16076 11.0952 9.25513 10.8685 9.25513 10.6322C9.25513 10.3958 9.16076 10.1691 8.99277 10.0019L7.71398 8.72974C8.3727 8.55445 9.00624 8.29627 9.59927 7.96144C9.70266 7.90393 9.79362 7.82668 9.86693 7.73412C9.94024 7.64157 9.99446 7.53552 10.0265 7.42206C10.0585 7.30861 10.0677 7.18998 10.0535 7.07298C10.0394 6.95599 10.0021 6.84292 9.94396 6.74028Z" fill="white"/>
</svg>
