<svg width="15" height="15" viewBox="0 0 15 15" fill="none" xmlns="http://www.w3.org/2000/svg">
  <path
    d="M13.1754 4.0978L6.78176 1.71537C6.43954 1.58804 6.06077 1.6018 5.72869 1.75362C5.39662 1.90544 5.13841 2.1829 5.01082 2.52502L4.69934 3.36057L4.32844 3.30772C3.96695 3.25636 3.59987 3.35063 3.30786 3.5698C3.01585 3.78897 2.8228 4.11511 2.77113 4.47655L2.62863 5.47358H2.30273C1.93767 5.47398 1.58767 5.61918 1.32953 5.87732C1.07139 6.13546 0.926184 6.48546 0.925781 6.85053V11.9951C0.926184 12.3601 1.07139 12.7101 1.32953 12.9683C1.58767 13.2264 1.93767 13.3716 2.30273 13.372H9.12504C9.4783 13.3715 9.81784 13.2352 10.0735 12.9914C10.3291 12.7476 10.4814 12.4149 10.4987 12.0621C10.8146 11.983 11.0919 11.7937 11.2807 11.5284C11.4872 11.4696 11.6769 11.363 11.8346 11.2173C11.9923 11.0716 12.1136 10.8909 12.1886 10.6897L13.985 5.86873C14.1121 5.5265 14.0982 5.14785 13.9464 4.81585C13.7946 4.48385 13.5173 4.22562 13.1754 4.0978ZM2.30273 5.88373H9.12504C9.38136 5.88401 9.62711 5.98596 9.80836 6.16721C9.98961 6.34846 10.0916 6.59421 10.0918 6.85053V9.06784L6.53426 11.0116L4.02738 9.0287C3.99196 9.00063 3.94825 8.98507 3.90306 8.98443C3.85787 8.9838 3.81374 8.99812 3.77754 9.02518L1.33594 10.8478V6.851C1.33609 6.59459 1.43799 6.34873 1.61925 6.16738C1.80051 5.98603 2.04633 5.88401 2.30273 5.88373ZM9.12504 12.9619H2.30273C2.04641 12.9616 1.80066 12.8596 1.61941 12.6784C1.43816 12.4971 1.33622 12.2514 1.33594 11.9951V11.3596L3.8966 9.44811L6.38625 11.4176C6.41783 11.4425 6.45606 11.4576 6.49617 11.461C6.53628 11.4644 6.57651 11.456 6.61184 11.4367L10.0923 9.53518V11.9961C10.092 12.2525 9.99001 12.4983 9.80866 12.6796C9.62731 12.8609 9.38144 12.9628 9.12504 12.9629V12.9619ZM10.502 11.6305V6.851C10.5017 6.48586 10.3565 6.13576 10.0984 5.87752C9.84023 5.61929 9.49018 5.47401 9.12504 5.47358H3.04301L3.1773 4.5342C3.21373 4.2805 3.3493 4.0516 3.55427 3.89771C3.75923 3.74382 4.01687 3.6775 4.27066 3.7133L4.80188 3.78889H4.80352L11.0254 4.67518C11.2788 4.71216 11.5073 4.8479 11.661 5.05277C11.8147 5.25764 11.8811 5.515 11.8457 5.76866L11.1203 10.8621C11.1013 10.997 11.0538 11.1264 10.9811 11.2417C10.8677 11.42 10.6996 11.5568 10.502 11.6315V11.6305ZM13.6007 5.72424L11.8042 10.5463C11.7461 10.702 11.6487 10.84 11.5215 10.9471C11.523 10.9384 11.5254 10.9299 11.5267 10.9212L12.2522 5.82678C12.3027 5.46544 12.208 5.09881 11.989 4.80705C11.7699 4.51529 11.4442 4.32214 11.0831 4.26983L5.115 3.41975L5.3952 2.66834C5.48476 2.42816 5.66602 2.23335 5.89914 2.12674C6.13226 2.02012 6.39817 2.01041 6.63844 2.09975L13.0321 4.48217C13.2721 4.57189 13.4668 4.75317 13.5734 4.98623C13.68 5.2193 13.6898 5.48513 13.6007 5.72541V5.72424Z"
    fill="black"/>
  <path
    d="M6.51238 9.25914C6.72651 9.25914 6.93584 9.19565 7.11388 9.07668C7.29193 8.95772 7.4307 8.78863 7.51265 8.5908C7.5946 8.39297 7.61605 8.17528 7.57428 7.96527C7.53252 7.75525 7.42941 7.56233 7.27801 7.41091C7.1266 7.25948 6.93369 7.15636 6.72368 7.11457C6.51366 7.07278 6.29597 7.0942 6.09813 7.17613C5.9003 7.25806 5.73119 7.39681 5.61221 7.57485C5.49323 7.75288 5.42971 7.9622 5.42969 8.17633C5.42997 8.4634 5.54412 8.73864 5.7471 8.94164C5.95008 9.14465 6.22531 9.25883 6.51238 9.25914ZM6.51238 7.50391C6.6454 7.50391 6.77544 7.54335 6.88604 7.61726C6.99664 7.69116 7.08284 7.79621 7.13374 7.9191C7.18464 8.042 7.19795 8.17723 7.17199 8.30769C7.14603 8.43816 7.08197 8.55799 6.9879 8.65204C6.89383 8.7461 6.77398 8.81014 6.64352 8.83608C6.51305 8.86201 6.37782 8.84868 6.25493 8.79776C6.13204 8.74684 6.02702 8.66062 5.95313 8.55C5.87924 8.43939 5.83982 8.30935 5.83984 8.17633C5.83987 7.99793 5.91073 7.82683 6.03683 7.70064C6.16294 7.57445 6.33398 7.50348 6.51238 7.50332V7.50391Z"
    fill="black"/>
</svg>
