<svg width="15" height="15" viewBox="0 0 15 15" fill="none" xmlns="http://www.w3.org/2000/svg">
  <g clip-path="url(#clip0_1681_15952)">
    <path
      d="M7.50085 14.5954C6.09767 14.5954 4.726 14.1794 3.5593 13.3998C2.3926 12.6202 1.48327 11.5122 0.946297 10.2158C0.409324 8.91946 0.268827 7.49298 0.542574 6.11676C0.81632 4.74054 1.49202 3.47641 2.48421 2.48421C3.47641 1.49202 4.74054 0.81632 6.11676 0.542574C7.49298 0.268827 8.91946 0.409324 10.2158 0.946297C11.5122 1.48327 12.6202 2.3926 13.3998 3.5593C14.1794 4.726 14.5954 6.09767 14.5954 7.50085C14.5933 9.38179 13.8451 11.1851 12.5151 12.5151C11.1851 13.8451 9.38179 14.5933 7.50085 14.5954ZM7.50085 0.811659C6.17785 0.811659 4.88456 1.20397 3.78453 1.93899C2.6845 2.67401 1.82713 3.71872 1.32084 4.94101C0.814554 6.1633 0.682086 7.50827 0.940189 8.80584C1.19829 10.1034 1.83538 11.2953 2.77088 12.2308C3.70638 13.1663 4.89828 13.8034 6.19585 14.0615C7.49343 14.3196 8.8384 14.1871 10.0607 13.6809C11.283 13.1746 12.3277 12.3172 13.0627 11.2172C13.7977 10.1171 14.19 8.82384 14.19 7.50085C14.188 5.72739 13.4826 4.02715 12.2286 2.77313C10.9745 1.5191 9.27431 0.813697 7.50085 0.811659Z"
      fill="black"/>
    <path
      d="M7.50275 8.5133C7.02166 8.5133 6.55137 8.37064 6.15136 8.10336C5.75135 7.83608 5.43958 7.45619 5.25547 7.01172C5.07137 6.56725 5.0232 6.07817 5.11705 5.60633C5.21091 5.13448 5.44257 4.70106 5.78276 4.36088C6.12294 4.0207 6.55636 3.78903 7.0282 3.69518C7.50005 3.60132 7.98913 3.64949 8.4336 3.8336C8.87807 4.0177 9.25796 4.32947 9.52524 4.72948C9.79252 5.1295 9.93518 5.59978 9.93518 6.08087C9.93448 6.72578 9.67798 7.34407 9.22196 7.80009C8.76595 8.25611 8.14765 8.51261 7.50275 8.5133ZM7.50275 4.05384C7.10184 4.05384 6.70993 4.17273 6.37659 4.39546C6.04325 4.61819 5.78344 4.93477 5.63002 5.30516C5.4766 5.67555 5.43645 6.08312 5.51467 6.47632C5.59288 6.86953 5.78594 7.23071 6.06942 7.51419C6.35291 7.79768 6.71409 7.99074 7.10729 8.06895C7.5005 8.14716 7.90806 8.10702 8.27846 7.9536C8.64885 7.80018 8.96542 7.54037 9.18816 7.20703C9.41089 6.87368 9.52977 6.48178 9.52977 6.08087C9.52918 5.54345 9.31543 5.02821 8.93542 4.6482C8.5554 4.26818 8.04017 4.05443 7.50275 4.05384Z"
      fill="black"/>
    <path
      d="M12.1642 12.7715H11.7588C11.7588 11.6426 11.3103 10.5599 10.512 9.76156C9.71369 8.96326 8.63097 8.51478 7.50201 8.51478C6.37304 8.51478 5.29032 8.96326 4.49202 9.76156C3.69373 10.5599 3.24525 11.6426 3.24525 12.7715H2.83984C2.83984 11.5351 3.33103 10.3492 4.20536 9.47489C5.07968 8.60057 6.26552 8.10938 7.50201 8.10938C8.73849 8.10938 9.92433 8.60057 10.7987 9.47489C11.673 10.3492 12.1642 11.5351 12.1642 12.7715Z"
      fill="black"/>
  </g>
  <defs>
    <clipPath id="clip0_1681_15952">
      <rect width="15" height="15" fill="white"/>
    </clipPath>
  </defs>
</svg>
