<svg width="20" height="20" viewBox="0 0 20 20" fill="none" xmlns="http://www.w3.org/2000/svg">
  <circle cx="10" cy="10" r="9.58462" stroke="currentColor" stroke-width="0.830769"/>
  <path
    d="M15.8112 14.6378L11.5637 10.1822C12.584 8.65658 12.4493 6.53101 11.1529 5.16778C9.70203 3.64199 7.34045 3.64199 5.88921 5.16778C4.43797 6.69344 4.43797 9.17608 5.88921 10.7019C7.18572 12.0654 9.20731 12.2065 10.6586 11.1333L14.8963 15.5993C15.0176 15.7267 15.1821 15.7983 15.3536 15.7983C15.5251 15.7983 15.6896 15.7267 15.811 15.5993C15.8711 15.5362 15.9188 15.4613 15.9514 15.3788C15.984 15.2963 16.0007 15.2079 16.0008 15.1186C16.0008 15.0293 15.984 14.9409 15.9515 14.8584C15.919 14.7759 15.8713 14.7009 15.8112 14.6378ZM8.49547 10.6328C7.06177 10.6328 5.89935 9.411 5.89935 7.90378C5.89935 6.39618 7.06177 5.1743 8.49547 5.1743C9.9287 5.1743 11.0911 6.39618 11.0911 7.90378C11.0911 9.411 9.9287 10.6328 8.49547 10.6328Z"
    fill="currentColor"/>
</svg>
