<svg width="14" height="15" viewBox="0 0 14 15" fill="none" xmlns="http://www.w3.org/2000/svg">
  <path
    d="M13.763 13.5007L8.45359 7.93848C9.72901 6.03389 9.56065 3.38039 7.94017 1.67856C6.12657 -0.226187 3.17458 -0.226187 1.36054 1.67856C-0.453512 3.58315 -0.453512 6.68242 1.36054 8.58717C2.98117 10.2893 5.50816 10.4655 7.32221 9.1258L12.6194 14.701C12.7711 14.8601 12.9767 14.9495 13.1911 14.9495C13.4054 14.9495 13.611 14.8601 13.7627 14.701C13.8379 14.6223 13.8975 14.5287 13.9383 14.4258C13.979 14.3228 13.9999 14.2124 14 14.1009C14 13.9894 13.9791 13.879 13.9384 13.776C13.8978 13.673 13.8382 13.5795 13.763 13.5007ZM4.61836 8.5009C2.82624 8.5009 1.37321 6.97569 1.37321 5.09412C1.37321 3.21207 2.82624 1.6867 4.61836 1.6867C6.40989 1.6867 7.86292 3.21207 7.86292 5.09412C7.86292 6.97569 6.40989 8.5009 4.61836 8.5009Z"
    fill="currentColor"/>
</svg>
