<svg width="15" height="15" viewBox="0 0 15 15" fill="none" xmlns="http://www.w3.org/2000/svg">
  <g clip-path="url(#clip0_1681_15964)">
    <path
      d="M1.06564 11.1404H5.57367L7.37314 14.2571C7.386 14.2794 7.40449 14.2979 7.42676 14.3108C7.44903 14.3236 7.47429 14.3304 7.5 14.3304C7.52571 14.3304 7.55097 14.3236 7.57324 14.3108C7.59551 14.2979 7.614 14.2794 7.62685 14.2571L9.42633 11.1404H13.9344C14.2169 11.1401 14.4878 11.0277 14.6875 10.828C14.8873 10.6282 14.9997 10.3573 15 10.0748V1.73358C14.9997 1.45106 14.8873 1.1802 14.6875 0.98043C14.4877 0.780658 14.2169 0.668287 13.9344 0.667969H1.06564C0.783121 0.668287 0.512259 0.780658 0.312482 0.98043C0.112704 1.1802 0.000325676 1.45106 0 1.73358L0 10.0748C0.000317923 10.3573 0.112693 10.6282 0.312471 10.828C0.512249 11.0277 0.783116 11.1401 1.06564 11.1404ZM0.292969 1.73358C0.293194 1.52873 0.374675 1.33234 0.519534 1.1875C0.664393 1.04266 0.860795 0.961198 1.06564 0.960996H13.9344C14.1392 0.961198 14.3356 1.04266 14.4805 1.1875C14.6253 1.33234 14.7068 1.52873 14.707 1.73358V10.0748C14.7068 10.2796 14.6254 10.4761 14.4805 10.6209C14.3356 10.7658 14.1392 10.8473 13.9344 10.8475H9.34175C9.31604 10.8475 9.29078 10.8542 9.26851 10.8671C9.24624 10.8799 9.22775 10.8984 9.21489 10.9207L7.5 13.8909L5.78511 10.9207C5.77225 10.8984 5.75376 10.8799 5.73149 10.8671C5.70922 10.8542 5.68396 10.8475 5.65825 10.8475H1.06564C0.86078 10.8473 0.664364 10.7658 0.519503 10.6209C0.374642 10.4761 0.29317 10.2796 0.292969 10.0748V1.73358ZM4.68943 9.05569C5.05745 9.42669 5.49527 9.72116 5.97766 9.92211C6.46004 10.1231 6.97743 10.2265 7.5 10.2265C8.02256 10.2265 8.53996 10.1231 9.02234 9.92211C9.50473 9.72116 9.94255 9.42669 10.3106 9.05569C10.322 9.047 10.3322 9.03664 10.3406 9.02496C11.0624 8.28608 11.4662 7.29396 11.4656 6.26104C11.4655 4.0744 9.6866 2.29556 7.5 2.29556C5.3134 2.29556 3.53452 4.0744 3.53452 6.26104C3.5339 7.29396 3.93772 8.28608 4.65952 9.02496C4.66791 9.03663 4.67799 9.04699 4.68943 9.05569ZM4.94848 8.89978C5.14373 8.38086 5.49256 7.93381 5.94843 7.61826C6.40431 7.30271 6.94557 7.13366 7.5 7.13366C8.05443 7.13366 8.59569 7.30271 9.05157 7.61826C9.50745 7.93381 9.85627 8.38086 10.0515 8.89978C9.36763 9.56278 8.45252 9.93355 7.5 9.93355C6.54748 9.93355 5.63237 9.56278 4.94848 8.89978ZM7.5 2.58853C8.20417 2.58817 8.89358 2.79037 9.48602 3.171C10.0784 3.55164 10.5489 4.09464 10.8412 4.73526C11.1336 5.37588 11.2355 6.08707 11.1348 6.784C11.0341 7.48094 10.7351 8.13421 10.2734 8.6659C10.0915 8.24277 9.81505 7.86694 9.46532 7.56723C9.11559 7.26752 8.70186 7.0519 8.25586 6.93691C8.55692 6.76948 8.79386 6.50683 8.92952 6.19018C9.06517 5.87353 9.09184 5.52081 9.00536 5.18736C8.91887 4.85391 8.72412 4.55861 8.45167 4.3478C8.17922 4.137 7.84448 4.02262 7.5 4.02262C7.15552 4.02262 6.82078 4.137 6.54833 4.3478C6.27588 4.55861 6.08113 4.85391 5.99464 5.18736C5.90816 5.52081 5.93483 5.87353 6.07048 6.19018C6.20614 6.50683 6.44308 6.76948 6.74414 6.93691C6.29814 7.0519 5.88441 7.26752 5.53468 7.56723C5.18495 7.86694 4.90851 8.24277 4.72658 8.6659C4.26488 8.13421 3.96586 7.48094 3.86519 6.784C3.76451 6.08707 3.86642 5.37588 4.15876 4.73526C4.45111 4.09464 4.92155 3.55164 5.51398 3.171C6.10642 2.79037 6.79583 2.58817 7.5 2.58853ZM7.5 6.84067C7.25036 6.84068 7.00632 6.76666 6.79875 6.62797C6.59118 6.48928 6.4294 6.29216 6.33386 6.06152C6.23832 5.83088 6.21332 5.5771 6.26202 5.33225C6.31072 5.08741 6.43093 4.8625 6.60745 4.68598C6.78397 4.50945 7.00887 4.38924 7.25372 4.34053C7.49856 4.29183 7.75235 4.31682 7.98299 4.41236C8.21362 4.50789 8.41075 4.66967 8.54945 4.87723C8.68814 5.0848 8.76217 5.32884 8.76217 5.57848C8.76179 5.91311 8.62869 6.23393 8.39207 6.47056C8.15545 6.70718 7.83463 6.84029 7.5 6.84067Z"
      fill="black"/>
  </g>
  <defs>
    <clipPath id="clip0_1681_15964">
      <rect width="15" height="15" fill="white"/>
    </clipPath>
  </defs>
</svg>
