<svg width="18" height="18" viewBox="0 0 18 18" fill="none" xmlns="http://www.w3.org/2000/svg">
  <rect width="18" height="18" fill="transparent"/>
  <path
    d="M12.6041 14.2382L12.1986 14.6051L12.1999 14.6063L12.6041 14.2382ZM11.7593 7.51953L11.3203 7.19047C11.3159 7.19603 11.3115 7.20168 11.3073 7.20742L11.7593 7.51953ZM10.1335 11.6959L10.5389 11.3291L10.5376 11.3277L10.1335 11.6959ZM10.0408 9.83658L10.4797 10.1657C10.4842 10.1601 10.4886 10.1544 10.4929 10.1487L10.0408 9.83658ZM14.1878 3.10479L2.78301 7.86067L3.22402 8.84537L14.6288 4.08944L14.1878 3.10479ZM15.9833 4.44944C16.1433 3.47502 15.1264 2.71341 14.1878 3.10479L14.6288 4.08944C14.7629 4.03353 14.9082 4.14232 14.8853 4.28153L15.9833 4.44944ZM14.4239 13.9432L15.9833 4.44944L14.8853 4.28153L13.326 13.7752L14.4239 13.9432ZM12.1999 14.6063C12.9391 15.3619 14.2553 14.9694 14.4239 13.9432L13.326 13.7752C13.3019 13.9218 13.1139 13.978 13.0083 13.87L12.1999 14.6063ZM9.72802 12.0628L12.1986 14.6051L13.0095 13.8714L10.5389 11.3291L9.72802 12.0628ZM10.4929 10.1487L12.2113 7.83164L11.3073 7.20742L9.58876 9.52451L10.4929 10.1487ZM11.25 6.86762L7.65757 9.19306L8.27684 10.0838L11.8693 7.75841L11.25 6.86762ZM3.11188 10.248L5.8118 10.6248L5.97093 9.56319L3.271 9.18641L3.11188 10.248ZM2.78301 7.86067C1.58252 8.36131 1.81754 10.0673 3.11188 10.248L3.271 9.18641C3.21225 9.17818 3.18104 9.1568 3.1615 9.13642C3.13858 9.11253 3.11987 9.07664 3.11386 9.03301C3.10785 8.98939 3.11619 8.95006 3.13186 8.92117C3.1452 8.89657 3.16954 8.86804 3.22402 8.84537L2.78301 7.86067ZM7.65757 9.19306C7.16223 9.51364 6.56124 9.64558 5.97093 9.56319L5.8118 10.6248C6.67457 10.7452 7.55292 10.5524 8.27684 10.0838L7.65757 9.19306ZM12.1982 7.84858C12.6888 7.23931 11.914 6.43776 11.25 6.86762L11.8693 7.75841C11.4848 8.00727 11.0363 7.54322 11.3203 7.19047L12.1982 7.84858ZM10.5376 11.3277C10.224 11.0071 10.1994 10.5138 10.4797 10.1657L9.60188 9.50756C8.98513 10.2734 9.03923 11.3588 9.72928 12.0641L10.5376 11.3277Z"
    fill="currentColor"/>
</svg>
