<svg width="32" height="32" viewBox="0 0 32 32" fill="none" xmlns="http://www.w3.org/2000/svg">
<rect width="32" height="32" fill="#3D3BFF"/>
<path d="M16.0319 28.928C13.6359 28.928 11.5465 28.4625 9.76375 27.5313C7.99232 26.6002 6.61265 25.1808 5.62474 23.2731C4.64819 21.354 4.15991 18.9297 4.15991 16C4.15991 13.0704 4.64819 10.6517 5.62474 8.74399C6.61265 6.82495 7.99232 5.39986 9.76375 4.46872C11.5465 3.53759 13.6359 3.07202 16.0319 3.07202C18.4278 3.07202 20.5115 3.54327 22.283 4.48576C24.0657 5.41689 25.4454 6.84198 26.422 8.76102C27.4099 10.6687 27.9038 13.0817 27.9038 16C27.9038 18.9183 27.4099 21.337 26.422 23.2561C25.4454 25.1637 24.0657 26.5888 22.283 27.5313C20.5002 28.4625 18.4165 28.928 16.0319 28.928ZM16.0319 24.4654C17.3264 24.4654 18.4335 24.1872 19.3533 23.6308C20.2844 23.063 20.9941 22.1659 21.4824 20.9396C21.982 19.7132 22.2319 18.1064 22.2319 16.1193C22.2319 14.0526 21.982 12.3947 21.4824 11.1456C20.9828 9.8852 20.2674 8.9711 19.3363 8.40333C18.4165 7.82421 17.315 7.53465 16.0319 7.53465C14.7487 7.53465 13.6416 7.81286 12.7104 8.36927C11.7907 8.92567 11.081 9.81707 10.5813 11.0434C10.0817 12.2698 9.83188 13.8823 9.83188 15.8808C9.83188 17.9588 10.076 19.628 10.5643 20.8885C11.0639 22.1376 11.7736 23.046 12.6934 23.6137C13.6245 24.1815 14.7374 24.4654 16.0319 24.4654Z" fill="white"/>
</svg>
