<svg width="16" height="12" viewBox="0 0 16 12" fill="none" xmlns="http://www.w3.org/2000/svg">
<path d="M14.0694 0.970589C14.9379 1.94118 15.459 3 15.459 4.76471C15.459 7.85294 13.2878 10.5882 10.2481 12L9.46646 10.8529C12.3324 9.26471 12.9404 7.23529 13.1141 5.91177C12.6798 6.17647 12.0719 6.26471 11.464 6.17647C9.9007 6 8.68483 4.76471 8.68483 3.08824C8.68483 2.29412 9.03222 1.5 9.5533 0.882353C10.1612 0.264706 10.856 0 11.7245 0C12.6798 0 13.5483 0.441177 14.0694 0.970589ZM5.3846 0.970589C6.25308 1.94118 6.77417 3 6.77417 4.76471C6.77417 7.85294 4.60297 10.5882 1.56329 12L0.781662 10.8529C3.64764 9.26471 4.25558 7.23529 4.42928 5.91177C3.99504 6.17647 3.3871 6.26471 2.77917 6.17647C1.2159 6 3.05176e-05 4.67647 3.05176e-05 3.08824C3.05176e-05 2.29412 0.347422 1.5 0.86851 0.882353C1.47645 0.264706 2.17123 0 3.03971 0C3.99504 0 4.86352 0.441177 5.3846 0.970589Z" fill="white"/>
</svg>
