<svg width="16" height="12" viewBox="0 0 16 12" fill="none" xmlns="http://www.w3.org/2000/svg">
<path d="M1.38955 11.0294C0.52107 10.0588 -1.81198e-05 9 -1.81198e-05 7.23529C-1.81198e-05 4.14706 2.17118 1.41176 5.21086 0L5.99249 1.14706C3.12651 2.73529 2.51857 4.76471 2.34488 6.08823C2.77912 5.82353 3.38705 5.73529 3.99499 5.82353C5.55825 6 6.77412 7.23529 6.77412 8.91176C6.77412 9.70588 6.42673 10.5 5.90564 11.1176C5.29771 11.7353 4.60292 12 3.73444 12C2.77912 12 1.91064 11.5588 1.38955 11.0294ZM10.0743 11.0294C9.20587 10.0588 8.68478 9 8.68478 7.23529C8.68478 4.14706 10.856 1.41176 13.8957 0L14.6773 1.14706C11.8113 2.73529 11.2034 4.76471 11.0297 6.08823C11.4639 5.82353 12.0719 5.73529 12.6798 5.82353C14.2431 6 15.4589 7.32353 15.4589 8.91176C15.4589 9.70588 15.1115 10.5 14.5904 11.1176C13.9825 11.7353 13.2877 12 12.4192 12C11.4639 12 10.5954 11.5588 10.0743 11.0294Z" fill="white"/>
</svg>
