<svg width="27" height="27" viewBox="0 0 27 27" fill="none" xmlns="http://www.w3.org/2000/svg">
<g clip-path="url(#clip0_1621_5339)">
<path d="M13.1488 0C5.89853 0 0 5.89853 0 13.1488C0 20.399 5.89853 26.2975 13.1488 26.2975C20.399 26.2975 26.2975 20.399 26.2975 13.1488C26.2975 5.89853 20.399 0 13.1488 0ZM19.9699 13.5108L10.3275 20.0852C10.2616 20.1299 10.1848 20.1559 10.1053 20.1604C10.0257 20.1649 9.94651 20.1477 9.87603 20.1106C9.8055 20.0734 9.74647 20.0176 9.7053 19.9494C9.66413 19.8811 9.64239 19.8029 9.64242 19.7231V6.57438C9.64225 6.49456 9.6639 6.41621 9.70503 6.34781C9.74616 6.2794 9.80521 6.22355 9.87579 6.18627C9.94637 6.149 10.0258 6.13172 10.1055 6.13632C10.1852 6.14091 10.2621 6.1672 10.3279 6.21235L19.9703 12.7867C20.0291 12.827 20.0773 12.8811 20.1105 12.9442C20.1437 13.0073 20.161 13.0775 20.161 13.1489C20.161 13.2202 20.1435 13.2904 20.1102 13.3535C20.0769 13.4165 20.0288 13.4705 19.9699 13.5108Z" fill="white"/>
</g>
<defs>
<clipPath id="clip0_1621_5339">
<rect width="26.2975" height="26.2975" fill="white"/>
</clipPath>
</defs>
</svg>
