<svg width="31" height="15" viewBox="0 0 31 15" fill="none" xmlns="http://www.w3.org/2000/svg">
<g clip-path="url(#clip0_1552_6607)">
<path d="M28.7946 0H1.91964C0.859453 0 0 0.839466 0 1.875V13.125C0 14.1605 0.859453 15 1.91964 15H28.7946C29.8548 15 30.7143 14.1605 30.7143 13.125V1.875C30.7143 0.839466 29.8548 0 28.7946 0Z" fill="white"/>
<path d="M3.83984 11.7188H6.2394V3.28125H3.83984V11.7188Z" fill="#303030"/>
<path d="M11.3613 3.28125L10.8242 7.22272L10.4905 5.07892C10.3938 4.39223 10.301 3.79301 10.2122 3.28125H7.19922V11.7188H9.23482L9.24272 6.1471L10.0996 11.7188H11.5488L12.3623 6.02428L12.3682 11.7188H14.3979V3.28125H11.3613Z" fill="#303030"/>
<path d="M15.3574 11.7188V3.28125H19.1029C19.9499 3.28125 20.6364 3.94685 20.6364 4.77028V10.2297C20.6364 11.0521 19.951 11.7188 19.1029 11.7188H15.3574ZM18.1564 4.79978C18.0612 4.74953 17.8791 4.72534 17.6143 4.72534V10.2616C17.964 10.2616 18.1791 10.2002 18.2598 10.0718C18.3405 9.94527 18.3819 9.60286 18.3819 9.04086V5.76933C18.3819 5.38783 18.3674 5.14405 18.3405 5.03612C18.3136 4.92818 18.2536 4.85002 18.1564 4.79978Z" fill="#303030"/>
<path d="M25.1614 5.39384H25.3148C26.1763 5.39384 26.8747 6.05282 26.8747 6.86478V10.2478C26.8747 11.0602 26.1765 11.7188 25.3148 11.7188H25.1614C24.6342 11.7188 24.1682 11.472 23.8858 11.0945L23.7476 11.6104H21.5957V3.28125H23.8918V5.99088C24.1884 5.62976 24.6456 5.39384 25.1614 5.39384ZM24.6698 9.50823V7.50894C24.6698 7.1786 24.6481 6.96181 24.6029 6.86201C24.5576 6.76222 24.3771 6.69815 24.2504 6.69815C24.1238 6.69815 23.9284 6.75022 23.8905 6.83797V7.50894V9.57224V10.2223C23.9339 10.3186 24.1201 10.3722 24.2504 10.3722C24.3807 10.3722 24.5703 10.3203 24.6101 10.2223C24.6499 10.1242 24.6698 9.88503 24.6698 9.50823Z" fill="#303030"/>
</g>
<defs>
<clipPath id="clip0_1552_6607">
<rect width="30.7143" height="15" fill="white"/>
</clipPath>
</defs>
</svg>
