<svg width="55" height="14" viewBox="0 0 55 14" fill="none" xmlns="http://www.w3.org/2000/svg">
<path d="M10.5199 5.90909C10.5199 7.04261 10.2995 7.99882 9.85867 8.7777C9.41785 9.55327 8.82292 10.1416 8.07386 10.5426C7.32481 10.9403 6.48958 11.1392 5.56818 11.1392C4.64015 11.1392 3.80161 10.9387 3.05256 10.5376C2.30682 10.1333 1.71354 9.54332 1.27273 8.76776C0.835227 7.98887 0.616477 7.03598 0.616477 5.90909C0.616477 4.77557 0.835227 3.82102 1.27273 3.04545C1.71354 2.26657 2.30682 1.67827 3.05256 1.28054C3.80161 0.879498 4.64015 0.678977 5.56818 0.678977C6.48958 0.678977 7.32481 0.879498 8.07386 1.28054C8.82292 1.67827 9.41785 2.26657 9.85867 3.04545C10.2995 3.82102 10.5199 4.77557 10.5199 5.90909ZM7.67614 5.90909C7.67614 5.29924 7.59493 4.78551 7.43253 4.3679C7.27344 3.94697 7.03646 3.62879 6.72159 3.41335C6.41004 3.1946 6.02557 3.08523 5.56818 3.08523C5.1108 3.08523 4.72467 3.1946 4.4098 3.41335C4.09825 3.62879 3.86127 3.94697 3.69886 4.3679C3.53977 4.78551 3.46023 5.29924 3.46023 5.90909C3.46023 6.51894 3.53977 7.03433 3.69886 7.45526C3.86127 7.87287 4.09825 8.19105 4.4098 8.4098C4.72467 8.62524 5.1108 8.73295 5.56818 8.73295C6.02557 8.73295 6.41004 8.62524 6.72159 8.4098C7.03646 8.19105 7.27344 7.87287 7.43253 7.45526C7.59493 7.03433 7.67614 6.51894 7.67614 5.90909ZM18.9579 3.36364V9.28977H20.2704V13.446H17.6255V11H11.8386V3.36364H14.4238V8.9517H16.4125V3.36364H18.9579ZM24.8219 11.1392C24.0066 11.1392 23.3039 10.9834 22.714 10.6719C22.1273 10.357 21.6749 9.90625 21.3567 9.3196C21.0418 8.72964 20.8844 8.02367 20.8844 7.2017C20.8844 6.41288 21.0435 5.72348 21.3617 5.13352C21.6799 4.54356 22.129 4.08452 22.709 3.75639C23.289 3.42827 23.9734 3.2642 24.7623 3.2642C25.339 3.2642 25.861 3.35369 26.3283 3.53267C26.7956 3.71165 27.195 3.97183 27.5265 4.31321C27.8579 4.65128 28.1131 5.06226 28.2921 5.54616C28.4711 6.03007 28.5605 6.57528 28.5605 7.18182V7.81818H21.7395V6.30682H26.035C26.0317 6.08807 25.9753 5.89583 25.8659 5.73011C25.7599 5.56108 25.6157 5.43016 25.4334 5.33736C25.2544 5.24124 25.0506 5.19318 24.8219 5.19318C24.5998 5.19318 24.396 5.24124 24.2104 5.33736C24.0248 5.43016 23.8757 5.55942 23.763 5.72514C23.6536 5.89086 23.5956 6.08475 23.589 6.30682V7.9375C23.589 8.18277 23.6403 8.40152 23.7431 8.59375C23.8458 8.78598 23.9933 8.93679 24.1855 9.04616C24.3778 9.15554 24.6098 9.21023 24.8816 9.21023C25.0705 9.21023 25.2428 9.18371 25.3986 9.13068C25.5577 9.07765 25.6936 9.00142 25.8063 8.90199C25.919 8.79924 26.0018 8.67661 26.0549 8.53409H28.5605C28.4744 9.06439 28.2705 9.52509 27.949 9.91619C27.6275 10.304 27.2016 10.6056 26.6713 10.821C26.1444 11.0331 25.5279 11.1392 24.8219 11.1392ZM35.1293 6.12784V8.17614H31.2912V6.12784H35.1293ZM32.2656 3.36364V11H29.6804V3.36364H32.2656ZM36.7401 3.36364V11H34.1747V3.36364H36.7401ZM41.7266 11.1392C40.898 11.1392 40.1887 10.9751 39.5987 10.647C39.0088 10.3156 38.5563 9.85488 38.2415 9.26491C37.9266 8.67164 37.7692 7.9839 37.7692 7.2017C37.7692 6.41951 37.9266 5.73343 38.2415 5.14347C38.5563 4.55019 39.0088 4.08949 39.5987 3.76136C40.1887 3.42992 40.898 3.2642 41.7266 3.2642C42.5552 3.2642 43.2644 3.42992 43.8544 3.76136C44.4444 4.08949 44.8968 4.55019 45.2116 5.14347C45.5265 5.73343 45.6839 6.41951 45.6839 7.2017C45.6839 7.9839 45.5265 8.67164 45.2116 9.26491C44.8968 9.85488 44.4444 10.3156 43.8544 10.647C43.2644 10.9751 42.5552 11.1392 41.7266 11.1392ZM41.7464 9.1108C41.9785 9.1108 42.179 9.03291 42.348 8.87713C42.517 8.72135 42.648 8.49929 42.7408 8.21094C42.8336 7.92259 42.88 7.57955 42.88 7.18182C42.88 6.78078 42.8336 6.43774 42.7408 6.1527C42.648 5.86435 42.517 5.64228 42.348 5.48651C42.179 5.33073 41.9785 5.25284 41.7464 5.25284C41.5012 5.25284 41.2907 5.33073 41.1151 5.48651C40.9394 5.64228 40.8052 5.86435 40.7124 6.1527C40.6196 6.43774 40.5732 6.78078 40.5732 7.18182C40.5732 7.57955 40.6196 7.92259 40.7124 8.21094C40.8052 8.49929 40.9394 8.72135 41.1151 8.87713C41.2907 9.03291 41.5012 9.1108 41.7464 9.1108ZM46.7976 11V3.36364H49.5419V6.08807H50.0192L51.6499 3.36364H54.7919L52.3459 7.22159L54.8118 11H51.63L50.1584 8.63352H49.5419V11H46.7976Z" fill="white"/>
</svg>
