<?xml version="1.0" encoding="utf-8"?><svg xmlns="http://www.w3.org/2000/svg" xmlns:xlink="http://www.w3.org/1999/xlink"><symbol fill="none" viewBox="0 0 22 19" id="age" xmlns="http://www.w3.org/2000/svg"><path d="M.644 15.201h16.844a.652.652 0 0 0 .413-.146c.162-.133 3.852-3.253 4.078-9.988H3.887C3.664 11.18.265 14.054.229 14.082a.628.628 0 0 0-.19.703c.093.25.334.416.605.416ZM21.355 1.267h-3.222V.633A.633.633 0 0 0 17.488 0a.633.633 0 0 0-.645.633v.634h-3.265V.633A.633.633 0 0 0 12.933 0a.633.633 0 0 0-.644.633v.634H9.066V.633A.633.633 0 0 0 8.42 0a.633.633 0 0 0-.644.633v.634H4.554a.633.633 0 0 0-.645.633v1.9H22V1.9a.633.633 0 0 0-.645-.633Z" fill="#fff"/><path d="M18.726 16.023c-.35.287-.79.442-1.241.442H3.906v1.9c0 .35.289.634.645.634h16.801a.639.639 0 0 0 .645-.633v-7.1c-1.243 2.996-2.977 4.515-3.271 4.757Z" fill="#fff"/></symbol><symbol fill="none" viewBox="0 0 24 24" id="arrow-decrease" xmlns="http://www.w3.org/2000/svg"><path d="m12 23 5.773-10H6.227L12 23ZM11 1v13h2V1h-2Z" fill="#FF3737"/></symbol><symbol fill="none" viewBox="0 0 19 11" id="arrow-down" xmlns="http://www.w3.org/2000/svg"><path d="m18 .648-7.871 8.659a.85.85 0 0 1-1.258 0L1 .648" stroke="#303030" stroke-width=".85" stroke-linecap="round"/></symbol><symbol fill="none" viewBox="0 0 24 24" id="arrow-growth" xmlns="http://www.w3.org/2000/svg"><path d="M12 1 6.226 11h11.547L12 1Zm-1 9v13h2V10h-2Z" fill="#30B635"/></symbol><symbol fill="none" viewBox="0 0 20 20" id="carret-left" xmlns="http://www.w3.org/2000/svg"><path d="m14.6 18.6-8.957-8.21a.8.8 0 0 1 0-1.18L14.6 1" stroke="currentColor" stroke-linecap="round"/></symbol><symbol fill="none" viewBox="0 0 20 20" id="carret-right" xmlns="http://www.w3.org/2000/svg"><path d="m5 1 8.957 8.21a.8.8 0 0 1 0 1.18L5 18.6" stroke="currentColor" stroke-linecap="round"/></symbol><symbol fill="none" viewBox="0 0 17 17" id="close" xmlns="http://www.w3.org/2000/svg"><path d="m1 1 15 15m0-15L1 16" stroke="currentColor" stroke-linecap="round" stroke-linejoin="round"/></symbol><symbol fill="none" viewBox="0 0 15 15" id="exit" xmlns="http://www.w3.org/2000/svg"><g clip-path="url(#ha)" fill="#000"><path d="M3.25 6.496a.25.25 0 0 0-.25.25v1.5a.25.25 0 0 0 .5 0v-1.5a.25.25 0 0 0-.25-.25Z"/><path d="m3.277.067-2.364.946C.248 1.259 0 1.593 0 2.247v10.502c0 .654.248.988.907 1.233l2.375.95a.99.99 0 0 0 .35.067c.503 0 .868-.42.868-1V.998c0-.711-.567-1.177-1.223-.93ZM4 14c0 .298-.147.499-.367.499a.495.495 0 0 1-.17-.033l-2.376-.95C.615 13.34.5 13.19.5 12.748V2.247c0-.44.115-.59.593-.768L3.458.533a.498.498 0 0 1 .175-.035c.22 0 .367.2.367.499V14ZM5.22 1.497H8.75a.75.75 0 0 1 .75.75v3.75a.25.25 0 1 0 .5 0v-3.75c0-.69-.56-1.25-1.25-1.25H5.22a.25.25 0 0 0 0 .5Zm4.531 7.25a.25.25 0 0 0-.25.25v3.75a.75.75 0 0 1-.75.75h-3.5a.25.25 0 0 0 0 .5h3.5c.69 0 1.25-.56 1.25-1.25v-3.75a.25.25 0 0 0-.25-.25Z"/><path d="M14.98 7.4a.249.249 0 0 0-.053-.08l-2.5-2.5a.25.25 0 1 0-.354.353l2.074 2.073H5.75a.25.25 0 0 0 0 .5h8.397L12.073 9.82a.25.25 0 0 0 .273.407.25.25 0 0 0 .08-.054l2.5-2.5a.249.249 0 0 0 .055-.272Z"/></g><defs><clipPath id="ha"><path fill="#fff" d="M0 0h15v15H0z"/></clipPath></defs></symbol><symbol fill="none" viewBox="0 0 15 15" id="friends" xmlns="http://www.w3.org/2000/svg"><path d="M11.236 5.788a2.343 2.343 0 1 0-2.318-.002 4.193 4.193 0 0 0-2.003 1.281 4.111 4.111 0 0 0-.835-.342 2.344 2.344 0 1 0-2.316 0 4.212 4.212 0 0 0-2 1.274C.927 8.943.468 10.264.468 11.72a.234.234 0 0 0 .12.205c.089.05 2.187 1.201 4.333 1.201 1.821 0 3.388-.7 4.031-1.034.372.062.748.095 1.125.097 2.34 0 4.26-1.157 4.341-1.206a.235.235 0 0 0 .112-.2c0-1.457-.46-2.778-1.294-3.721a4.212 4.212 0 0 0-2-1.274ZM8.203 3.75a1.875 1.875 0 1 1 3.75 0 1.875 1.875 0 0 1-3.75 0Zm-5.156.938a1.875 1.875 0 1 1 3.75 0 1.875 1.875 0 0 1-3.75 0Zm1.875 7.969c-1.74 0-3.51-.838-3.983-1.079.028-1.285.443-2.442 1.175-3.269a3.71 3.71 0 0 1 2.808-1.277A3.71 3.71 0 0 1 7.729 8.31c.734.829 1.149 1.987 1.176 3.275-.439.24-2.089 1.073-3.983 1.073Zm5.156-.938a6.15 6.15 0 0 1-.703-.042C9.365 10.238 8.907 8.933 8.08 8a4.374 4.374 0 0 0-.76-.682 3.69 3.69 0 0 1 2.758-1.223 3.71 3.71 0 0 1 2.808 1.278c.733.828 1.148 1.987 1.175 3.275-.438.24-2.084 1.072-3.983 1.072Z" fill="currentColor"/></symbol><symbol fill="none" viewBox="0 0 24 24" id="house" xmlns="http://www.w3.org/2000/svg"><path d="M19.597 11.524h-.001l-6.12-6.12A1.372 1.372 0 0 0 12.5 5c-.369 0-.716.144-.976.405L5.407 11.52l-.006.006a1.382 1.382 0 0 0 .962 2.355h.244v4.503c0 .891.725 1.616 1.616 1.616h2.394a.44.44 0 0 0 .44-.44v-3.53c0-.406.33-.737.737-.737h1.412c.407 0 .738.33.738.737v3.53c0 .243.196.44.44.44h2.393c.892 0 1.617-.725 1.617-1.616v-4.503h.226a1.383 1.383 0 0 0 .977-2.357Z" fill="#000"/></symbol><symbol fill="none" viewBox="0 0 13 18" id="location" xmlns="http://www.w3.org/2000/svg"><path d="M6.5 0C2.911 0 0 2.821 0 6.3 0 11.025 6.5 18 6.5 18S13 11.025 13 6.3C13 2.822 10.089 0 6.5 0Zm0 8.55c-1.281 0-2.321-1.008-2.321-2.25S5.219 4.05 6.5 4.05c1.281 0 2.321 1.008 2.321 2.25S7.781 8.55 6.5 8.55Z" fill="currentColor"/></symbol><symbol fill="none" viewBox="0 0 127 48" id="logo" xmlns="http://www.w3.org/2000/svg"><path d="M16.573 37.428c-3.165 0-5.925-.615-8.28-1.845-2.34-1.23-4.163-3.105-5.468-5.625C1.535 27.422.89 24.22.89 20.35s.645-7.065 1.935-9.585C4.13 8.23 5.952 6.347 8.293 5.117c2.355-1.23 5.115-1.845 8.28-1.845 3.165 0 5.917.623 8.257 1.868 2.355 1.23 4.178 3.112 5.468 5.647 1.305 2.52 1.957 5.708 1.957 9.563 0 3.855-.653 7.05-1.958 9.585-1.29 2.52-3.112 4.402-5.467 5.648-2.355 1.23-5.107 1.845-8.257 1.845Zm0-5.895c1.71 0 3.172-.368 4.387-1.103 1.23-.75 2.168-1.935 2.813-3.555.66-1.62.99-3.742.99-6.367 0-2.73-.33-4.92-.99-6.57-.66-1.665-1.605-2.873-2.835-3.623-1.215-.765-2.67-1.147-4.365-1.147-1.696 0-3.158.367-4.388 1.102-1.215.735-2.152 1.912-2.813 3.533-.66 1.62-.99 3.75-.99 6.39 0 2.744.323 4.95.968 6.614.66 1.65 1.598 2.85 2.813 3.6 1.23.75 2.7 1.125 4.41 1.125ZM53.618 37 44.91 24.355l8.078-11.97h7.65l-8.46 12.78v-1.89L61.426 37H53.62ZM43.38 27.235v-5.738h4.073v5.738H43.38ZM36.834 37V.64h7.155V37h-7.155Zm26.543 0V12.385h7.177V37h-7.177Zm3.577-28.193c-1.5 0-2.617-.33-3.352-.99-.72-.66-1.08-1.575-1.08-2.745 0-1.2.36-2.122 1.08-2.767.735-.66 1.852-.99 3.352-.99 1.515 0 2.633.33 3.353.99.72.645 1.08 1.567 1.08 2.767 0 1.17-.36 2.085-1.08 2.745-.72.66-1.838.99-3.353.99Zm17.79 38.543c-1.305 0-2.67-.083-4.095-.248a26.551 26.551 0 0 1-4.14-.764v-5.603c1.38.375 2.722.653 4.027.833 1.305.18 2.52.27 3.645.27 2.4 0 4.14-.45 5.22-1.35 1.095-.9 1.643-2.4 1.643-4.5v-1.62h-.338c-.705.87-1.597 1.552-2.677 2.047-1.065.495-2.295.742-3.69.742-1.68 0-3.248-.42-4.703-1.26-1.455-.855-2.632-2.16-3.532-3.914-.885-1.77-1.328-4.035-1.328-6.796 0-4.245 1.155-7.5 3.465-9.765 2.31-2.28 5.813-3.42 10.508-3.42 1.05 0 2.13.053 3.24.158 1.125.105 2.22.262 3.285.473 1.065.195 2.047.442 2.947.742v21.307c0 4.456-1.11 7.68-3.33 9.675-2.22 1.995-5.602 2.993-10.147 2.993Zm2.317-16.02c.72 0 1.433-.12 2.138-.36a5.268 5.268 0 0 0 1.845-1.125V17.74c-.39-.09-.84-.165-1.35-.225-.495-.06-1.02-.09-1.575-.09-1.98 0-3.495.555-4.545 1.665-1.05 1.095-1.575 2.925-1.575 5.49 0 1.74.21 3.105.63 4.095.42.975 1.005 1.665 1.755 2.07.765.39 1.657.585 2.677.585Zm27.393 6.142c-2.46 0-4.59-.465-6.39-1.395-1.785-.944-3.165-2.355-4.14-4.23-.975-1.89-1.462-4.252-1.462-7.087 0-2.865.472-5.243 1.417-7.133.96-1.89 2.333-3.3 4.118-4.23 1.8-.93 3.952-1.395 6.457-1.395s4.65.473 6.435 1.418c1.8.93 3.173 2.34 4.118 4.23.96 1.875 1.44 4.23 1.44 7.065 0 2.85-.488 5.22-1.463 7.11-.975 1.89-2.362 3.308-4.162 4.253-1.785.93-3.908 1.394-6.368 1.394Zm0-5.444c1.005 0 1.86-.218 2.565-.653.72-.435 1.268-1.177 1.643-2.227.375-1.066.562-2.52.562-4.366 0-1.89-.187-3.367-.562-4.432-.375-1.065-.923-1.815-1.643-2.25-.705-.45-1.56-.675-2.565-.675s-1.867.217-2.587.652c-.705.435-1.245 1.185-1.62 2.25-.375 1.05-.563 2.505-.563 4.365 0 1.89.188 3.368.563 4.433.375 1.065.915 1.815 1.62 2.25.72.435 1.582.653 2.587.653Z" fill="currentColor"/></symbol><symbol fill="none" viewBox="0 0 21 16" id="menu-button" xmlns="http://www.w3.org/2000/svg"><path d="M1 1h19M1 8h19M1 15h19" stroke="currentColor" stroke-linecap="round" stroke-width="1.5"/></symbol><symbol fill="none" viewBox="0 0 24 24" id="my-friends" xmlns="http://www.w3.org/2000/svg"><path d="M11.91 12.226c.951 0 1.775-.357 2.449-1.059.673-.702 1.015-1.562 1.015-2.554 0-.993-.342-1.852-1.015-2.555C13.685 5.356 12.86 5 11.909 5c-.952 0-1.776.356-2.45 1.058-.673.703-1.014 1.562-1.014 2.555 0 .992.341 1.852 1.015 2.554.673.702 1.498 1.059 2.45 1.059Zm6.06 4.308a9.286 9.286 0 0 0-.116-.948 7.736 7.736 0 0 0-.223-.953 4.807 4.807 0 0 0-.376-.888 3.344 3.344 0 0 0-.566-.77 2.485 2.485 0 0 0-.814-.533 2.71 2.71 0 0 0-1.039-.196c-.146 0-.289.063-.563.249-.195.132-.39.264-.586.394a3.292 3.292 0 0 1-.76.349 2.9 2.9 0 0 1-.927.156c-.309 0-.62-.053-.929-.156a3.283 3.283 0 0 1-.758-.349 80.816 80.816 0 0 1-.587-.394c-.274-.187-.416-.25-.563-.25-.374 0-.723.067-1.039.197-.316.13-.59.31-.813.533a3.34 3.34 0 0 0-.567.77 4.824 4.824 0 0 0-.375.889c-.09.293-.165.613-.224.952a9.255 9.255 0 0 0-.116.949c-.02.294-.03.59-.029.885 0 .783.239 1.417.71 1.885.464.461 1.08.695 1.827.695h6.926c.748 0 1.363-.234 1.828-.695.47-.468.709-1.102.709-1.885 0-.302-.01-.6-.03-.886Z" fill="#303030"/></symbol><symbol fill="none" viewBox="0 0 24 24" id="my-photos" xmlns="http://www.w3.org/2000/svg"><path fill-rule="evenodd" clip-rule="evenodd" d="M19 16.5v-10a.5.5 0 0 0-.5-.5h-15a.5.5 0 0 0-.5.5v10a.5.5 0 0 0 .5.5h15a.5.5 0 0 0 .5-.5Zm1-10v10a1.5 1.5 0 0 1-1.5 1.5h-15A1.5 1.5 0 0 1 2 16.5v-10A1.5 1.5 0 0 1 3.5 5h15A1.5 1.5 0 0 1 20 6.5Z" fill="#000"/><path fill-rule="evenodd" clip-rule="evenodd" d="M21 18.5v-10a.5.5 0 0 0-.5-.5h-1a.5.5 0 0 1 0-1h1A1.5 1.5 0 0 1 22 8.5v10a1.5 1.5 0 0 1-1.5 1.5h-15A1.5 1.5 0 0 1 4 18.5v-1a.5.5 0 0 1 1 0v1a.5.5 0 0 0 .5.5h15a.5.5 0 0 0 .5-.5Z" fill="#000"/><path fill-rule="evenodd" clip-rule="evenodd" d="M7.41 11.034a.5.5 0 0 0-.702.04l-3.835 4.26-.744-.668 3.836-4.262a1.5 1.5 0 0 1 2.11-.117l3.18 2.826a.5.5 0 0 0 .61.043l1.832-1.221a1.5 1.5 0 0 1 1.604-.038l4.457 2.674-.514.858-4.458-2.675a.5.5 0 0 0-.534.013l-1.831 1.22a1.5 1.5 0 0 1-1.83-.126l-3.18-2.827ZM13 10a1 1 0 1 0 0-2 1 1 0 0 0 0 2Zm0 1a2 2 0 1 0 0-4 2 2 0 0 0 0 4Z" fill="#000"/></symbol><symbol fill="none" viewBox="0 0 12 12" id="ok" xmlns="http://www.w3.org/2000/svg"><path d="M6.032 1c-.525 0-1.039.155-1.475.445a2.629 2.629 0 0 0-.402 4.064 2.66 2.66 0 0 0 2.893.572c.485-.2.9-.538 1.191-.972a2.632 2.632 0 0 0-.33-3.336A2.654 2.654 0 0 0 6.032 1Zm0 3.958a1.328 1.328 0 0 1-1.223-.813 1.31 1.31 0 0 1 .287-1.435 1.326 1.326 0 0 1 2.26.931 1.31 1.31 0 0 1-.818 1.217c-.16.066-.333.1-.506.1Z" fill="#fff"/><path d="M9.944 6.74a.897.897 0 0 0-.892-.451.903.903 0 0 0-.334.108c-1.808 1.008-3.566 1.008-5.373 0a.907.907 0 0 0-1.339.681.895.895 0 0 0 .457.89 8.04 8.04 0 0 0 1.886.768l-1.28 1.272a.889.889 0 0 0 .634 1.522.898.898 0 0 0 .634-.261L6.03 9.577l1.695 1.685a.898.898 0 0 0 1.53-.63.89.89 0 0 0-.263-.63L7.714 8.73a8.04 8.04 0 0 0 1.885-.769.899.899 0 0 0 .454-.888.892.892 0 0 0-.109-.333Z" fill="#fff"/></symbol><symbol fill="none" viewBox="0 0 15 15" id="photos" xmlns="http://www.w3.org/2000/svg"><path d="M13.175 4.098 6.782 1.715a1.377 1.377 0 0 0-1.771.81l-.312.836-.37-.053A1.377 1.377 0 0 0 2.77 4.477l-.142.997h-.326A1.378 1.378 0 0 0 .926 6.85v5.144a1.379 1.379 0 0 0 1.377 1.377h6.822a1.377 1.377 0 0 0 1.374-1.31c.316-.079.593-.268.782-.534a1.369 1.369 0 0 0 .908-.838l1.796-4.821a1.378 1.378 0 0 0-.81-1.771ZM2.303 5.884h6.822a.968.968 0 0 1 .967.967v2.217l-3.558 1.944-2.507-1.983a.205.205 0 0 0-.25-.004l-2.441 1.823V6.85a.968.968 0 0 1 .967-.967Zm6.822 7.078H2.303a.968.968 0 0 1-.967-.967v-.635l2.56-1.912 2.49 1.97a.206.206 0 0 0 .226.019l3.48-1.902v2.461a.968.968 0 0 1-.967.967v-.001Zm1.377-1.332V6.851a1.379 1.379 0 0 0-1.377-1.377H3.043l.134-.94a.968.968 0 0 1 1.094-.82l.53.075h.003l6.221.886a.97.97 0 0 1 .82 1.094l-.725 5.093a.964.964 0 0 1-.618.77v-.002Zm3.099-5.906-1.797 4.822a.965.965 0 0 1-.283.401l.006-.026.725-5.094a1.38 1.38 0 0 0-1.169-1.557l-5.968-.85.28-.752A.967.967 0 0 1 6.638 2.1l6.394 2.382a.968.968 0 0 1 .569 1.243Z" fill="#000"/><path d="M6.512 9.26a1.083 1.083 0 1 0 0-2.166 1.083 1.083 0 0 0 0 2.165Zm0-1.756a.673.673 0 1 1 0 1.346.673.673 0 0 1 0-1.347Z" fill="#000"/></symbol><symbol fill="none" viewBox="0 0 15 15" id="profile" xmlns="http://www.w3.org/2000/svg"><g clip-path="url(#ra)" fill="#000"><path d="M7.5 14.595a7.094 7.094 0 1 1 7.095-7.094 7.103 7.103 0 0 1-7.094 7.094ZM7.5.812A6.69 6.69 0 1 0 14.19 7.5 6.697 6.697 0 0 0 7.5.81Z"/><path d="M7.503 8.513a2.432 2.432 0 1 1 0-4.865 2.432 2.432 0 0 1 0 4.865Zm0-4.46a2.027 2.027 0 1 0 0 4.055 2.027 2.027 0 0 0 0-4.054Z"/><path d="M12.164 12.771h-.405a4.257 4.257 0 0 0-8.514 0H2.84a4.662 4.662 0 0 1 9.324 0Z"/></g><defs><clipPath id="ra"><path fill="#fff" d="M0 0h15v15H0z"/></clipPath></defs></symbol><symbol fill="none" viewBox="0 0 14 15" id="search" xmlns="http://www.w3.org/2000/svg"><path d="m13.763 13.5-5.31-5.562C9.73 6.034 9.562 3.38 7.94 1.678a4.502 4.502 0 0 0-6.58 0c-1.814 1.905-1.814 5.004 0 6.91 1.621 1.701 4.148 1.878 5.962.538L12.62 14.7a.79.79 0 0 0 .572.248.79.79 0 0 0 .572-.248.853.853 0 0 0 .237-.6.885.885 0 0 0-.237-.6Zm-9.145-5c-1.792 0-3.245-1.524-3.245-3.406 0-1.882 1.453-3.407 3.245-3.407s3.245 1.525 3.245 3.407c0 1.882-1.453 3.407-3.245 3.407Z" fill="currentColor"/></symbol><symbol fill="none" viewBox="0 0 20 20" id="search-button" xmlns="http://www.w3.org/2000/svg"><circle cx="10" cy="10" r="9.585" stroke="currentColor" stroke-width=".831"/><path d="m15.811 14.638-4.247-4.456c1.02-1.525.885-3.651-.411-5.014a3.599 3.599 0 0 0-5.264 0c-1.451 1.525-1.451 4.008 0 5.534a3.59 3.59 0 0 0 4.77.431l4.237 4.466a.631.631 0 0 0 .458.2.632.632 0 0 0 .457-.2.684.684 0 0 0 .19-.48.71.71 0 0 0-.19-.481Zm-7.316-4.005c-1.433 0-2.596-1.222-2.596-2.73 0-1.507 1.163-2.729 2.596-2.729 1.434 0 2.596 1.222 2.596 2.73 0 1.507-1.162 2.729-2.596 2.729Z" fill="currentColor"/></symbol><symbol fill="none" viewBox="0 0 15 15" id="subs" xmlns="http://www.w3.org/2000/svg"><g clip-path="url(#ua)"><path d="M1.066 11.14h4.508l1.8 3.117a.147.147 0 0 0 .253 0l1.8-3.117h4.507A1.067 1.067 0 0 0 15 10.075V1.734A1.067 1.067 0 0 0 13.934.668H1.066A1.067 1.067 0 0 0 0 1.734v8.34a1.067 1.067 0 0 0 1.066 1.066ZM.293 1.734A.773.773 0 0 1 1.066.96h12.868a.774.774 0 0 1 .773.773v8.34a.773.773 0 0 1-.773.774H9.342a.146.146 0 0 0-.127.073L7.5 13.89l-1.715-2.97a.146.146 0 0 0-.127-.073H1.066a.773.773 0 0 1-.773-.773V1.734Zm4.396 7.322a3.959 3.959 0 0 0 5.652-.031 3.952 3.952 0 0 0 1.125-2.764A3.97 3.97 0 0 0 7.5 2.296 3.97 3.97 0 0 0 3.535 6.26a3.952 3.952 0 0 0 1.154 2.795Zm.26-.156a2.726 2.726 0 0 1 5.103 0 3.666 3.666 0 0 1-5.104 0ZM7.5 2.589a3.67 3.67 0 0 1 2.773 6.077 3.015 3.015 0 0 0-2.017-1.73 1.555 1.555 0 1 0-1.512 0 3.016 3.016 0 0 0-2.017 1.73A3.67 3.67 0 0 1 7.5 2.589Zm0 4.252a1.262 1.262 0 1 1 0-2.525 1.262 1.262 0 0 1 0 2.525Z" fill="#000"/></g><defs><clipPath id="ua"><path fill="#fff" d="M0 0h15v15H0z"/></clipPath></defs></symbol><symbol fill="none" viewBox="0 0 18 18" id="telegram" xmlns="http://www.w3.org/2000/svg"><path fill="transparent" d="M0 0h18v18H0z"/><path d="m12.604 14.238-.405.367v.001l.405-.368ZM11.76 7.52l-.439-.33a.567.567 0 0 0-.013.017l.452.313Zm-1.626 4.176.406-.367-.001-.001-.405.368Zm-.092-1.86.439.33a.704.704 0 0 0 .013-.017l-.452-.312Zm4.147-6.731L2.783 7.86l.441.984L14.629 4.09l-.441-.984Zm1.795 1.344c.16-.974-.857-1.736-1.795-1.344l.44.984c.135-.055.28.053.257.193l1.098.167Zm-1.56 9.494 1.56-9.494-1.098-.167-1.559 9.493 1.098.168Zm-2.223.663c.74.756 2.055.363 2.224-.663l-1.098-.168c-.024.147-.212.203-.318.095l-.808.736Zm-2.472-2.543 2.47 2.542.811-.734-2.47-2.542-.811.734Zm.765-1.914 1.718-2.317-.904-.625L9.59 9.525l.904.624Zm.757-3.281L7.658 9.193l.619.89 3.592-2.325-.619-.89Zm-8.138 3.38 2.7.377.159-1.062-2.7-.377-.16 1.062Zm-.329-2.387c-1.2.5-.965 2.206.329 2.387l.159-1.062a.176.176 0 0 1-.11-.05.186.186 0 0 1-.047-.103.184.184 0 0 1 .018-.112.171.171 0 0 1 .092-.076l-.441-.984Zm4.875 1.332a2.479 2.479 0 0 1-1.687.37l-.16 1.062a3.622 3.622 0 0 0 2.466-.541l-.62-.89Zm4.54-1.344c.49-.61-.284-1.411-.948-.981l.62.89c-.385.25-.834-.215-.55-.568l.878.659Zm-1.66 3.479a.87.87 0 0 1-.058-1.162l-.878-.658a1.915 1.915 0 0 0 .127 2.556l.809-.736Z" fill="currentColor"/></symbol><symbol fill="none" viewBox="0 0 18 18" id="vk" xmlns="http://www.w3.org/2000/svg"><path fill="transparent" d="M0 0h18v18H0z"/><path d="M9.715 14C4.248 14 1.13 10.246 1 4h2.738c.09 4.585 2.11 6.526 3.708 6.927V4h2.578v3.954c1.58-.17 3.238-1.972 3.798-3.954H16.4c-.43 2.442-2.228 4.244-3.507 4.985 1.279.6 3.328 2.172 4.107 5.015h-2.838c-.61-1.902-2.129-3.373-4.138-3.574V14h-.31Z" fill="currentColor"/></symbol></svg>