<svg width="67" height="67" viewBox="0 0 67 67" fill="none" xmlns="http://www.w3.org/2000/svg">
<g clip-path="url(#clip0_1552_6625)">
<path d="M33.5 0C15.0281 0 0 15.0281 0 33.5C0 51.9719 15.0281 67 33.5 67C51.9719 67 67 51.9719 67 33.5C67 15.0281 51.9719 0 33.5 0ZM50.8787 34.4224L26.312 51.1724C26.1442 51.2864 25.9485 51.3527 25.7459 51.3641C25.5433 51.3756 25.3414 51.3316 25.1619 51.2371C24.9822 51.1424 24.8318 51.0004 24.7269 50.8264C24.622 50.6524 24.5666 50.4531 24.5667 50.25V16.75C24.5662 16.5466 24.6214 16.347 24.7262 16.1728C24.831 15.9985 24.9814 15.8562 25.1612 15.7612C25.3411 15.6662 25.5434 15.6222 25.7464 15.6339C25.9495 15.6456 26.1454 15.7126 26.3131 15.8276L50.8798 32.5776C51.0297 32.6804 51.1522 32.8181 51.2369 32.9788C51.3215 33.1396 51.3657 33.3186 51.3656 33.5003C51.3655 33.682 51.3211 33.8609 51.2363 34.0216C51.1514 34.1823 51.0287 34.3198 50.8787 34.4224Z" fill="white"/>
</g>
<defs>
<clipPath id="clip0_1552_6625">
<rect width="67" height="67" fill="white"/>
</clipPath>
</defs>
</svg>
