<svg width="40" height="32" viewBox="0 0 40 32" fill="none" xmlns="http://www.w3.org/2000/svg">
<path d="M36.4045 2.58824C38.6517 5.17647 40 8 40 12.7059C40 20.9412 34.382 28.2353 26.5169 32L24.4944 28.9412C31.9101 24.7059 33.4832 19.2941 33.9326 15.7647C32.809 16.4706 31.236 16.7059 29.6629 16.4706C25.618 16 22.4719 12.7059 22.4719 8.23529C22.4719 6.11765 23.3708 4 24.7191 2.35294C26.2921 0.705882 28.0899 0 30.3371 0C32.809 0 35.0562 1.17647 36.4045 2.58824ZM13.9326 2.58824C16.1798 5.17647 17.5281 8 17.5281 12.7059C17.5281 20.9412 11.9101 28.2353 4.04494 32L2.02247 28.9412C9.4382 24.7059 11.0112 19.2941 11.4607 15.7647C10.3371 16.4706 8.76405 16.7059 7.19101 16.4706C3.14607 16 0 12.4706 0 8.23529C0 6.11765 0.898876 4 2.24719 2.35294C3.82023 0.705882 5.61798 0 7.86517 0C10.3371 0 12.5843 1.17647 13.9326 2.58824Z" fill="white"/>
</svg>
