<svg width="40" height="32" viewBox="0 0 40 32" fill="none" xmlns="http://www.w3.org/2000/svg">
<path d="M3.5955 29.4118C1.34831 26.8235 0 24 0 19.2941C0 11.0588 5.61798 3.76471 13.4831 0L15.5056 3.05882C8.08989 7.29412 6.51685 12.7059 6.06741 16.2353C7.19101 15.5294 8.76405 15.2941 10.3371 15.5294C14.382 16 17.5281 19.2941 17.5281 23.7647C17.5281 25.8824 16.6292 28 15.2809 29.6471C13.7079 31.2941 11.9101 32 9.66292 32C7.19101 32 4.94382 30.8235 3.5955 29.4118ZM26.0674 29.4118C23.8202 26.8235 22.4719 24 22.4719 19.2941C22.4719 11.0588 28.0899 3.76471 35.9551 0L37.9775 3.05882C30.5618 7.29412 28.9888 12.7059 28.5393 16.2353C29.6629 15.5294 31.236 15.2941 32.809 15.5294C36.8539 16 40 19.5294 40 23.7647C40 25.8824 39.1011 28 37.7528 29.6471C36.1798 31.2941 34.382 32 32.1348 32C29.6629 32 27.4157 30.8235 26.0674 29.4118Z" fill="white"/>
</svg>
